<svg width="659" height="763" viewBox="0 0 659 763" xmlns="http://www.w3.org/2000/svg">
  <g fill="none" fill-rule="evenodd">
    <path d="M562.673 498v-16.464h5.335c2.02 0 3.34.082 3.953.247.95.247 1.74.784 2.37 1.612.64.827.96 1.896.96 3.206 0 1.02-.18 1.87-.55 2.55-.36.69-.83 1.23-1.4 1.63-.56.4-1.14.66-1.72.78-.79.16-1.94.24-3.45.24H566v6.2h-3.326zm3.325-13.68v4.673h1.82c1.31 0 2.185-.086 2.627-.258.442-.172.788-.442 1.04-.81.25-.366.375-.792.375-1.28 0-.598-.176-1.092-.528-1.48-.352-.39-.797-.634-1.336-.73-.397-.076-1.195-.114-2.392-.114h-1.606zM577.78 498v-16.464h3.325v6.48h6.514v-6.48h3.32V498h-3.33v-7.2h-6.51v7.2h-3.33zm16.355 0v-16.464h5.334c2.02 0 3.33.082 3.95.247.94.247 1.73.784 2.37 1.612.63.827.95 1.896.95 3.206 0 1.02-.19 1.87-.55 2.55-.37.69-.84 1.23-1.4 1.63s-1.14.66-1.73.78c-.8.16-1.95.24-3.45.24h-2.17v6.2h-3.33zm3.324-13.68v4.673h1.81c1.31 0 2.18-.086 2.63-.258.44-.172.79-.442 1.04-.81.25-.366.37-.792.37-1.28 0-.598-.18-1.092-.53-1.48-.36-.39-.8-.634-1.34-.73-.4-.076-1.2-.114-2.39-.114h-1.61zm-73.74-446.5h3.46v9.305c0 1.477.04 2.434.13 2.87.15.704.5 1.27 1.06 1.694.56.42 1.32.63 2.29.63.98 0 1.72-.2 2.22-.61.5-.41.8-.9.9-1.49.1-.59.15-1.56.15-2.92v-9.5h3.47v9.02c0 2.06-.1 3.52-.28 4.37-.19.85-.54 1.57-1.04 2.15-.51.59-1.18 1.06-2.02 1.4-.85.35-1.95.53-3.31.53-1.64 0-2.89-.19-3.74-.57-.85-.38-1.52-.87-2.01-1.48-.49-.61-.82-1.24-.97-1.91-.23-.99-.34-2.44-.34-4.36V37.8zM542.51 55V37.82h3.467V55h-3.468zM410.637 381v-35.075h6.89l14.356 23.423v-23.423h6.58V381h-7.107l-14.14-22.873V381h-6.58zm38.45 0v-35.075h11.365c4.307 0 7.114.175 8.422.526 2.01.53 3.692 1.68 5.048 3.44 1.356 1.76 2.034 4.04 2.034 6.83 0 2.16-.39 3.97-1.173 5.43-.78 1.47-1.774 2.62-2.978 3.46-1.205.84-2.43 1.39-3.673 1.66-1.69.34-4.14.5-7.345.5h-4.618V381h-7.09zm7.082-29.142v9.954h3.87c2.79 0 4.66-.184 5.6-.55.94-.368 1.68-.942 2.21-1.723.53-.79.8-1.7.8-2.73 0-1.28-.38-2.33-1.13-3.16-.75-.83-1.7-1.35-2.85-1.56-.85-.16-2.55-.24-5.1-.24h-3.42zM484.81 381v-35.075h10.6l6.363 23.926 6.293-23.92h10.623V381h-6.58v-27.61L505.14 381h-6.82l-6.937-27.61V381h-6.58zm-73.394-78v-14.316h4.326l2.598 9.765 2.568-9.77h4.336V303h-2.685v-11.27L419.71 303h-2.783l-2.83-11.27V303h-2.687zm17.393-7.07c0-1.46.21-2.683.65-3.672.32-.73.77-1.384 1.33-1.963.56-.58 1.18-1.01 1.85-1.29.89-.377 1.92-.566 3.08-.566 2.11 0 3.79.65 5.06 1.96s1.9 3.13 1.9 5.46c0 2.31-.63 4.12-1.89 5.42-1.26 1.3-2.94 1.96-5.04 1.96-2.13 0-3.82-.65-5.08-1.95-1.26-1.3-1.89-3.09-1.89-5.37zm2.97-.098c0 1.62.37 2.85 1.12 3.687.75.83 1.7 1.25 2.85 1.25 1.15 0 2.1-.42 2.84-1.25.73-.83 1.1-2.08 1.1-3.74 0-1.64-.36-2.87-1.08-3.67-.72-.81-1.68-1.21-2.87-1.21-1.19 0-2.15.41-2.88 1.22s-1.1 2.05-1.1 3.69zm14.43-7.148h5.28c1.19 0 2.1.09 2.72.273.84.247 1.56.687 2.15 1.318.6.632 1.05 1.405 1.36 2.32.31.914.47 2.042.47 3.384 0 1.17-.15 2.19-.44 3.04-.36 1.04-.87 1.88-1.54 2.53-.5.49-1.18.87-2.03 1.14-.64.2-1.49.3-2.56.3h-5.44v-14.31zm2.89 2.42v9.484h2.16c.8 0 1.39-.046 1.74-.137.47-.11.85-.31 1.16-.59.31-.28.56-.74.75-1.38.19-.64.29-1.51.29-2.62 0-1.1-.1-1.95-.3-2.55-.2-.59-.47-1.05-.82-1.38-.35-.33-.8-.55-1.34-.67-.41-.09-1.2-.13-2.38-.13h-1.3zm12.82-2.42h2.89v7.753c0 1.23.03 2.028.11 2.393.12.586.41 1.056.88 1.41.46.356 1.1.533 1.91.533.82 0 1.43-.167 1.85-.502.42-.33.67-.74.75-1.23.08-.49.13-1.3.13-2.43v-7.92h2.89v7.52c0 1.72-.08 2.94-.24 3.65-.16.71-.45 1.31-.87 1.8s-.98.88-1.69 1.17c-.71.29-1.63.44-2.76.44-1.37 0-2.41-.16-3.11-.47-.71-.31-1.27-.72-1.68-1.23-.41-.5-.68-1.03-.81-1.58-.19-.82-.29-2.03-.29-3.63v-7.64zM477.75 303v-14.2h2.89v11.788h7.19V303h-10.08zm26.33 0h-3.14l-1.25-3.252h-5.72L492.79 303h-3.07l5.577-14.316h3.057L504.086 303zm-5.32-5.664l-1.97-5.313-1.93 5.313h3.91zm8.15 5.664v-14.316h6.082c1.53 0 2.642.128 3.335.385.694.25 1.25.71 1.665 1.37.417.66.625 1.41.625 2.25 0 1.07-.315 1.96-.947 2.66-.63.7-1.575 1.14-2.832 1.32.625.36 1.14.76 1.548 1.2.407.43.955 1.21 1.646 2.32l1.748 2.8h-3.457l-2.09-3.12c-.742-1.12-1.25-1.82-1.524-2.11-.28-.29-.57-.49-.87-.6-.31-.11-.79-.16-1.46-.16h-.59v6h-2.89zm2.89-8.262h2.138c1.387 0 2.252-.058 2.597-.175.346-.118.616-.32.81-.606.196-.286.294-.644.294-1.074 0-.482-.13-.87-.39-1.167-.26-.296-.62-.484-1.09-.562-.24-.032-.94-.05-2.11-.05h-2.25v3.634zM103.554 690.263l2.522.8c-.387 1.406-1.03 2.45-1.93 3.133-.898.682-2.04 1.024-3.422 1.024-1.71 0-3.118-.585-4.22-1.754-1.1-1.17-1.65-2.767-1.65-4.794 0-2.145.552-3.81 1.66-4.997 1.107-1.186 2.563-1.78 4.368-1.78 1.576 0 2.856.466 3.84 1.398.587.55 1.026 1.342 1.32 2.373l-2.576.615c-.153-.66-.47-1.19-.954-1.58-.483-.38-1.07-.58-1.762-.58-.955 0-1.73.35-2.325 1.03-.594.69-.892 1.8-.892 3.33 0 1.63.293 2.79.88 3.48.585.69 1.347 1.04 2.284 1.04.692 0 1.286-.22 1.784-.66.5-.44.86-1.13 1.08-2.07zm5.38-1.626c0-1.313.196-2.414.588-3.305.293-.656.693-1.245 1.2-1.767.507-.52 1.062-.908 1.665-1.16.803-.34 1.73-.51 2.778-.51 1.898 0 3.417.59 4.557 1.767 1.14 1.178 1.71 2.816 1.71 4.913 0 2.08-.566 3.708-1.697 4.883-1.13 1.174-2.643 1.762-4.535 1.762-1.916 0-3.44-.585-4.57-1.754-1.13-1.17-1.697-2.778-1.697-4.83zm2.68-.088c0 1.45.337 2.56 1.01 3.31.674.75 1.53 1.13 2.567 1.13 1.04 0 1.89-.38 2.56-1.12.67-.75 1-1.87 1-3.36 0-1.48-.32-2.58-.97-3.31-.65-.73-1.51-1.09-2.58-1.09s-1.93.36-2.59 1.1c-.65.73-.98 1.84-.98 3.32zM124.64 695v-12.885h2.53l5.275 8.605v-8.605h2.417V695h-2.61l-5.195-8.402V695h-2.417zm13.465-4.192l2.532-.246c.152.85.46 1.473.927 1.872.466.398 1.094.597 1.885.597.83 0 1.46-.17 1.89-.53.42-.35.63-.77.63-1.24 0-.3-.09-.56-.27-.78-.18-.21-.49-.4-.94-.56-.31-.1-1-.29-2.09-.56-1.4-.34-2.38-.77-2.94-1.27-.79-.71-1.19-1.57-1.19-2.59 0-.65.18-1.27.56-1.84.37-.57.91-1 1.61-1.3.7-.3 1.54-.45 2.53-.45 1.62 0 2.83.36 3.65 1.07.82.71 1.25 1.66 1.29 2.84l-2.6.12c-.11-.66-.35-1.13-.72-1.42-.37-.29-.92-.43-1.65-.43-.76 0-1.35.16-1.77.47-.28.2-.41.46-.41.8 0 .3.12.56.38.78.32.27 1.12.56 2.39.86 1.26.3 2.2.61 2.81.93.6.32 1.08.76 1.42 1.31.34.56.51 1.24.51 2.05 0 .74-.21 1.43-.62 2.08-.41.65-.99 1.13-1.74 1.44-.75.32-1.69.47-2.8.47-1.63 0-2.88-.37-3.75-1.13-.88-.75-1.4-1.85-1.57-3.29zM151.843 695v-12.885h2.602V695h-2.602zm5.573-4.192l2.53-.246c.154.85.463 1.473.93 1.872.465.398 1.093.597 1.884.597.838 0 1.47-.17 1.894-.53.425-.35.637-.77.637-1.24 0-.3-.08-.56-.26-.78-.18-.21-.49-.4-.93-.56-.3-.1-1-.29-2.08-.56-1.39-.34-2.37-.77-2.93-1.27-.79-.71-1.18-1.57-1.18-2.59 0-.65.19-1.27.56-1.84.38-.57.91-1 1.61-1.3.7-.3 1.55-.45 2.54-.45 1.62 0 2.84.36 3.65 1.07.82.71 1.25 1.66 1.29 2.84l-2.6.12c-.11-.66-.35-1.13-.71-1.42-.36-.29-.91-.43-1.65-.43-.75 0-1.35.16-1.77.47-.27.2-.41.46-.41.8 0 .3.13.56.39.78.33.27 1.13.56 2.39.86 1.27.3 2.2.61 2.81.93.61.32 1.08.76 1.43 1.31.34.56.51 1.24.51 2.05 0 .74-.2 1.43-.61 2.08-.41.65-.99 1.13-1.74 1.44-.75.32-1.69.47-2.81.47-1.63 0-2.88-.37-3.75-1.13-.87-.75-1.39-1.85-1.56-3.29zM174.134 695v-10.705h-3.824v-2.18h10.24v2.18h-3.815V695h-2.6zm9.246 0v-12.885h9.554v2.18h-6.952v2.856h6.47v2.18h-6.47v3.51h7.198V695h-9.8zm13.185 0v-12.885h2.53l5.274 8.605v-8.605h2.41V695h-2.61l-5.2-8.402V695h-2.42zm22.368-4.737l2.523.8c-.387 1.406-1.03 2.45-1.93 3.133-.9.682-2.04 1.024-3.423 1.024-1.71 0-3.117-.585-4.218-1.754-1.102-1.17-1.653-2.767-1.653-4.794 0-2.145.554-3.81 1.66-4.997 1.11-1.186 2.565-1.78 4.37-1.78 1.576 0 2.856.466 3.84 1.398.586.55 1.026 1.342 1.32 2.373l-2.576.615c-.153-.66-.47-1.19-.954-1.58-.483-.38-1.07-.58-1.762-.58-.955 0-1.73.35-2.325 1.03-.595.69-.892 1.8-.892 3.33 0 1.63.293 2.79.88 3.48.585.69 1.346 1.04 2.284 1.04.69 0 1.286-.22 1.784-.66.5-.44.86-1.13 1.08-2.07zm9.29 4.737v-5.423l-4.72-7.462h3.05l3.033 5.098 2.97-5.098h2.998l-4.737 7.48V695h-2.593z" fill="#333"/>
    <path d="M366.326 762.063h-83.75v-62.1h14.167v45.19h18.567v-42.047h14.11v42.047h22.795v-46.79h14.11v63.7zm0-70.526l-43.704-28.622-40.047 25.937v-19.767l26.908-16.796-26.908-16.46v-19.59l40.676 26.05 43.08-28.62v20.39l-28.96 18.56 28.97 18.62v20.28zm0-87.55h-83.75V576.85c0-10.283.418-16.986 1.256-20.11 1.257-4.798 3.99-8.816 8.198-12.053 4.208-3.238 9.645-4.856 16.31-4.856 5.142 0 9.464.94 12.968 2.8 3.504 1.87 6.256 4.24 8.255 7.12 2 2.88 3.323 5.8 3.97 8.77.8 4.04 1.2 9.88 1.2 17.54v11.03h31.593V604zm-69.583-16.91h23.766v-9.255c0-6.666-.44-11.122-1.32-13.37-.88-2.246-2.25-4.007-4.12-5.283-1.87-1.28-4.04-1.92-6.51-1.92-3.05 0-5.57.89-7.55 2.68-1.98 1.79-3.22 4.05-3.72 6.8-.38 2.01-.57 6.07-.57 12.16v8.17zm69.583-62.13h-83.75V462.85h14.167v45.188h18.567V465.99h14.11v42.048h22.795V461.25h14.11v63.698zm0-79.094h-83.75v-35.59c0-8.95.75-15.454 2.256-19.51 1.504-4.057 4.18-7.304 8.026-9.74 3.847-2.44 8.246-3.657 13.197-3.657 6.284 0 11.473 1.847 15.568 5.54 4.094 3.696 6.674 9.218 7.74 16.57 2.133-3.658 4.476-6.676 7.027-9.056 2.552-2.38 7.084-5.59 13.597-9.627l16.34-10.226v20.224L348.1 403.01c-6.513 4.34-10.617 7.312-12.31 8.912-1.696 1.598-2.858 3.293-3.486 5.083-.63 1.79-.943 4.628-.943 8.512v3.428h34.97v16.91zm-48.33-16.91v-12.51c0-8.113-.344-13.18-1.03-15.197-.685-2.02-1.866-3.6-3.54-4.742-1.677-1.143-3.772-1.714-6.286-1.714-2.818 0-5.094.752-6.827 2.257-1.732 1.504-2.827 3.627-3.284 6.37-.2 1.37-.29 5.484-.29 12.34v13.196h21.25zm48.33-68.012h-83.75v-16.91h83.75v16.91zm0-34.02h-83.75v-62.1h14.167V310h18.567v-42.047h14.11V310h22.795v-46.788h14.11v63.698zm0-79.21h-83.75v-16.45l55.928-34.27h-55.93v-15.71h83.752v16.97L311.71 232h54.616v15.71zm-30.793-138.9l5.2-16.39c9.14 2.52 15.93 6.7 20.366 12.54 4.43 5.85 6.65 13.27 6.65 22.25 0 11.12-3.8 20.27-11.4 27.43-7.6 7.16-17.99 10.74-31.17 10.74-13.94 0-24.77-3.6-32.48-10.79-7.72-7.19-11.57-16.66-11.57-28.39 0-10.24 3.03-18.57 9.08-24.96 3.58-3.81 8.72-6.66 15.42-8.57l4 16.74c-4.35.99-7.77 3.06-10.29 6.2-2.51 3.15-3.77 6.96-3.77 11.46 0 6.21 2.23 11.25 6.68 15.11 4.45 3.87 11.67 5.8 21.65 5.8 10.59 0 18.13-1.9 22.62-5.71 4.49-3.81 6.74-8.76 6.74-14.85 0-4.49-1.43-8.36-4.29-11.6-2.86-3.23-7.35-5.56-13.48-6.97zm30.793-31.9h-83.75V14.8h14.167v45.19h18.567V17.93h14.11v42.047h22.795v-46.79h14.11v63.7zM77.383 231.32h10.84v29.073c0 4.62.134 7.61.403 8.98.464 2.2 1.57 3.96 3.314 5.29 1.746 1.33 4.132 2 7.16 2 3.076 0 5.395-.628 6.958-1.886 1.562-1.26 2.502-2.8 2.82-4.633.317-1.83.476-4.87.476-9.12v-29.7h10.84v28.2c0 6.445-.294 10.998-.88 13.66-.585 2.66-1.666 4.907-3.24 6.738-1.575 1.83-3.68 3.29-6.318 4.377-2.636 1.08-6.08 1.63-10.327 1.63-5.13 0-9.02-.6-11.67-1.78-2.65-1.19-4.74-2.73-6.28-4.62-1.54-1.9-2.55-3.88-3.04-5.95-.71-3.08-1.06-7.62-1.06-13.63v-28.64zm51.49 36.22l10.546-1.03c.63 3.54 1.92 6.14 3.86 7.8 1.94 1.66 4.56 2.49 7.85 2.49 3.49 0 6.12-.74 7.89-2.217 1.77-1.47 2.65-3.2 2.65-5.18 0-1.27-.37-2.35-1.12-3.24-.75-.89-2.05-1.66-3.9-2.32-1.27-.44-4.17-1.22-8.68-2.34-5.81-1.44-9.89-3.21-12.23-5.31-3.3-2.953-4.95-6.554-4.95-10.802 0-2.73.77-5.29 2.32-7.67s3.78-4.19 6.7-5.43c2.91-1.25 6.44-1.87 10.56-1.87 6.74 0 11.81 1.48 15.21 4.43 3.4 2.95 5.19 6.9 5.36 11.83l-10.84.47c-.46-2.76-1.46-4.74-2.98-5.95-1.53-1.21-3.82-1.81-6.87-1.81-3.15 0-5.62.65-7.4 1.94-1.15.83-1.72 1.95-1.72 3.34 0 1.27.53 2.36 1.61 3.26 1.37 1.15 4.69 2.35 9.96 3.59 5.27 1.25 9.17 2.54 11.7 3.87 2.53 1.33 4.5 3.15 5.93 5.46 1.43 2.31 2.14 5.16 2.14 8.55 0 3.08-.85 5.96-2.56 8.65-1.71 2.69-4.13 4.69-7.25 5.99s-7.02 1.96-11.68 1.96c-6.79 0-12-1.57-15.64-4.71-3.64-3.14-5.81-7.71-6.52-13.71zm52.77 17.46v-53.687h39.808v9.083h-28.96v11.9h26.96v9.047h-26.96v14.612h30V285h-40.84zm50.062 0v-53.687h22.815c5.737 0 9.906.483 12.506 1.447 2.6.964 4.68 2.68 6.244 5.145 1.562 2.466 2.343 5.286 2.343 8.46 0 4.028-1.184 7.354-3.552 9.98-2.36 2.624-5.9 4.278-10.62 4.96 2.35 1.368 4.28 2.87 5.81 4.506 1.53 1.64 3.59 4.55 6.17 8.72l6.56 10.47h-12.97l-7.83-11.68c-2.78-4.17-4.68-6.8-5.71-7.89-1.02-1.08-2.11-1.83-3.26-2.23-1.14-.4-2.96-.6-5.45-.6h-2.2V285h-10.84zm10.84-30.98h8.02c5.2 0 8.447-.22 9.74-.66 1.295-.44 2.308-1.197 3.04-2.27.733-1.075 1.1-2.418 1.1-4.03 0-1.806-.483-3.265-1.448-4.376-.964-1.11-2.325-1.812-4.083-2.105-.88-.13-3.516-.19-7.91-.19h-8.46v13.62zM372.485 279v-36.507h7.37V279h-7.37zm14.905 0v-36.507h7.172l14.942 24.38v-24.38h6.848V279h-7.396l-14.717-23.807V279h-6.85zm45.41 0v-30.33h-10.833v-6.177h29.012v6.176h-10.81V279h-7.37zm23.37 0v-36.507h27.07v6.176h-19.698v8.09h18.328v6.15h-18.328v9.93h20.395V279H456.17zm34.478 0v-36.507h15.515c3.9 0 6.736.328 8.504.984 1.768.656 3.183 1.822 4.246 3.5 1.062 1.675 1.593 3.593 1.593 5.75 0 2.74-.805 5.002-2.415 6.787-1.61 1.785-4.01 2.91-7.22 3.374 1.6.93 2.91 1.95 3.95 3.063 1.04 1.12 2.44 3.09 4.2 5.93l4.46 7.12h-8.81l-5.33-7.94c-1.89-2.84-3.18-4.63-3.88-5.36-.69-.74-1.43-1.24-2.21-1.52-.78-.27-2.01-.41-3.71-.41h-1.49V279h-7.37zm7.37-21.067h5.455c3.536 0 5.744-.15 6.624-.45.88-.297 1.57-.812 2.067-1.543.498-.73.747-1.643.747-2.74 0-1.227-.32-2.22-.98-2.975-.65-.755-1.58-1.232-2.77-1.432-.59-.083-2.39-.124-5.38-.124h-5.75v9.26zM527.94 279v-36.507h25.027v6.176H535.31v8.64h15.24v6.17h-15.24V279h-7.37zm61.646 0h-8.02l-3.186-8.292h-14.593L560.774 279h-7.82l14.22-36.507h7.794L589.586 279zm-13.572-14.443l-5.03-13.547-4.93 13.547h9.96zm41.276 1.02l7.147 2.267c-1.096 3.984-2.918 6.943-5.467 8.877-2.548 1.94-5.78 2.91-9.7 2.91-4.847 0-8.83-1.65-11.952-4.97-3.12-3.31-4.682-7.84-4.682-13.58 0-6.07 1.57-10.79 4.707-14.15 3.137-3.36 7.263-5.04 12.376-5.04 4.46 0 8.09 1.32 10.88 3.96 1.66 1.56 2.9 3.81 3.73 6.73l-7.3 1.75c-.43-1.89-1.34-3.38-2.7-4.48-1.37-1.09-3.04-1.64-5-1.64-2.71 0-4.9.98-6.59 2.92-1.69 1.94-2.53 5.09-2.53 9.44 0 4.62.83 7.9 2.49 9.86 1.66 1.96 3.82 2.94 6.47 2.94 1.96 0 3.64-.62 5.05-1.87 1.41-1.24 2.42-3.2 3.04-5.88zM631.198 279v-36.507h27.068v6.176H638.57v8.09h18.327v6.15H638.57v9.93h20.394V279h-27.766z" fill="#27AE60"/>
    <path d="M85.507 221v-24.338h16.684v4.117H90.42v5.76h10.16v4.11H90.42V221h-4.913zm21.042 0v-24.338h10.34c2.6 0 4.49.22 5.67.656 1.18.437 2.12 1.215 2.83 2.332.71 1.118 1.06 2.397 1.06 3.835 0 1.827-.54 3.334-1.61 4.524-1.08 1.19-2.68 1.94-4.82 2.25 1.06.62 1.94 1.3 2.63 2.04s1.62 2.06 2.8 3.95l2.97 4.75h-5.88l-3.54-5.3c-1.26-1.9-2.13-3.09-2.59-3.58-.47-.49-.96-.83-1.48-1.01-.52-.19-1.35-.28-2.48-.28h-1V221h-4.92zm4.91-14.045h3.63c2.35 0 3.83-.1 4.41-.3.58-.198 1.04-.54 1.38-1.028.33-.487.5-1.096.5-1.826 0-.81-.22-1.48-.66-1.98-.44-.5-1.06-.82-1.85-.95-.4-.05-1.6-.08-3.59-.08h-3.84v6.18zm18.92 2.025c0-2.48.37-4.56 1.11-6.242.55-1.24 1.31-2.352 2.26-3.337.95-.98 2-1.71 3.14-2.19 1.51-.64 3.26-.96 5.24-.96 3.58 0 6.45 1.11 8.6 3.34s3.23 5.32 3.23 9.28c0 3.93-1.07 7.01-3.21 9.22-2.14 2.22-4.99 3.33-8.57 3.33-3.62 0-6.5-1.1-8.64-3.31-2.13-2.21-3.2-5.25-3.2-9.12zm5.06-.166c0 2.756.63 4.845 1.91 6.268 1.27 1.422 2.89 2.133 4.84 2.133 1.96 0 3.57-.706 4.82-2.117 1.25-1.41 1.88-3.528 1.88-6.35 0-2.79-.61-4.87-1.84-6.242-1.23-1.373-2.85-2.06-4.88-2.06s-3.66.696-4.9 2.085c-1.24 1.39-1.86 3.49-1.86 6.29zM158.16 221v-24.338h4.78l9.964 16.253v-16.253h4.565V221h-4.93l-9.81-15.87V221h-4.56zm30.275 0v-20.22h-7.222v-4.118h19.34v4.117h-7.204V221h-4.91zm13.14-6.49v-4.666h9.164v4.665h-9.16zm12.177 6.49v-24.338H231.8v4.117h-13.132v5.39h12.22v4.1h-12.22v6.62h13.597v4.1h-18.51zm23.018 0v-24.338h4.782l9.96 16.253v-16.253h4.566V221h-4.93l-9.81-15.87V221h-4.567zm24.778-24.338h8.983c2.03 0 3.57.155 4.64.465 1.43.42 2.65 1.168 3.67 2.24 1.02 1.075 1.79 2.39 2.33 3.944.53 1.56.8 3.48.8 5.76 0 2.01-.25 3.73-.74 5.18-.61 1.77-1.48 3.21-2.61 4.3-.85.83-2 1.48-3.45 1.94-1.08.35-2.53.52-4.35.52h-9.25v-24.34zm4.915 4.117v16.12h3.67c1.372 0 2.362-.08 2.97-.24.798-.2 1.46-.54 1.985-1.02.52-.48.95-1.26 1.282-2.35.332-1.09.498-2.58.498-4.46s-.165-3.33-.497-4.34c-.33-1.01-.79-1.8-1.39-2.36-.6-.57-1.35-.95-2.27-1.15-.68-.16-2.03-.24-4.03-.24h-2.21z" fill="#D32F6E"/>
    <path d="M405.555 544.477v7.39l-7.642 2.937v13.448l7.642 2.777v7.2l-33.643-13.11v-7.19l33.643-13.47zm-13.31 12.507l-12.485 4.636 12.485 4.544v-9.18zm13.31-21.495h-27.952v9.98h-5.69v-26.74h5.69v9.96h27.952v6.79zm-16.615-20.21c-3.427 0-6.303-.52-8.63-1.54-1.712-.77-3.25-1.81-4.612-3.14-1.36-1.33-2.37-2.78-3.03-4.35-.886-2.1-1.33-4.52-1.33-7.26 0-4.96 1.538-8.93 4.613-11.9 3.08-2.98 7.36-4.47 12.83-4.47 5.43 0 9.68 1.47 12.75 4.43 3.07 2.95 4.6 6.9 4.6 11.84 0 5-1.52 8.98-4.57 11.93s-7.25 4.43-12.61 4.43zm-.23-7c3.81 0 6.698-.88 8.664-2.64 1.966-1.76 2.95-4 2.95-6.7 0-2.71-.977-4.93-2.927-6.67-1.95-1.74-4.877-2.61-8.778-2.61-3.86 0-6.74.84-8.63 2.53-1.9 1.69-2.85 3.93-2.85 6.73s.96 5.05 2.88 6.77c1.92 1.71 4.81 2.57 8.68 2.57zm16.845-32.15h-33.643v-10.16l22.95-6.11-22.95-6.04v-10.19h33.643v6.31h-26.483l26.483 6.68v6.54l-26.483 6.65h26.483v6.31zm0-40.34h-33.643V429h33.643v6.794zm-12.37-36.09l2.09-6.59c3.67 1.01 6.398 2.69 8.18 5.04 1.783 2.34 2.674 5.32 2.674 8.93 0 4.47-1.53 8.14-4.58 11.01-3.06 2.87-7.23 4.31-12.52 4.31-5.6 0-9.95-1.45-13.05-4.34-3.1-2.9-4.65-6.7-4.65-11.41 0-4.12 1.21-7.46 3.65-10.03 1.43-1.53 3.5-2.68 6.19-3.45l1.6 6.72c-1.75.4-3.12 1.23-4.13 2.49-1.01 1.26-1.52 2.8-1.52 4.6 0 2.49.89 4.52 2.68 6.07 1.79 1.55 4.69 2.33 8.7 2.33 4.25 0 7.28-.77 9.09-2.3 1.8-1.53 2.71-3.52 2.71-5.97 0-1.81-.58-3.36-1.72-4.66-1.15-1.3-2.96-2.24-5.42-2.8zM111.86 131.73h22.89c4.53 0 7.91.19 10.137.57 2.226.38 4.218 1.17 5.976 2.367s3.223 2.79 4.395 4.782c1.172 1.99 1.758 4.22 1.758 6.7 0 2.68-.723 5.14-2.168 7.38-1.446 2.24-3.405 3.92-5.88 5.04 3.49 1.01 6.173 2.75 8.048 5.19s2.812 5.32 2.812 8.63c0 2.6-.605 5.14-1.816 7.6-1.21 2.46-2.865 4.42-4.96 5.9-2.098 1.47-4.682 2.37-7.755 2.71-1.927.21-6.576.34-13.945.39H111.86v-57.26zm11.562 9.53v13.246H131c4.505 0 7.305-.067 8.398-.198 1.98-.234 3.536-.917 4.668-2.05 1.133-1.133 1.7-2.624 1.7-4.473 0-1.78-.49-3.21-1.465-4.32-.97-1.11-2.42-1.78-4.35-2.01-1.14-.13-4.44-.2-9.88-.2h-6.64zm0 22.777v15.31h10.703c4.167 0 6.81-.12 7.93-.35 1.718-.32 3.118-1.08 4.2-2.29 1.08-1.21 1.62-2.83 1.62-4.865 0-1.72-.417-3.178-1.25-4.375s-2.038-2.07-3.613-2.615c-1.576-.548-4.994-.82-10.254-.82h-9.336zm45.32 24.96v-57.27h42.462v9.684h-30.9v12.7h28.75v9.65h-28.75v15.59h31.993V189h-43.554zm52.353 0v-57.27H238.4l10.39 39.06 10.273-39.064h17.344V189h-10.742v-45.078L254.298 189h-11.133l-11.328-45.078V189h-10.742zm152.08 437V585.19h17.34c4.36 0 7.528.367 9.504 1.1 1.97.733 3.55 2.036 4.74 3.91 1.19 1.874 1.78 4.017 1.78 6.43 0 3.06-.9 5.59-2.7 7.583-1.8 1.996-4.49 3.253-8.07 3.773 1.78 1.04 3.25 2.18 4.41 3.42 1.16 1.244 2.72 3.45 4.69 6.625l4.98 7.96H400l-5.956-8.87c-2.116-3.17-3.564-5.17-4.343-6-.78-.82-1.6-1.39-2.47-1.7-.87-.3-2.25-.46-4.14-.46h-1.67V626h-8.24zm8.238-23.55h6.095c3.952 0 6.42-.17 7.404-.5.983-.337 1.753-.91 2.31-1.728.556-.82.835-1.84.835-3.07 0-1.37-.367-2.48-1.1-3.33-.733-.85-1.767-1.38-3.103-1.6-.668-.1-2.672-.14-6.012-.14h-6.43v10.35zm32.29 23.55v-40.805h30.255v6.903h-22.016v9.05h20.485v6.872h-20.485v11.105h22.795V626h-31.033zm74.207 0h-8.962l-3.562-9.27h-16.31L455.71 626h-8.74l15.89-40.802h8.713L487.91 626zm-15.168-16.146l-5.622-15.14-5.51 15.14h11.132zM517.78 611l7.988 2.53c-1.225 4.454-3.26 7.762-6.11 9.923-2.848 2.162-6.46 3.243-10.84 3.243-5.418 0-9.87-1.85-13.36-5.553-3.488-3.7-5.232-8.762-5.232-15.182 0-6.79 1.754-12.06 5.26-15.82 3.507-3.75 8.118-5.63 13.833-5.63 4.99 0 9.04 1.48 12.16 4.43 1.85 1.75 3.24 4.25 4.17 7.52l-8.16 1.95c-.49-2.11-1.49-3.78-3.02-5.01-1.53-1.22-3.39-1.84-5.58-1.84-3.03 0-5.48 1.09-7.36 3.26-1.89 2.17-2.83 5.69-2.83 10.55 0 5.16.93 8.83 2.78 11.02 1.85 2.19 4.27 3.29 7.23 3.29 2.19 0 4.07-.69 5.65-2.08 1.58-1.39 2.71-3.58 3.39-6.57zm23.635 15v-33.9h-12.107v-6.9h32.425v6.903h-12.08V626h-8.238zm-115-46v-14.316h4.327l2.598 9.765 2.568-9.77h4.336V580h-2.685v-11.27L434.71 580h-2.783l-2.83-11.27V580h-2.687zm31.327 0h-3.144l-1.25-3.252h-5.723l-1.18 3.252h-3.068l5.576-14.316h3.057L457.742 580zm-5.322-5.664l-1.972-5.313-1.934 5.313h3.906zm8.583 5.664v-14.316h6.083c1.53 0 2.642.128 3.335.385.7.25 1.25.71 1.67 1.37.42.66.63 1.41.63 2.25 0 1.07-.31 1.96-.94 2.66-.63.7-1.57 1.14-2.83 1.32.63.36 1.14.76 1.55 1.2.41.43.96 1.21 1.65 2.32l1.75 2.79h-3.46l-2.09-3.12c-.74-1.12-1.25-1.82-1.52-2.11-.27-.29-.56-.49-.87-.6-.3-.11-.79-.17-1.45-.17h-.58v6h-2.89zm2.89-8.262h2.14c1.386 0 2.25-.058 2.596-.176.34-.117.61-.32.81-.605.19-.286.29-.644.29-1.074 0-.482-.13-.87-.39-1.167-.26-.296-.62-.484-1.09-.562-.24-.032-.94-.05-2.11-.05h-2.26v3.634zm16.55 8.262l-5.116-14.316h3.135l3.623 10.595 3.506-10.6h3.07L483.53 580h-3.086zm11.406 0v-14.316h10.61v2.42h-7.73v3.175h7.18v2.41h-7.19v3.89h7.99V580h-10.88zm15.13 0v-14.2h2.89v11.788h7.19V580h-10.08zm26.76 0h-3.14l-1.25-3.252h-5.72L522.45 580h-3.066l5.577-14.316h3.06L533.75 580zm-5.33-5.664l-1.97-5.313-1.94 5.313h3.9zM537 580v-14.316h4.64c1.756 0 2.902.07 3.436.214.82.215 1.507.682 2.06 1.402.554.72.83 1.65.83 2.788 0 .88-.16 1.618-.478 2.217-.32.6-.724 1.07-1.216 1.41-.49.343-.99.57-1.5.68-.69.136-1.688.205-2.997.205h-1.884v5.4H537zm2.89-11.895v4.063h1.583c1.14 0 1.9-.075 2.285-.225.384-.15.685-.384.903-.703.22-.32.33-.69.33-1.113 0-.52-.15-.95-.46-1.29-.3-.338-.69-.55-1.16-.634-.34-.065-1.04-.098-2.08-.098h-1.39zM552.058 580v-14.316h4.64c1.756 0 2.902.07 3.436.214.82.215 1.507.682 2.06 1.402.554.72.83 1.65.83 2.788 0 .88-.16 1.618-.478 2.217-.32.6-.724 1.07-1.216 1.41-.492.343-.992.57-1.5.68-.69.136-1.69.205-2.998.205h-1.884v5.4h-2.89zm2.89-11.895v4.063h1.583c1.14 0 1.9-.075 2.29-.225.39-.15.69-.384.91-.703.22-.32.33-.69.33-1.113 0-.52-.15-.95-.46-1.29-.3-.338-.69-.55-1.16-.634-.34-.065-1.04-.098-2.08-.098h-1.39zM240.62 745.955v-6.627h20.845c2.725 0 4.82.24 6.29.72 1.915.643 3.454 1.81 4.614 3.503 1.16 1.7 1.74 3.93 1.74 6.7 0 3.25-.91 5.75-2.73 7.5-1.82 1.75-4.49 2.64-8.01 2.65l-.72-6.26c1.89-.07 3.22-.35 4-.83 1.18-.72 1.77-1.81 1.77-3.28 0-1.48-.43-2.53-1.27-3.14-.85-.61-2.6-.92-5.27-.92h-21.27zm32.93-42.906v7.23l-7.48 2.87v13.16l7.48 2.72v7.05l-32.93-12.83v-7.03l32.93-13.19zm-13.03 12.24l-12.217 4.53 12.218 4.44v-8.99zm-19.9-15.26v-12.15c0-2.74.21-4.83.63-6.27.57-1.93 1.58-3.59 3.032-4.97 1.453-1.38 3.23-2.43 5.335-3.15 2.103-.72 4.698-1.08 7.782-1.08 2.71 0 5.04.33 7 1.01 2.39.82 4.33 2 5.81 3.52 1.12 1.15 2 2.71 2.63 4.67.46 1.46.69 3.42.69 5.88V700H240.6zm5.57-6.65H268v-4.97c0-1.86-.104-3.2-.314-4.02-.27-1.08-.726-1.98-1.37-2.69-.644-.71-1.703-1.29-3.178-1.74-1.475-.45-3.485-.68-6.03-.68-2.546 0-4.5.22-5.863.67-1.363.45-2.426 1.08-3.19 1.89-.763.81-1.28 1.83-1.55 3.07-.21.93-.314 2.75-.314 5.46v2.99zm27.36-26.11h-32.93v-24.41h5.57v17.76h7.3V644.1h5.55v16.53H268v-18.396h5.55v25.044zm94.316-458.2l15.047-1.47c.906 5.05 2.743 8.76 5.512 11.13 2.77 2.37 6.505 3.55 11.207 3.55 4.98 0 8.734-1.06 11.26-3.16 2.524-2.11 3.787-4.58 3.787-7.4 0-1.81-.54-3.36-1.6-4.63-1.06-1.28-2.92-2.38-5.57-3.32-1.81-.63-5.94-1.74-12.38-3.35-8.29-2.06-14.11-4.58-17.46-7.58-4.7-4.22-7.06-9.35-7.06-15.41 0-3.9 1.1-7.55 3.32-10.95 2.21-3.4 5.4-5.99 9.56-7.76 4.16-1.78 9.18-2.67 15.07-2.67 9.61 0 16.85 2.1 21.7 6.32 4.86 4.21 7.41 9.84 7.65 16.87l-15.47.68c-.66-3.94-2.08-6.77-4.26-8.49-2.18-1.73-5.44-2.59-9.8-2.59-4.49 0-8.01.92-10.55 2.77-1.64 1.18-2.46 2.77-2.46 4.75 0 1.81.77 3.36 2.3 4.65 1.95 1.63 6.69 3.34 14.21 5.12 7.52 1.77 13.09 3.61 16.69 5.51 3.6 1.9 6.42 4.49 8.46 7.78 2.04 3.29 3.06 7.36 3.06 12.2 0 4.39-1.22 8.5-3.66 12.33-2.44 3.83-5.89 6.68-10.34 8.54-4.46 1.86-10.02 2.8-16.67 2.8-9.68 0-17.12-2.24-22.31-6.72-5.19-4.48-8.29-11-9.3-19.57zM511.084 234H494.26l-6.687-17.398h-30.616L450.635 234H434.23l29.832-76.593h16.353L511.085 234zm-28.474-30.303l-10.554-28.422-10.345 28.422h20.9zm31.62 5.382l15.047-1.47c.905 5.05 2.743 8.76 5.512 11.13 2.76 2.37 6.5 3.55 11.2 3.55 4.98 0 8.73-1.06 11.26-3.16 2.52-2.11 3.78-4.58 3.78-7.4 0-1.81-.53-3.35-1.6-4.63-1.07-1.27-2.92-2.38-5.57-3.32-1.82-.63-5.94-1.75-12.39-3.35-8.29-2.06-14.11-4.58-17.45-7.58-4.71-4.22-7.06-9.36-7.06-15.42 0-3.9 1.1-7.55 3.31-10.95 2.21-3.4 5.4-5.98 9.56-7.76 4.16-1.78 9.19-2.67 15.07-2.67 9.61 0 16.85 2.1 21.71 6.32 4.86 4.21 7.41 9.84 7.65 16.87l-15.47.68c-.66-3.94-2.08-6.77-4.26-8.49-2.18-1.73-5.45-2.59-9.8-2.59-4.49 0-8.01.92-10.55 2.77-1.64 1.18-2.46 2.77-2.46 4.75 0 1.81.76 3.36 2.3 4.65 1.95 1.64 6.68 3.34 14.21 5.12 7.52 1.77 13.09 3.61 16.69 5.51 3.6 1.9 6.42 4.49 8.46 7.78 2.03 3.3 3.05 7.36 3.05 12.2 0 4.39-1.22 8.5-3.66 12.33-2.44 3.83-5.89 6.68-10.35 8.55-4.46 1.86-10.02 2.79-16.67 2.79-9.69 0-17.12-2.24-22.31-6.71-5.19-4.48-8.29-11-9.3-19.57zm70.23 0l15.046-1.47c.906 5.05 2.743 8.76 5.512 11.13 2.77 2.37 6.505 3.55 11.207 3.55 4.98 0 8.734-1.06 11.26-3.16 2.525-2.11 3.787-4.58 3.787-7.4 0-1.81-.53-3.35-1.593-4.63-1.07-1.27-2.92-2.38-5.57-3.32-1.81-.63-5.94-1.75-12.38-3.35-8.29-2.06-14.11-4.58-17.45-7.58-4.7-4.22-7.06-9.36-7.06-15.42 0-3.9 1.1-7.55 3.31-10.95s5.4-5.98 9.56-7.76c4.16-1.78 9.19-2.67 15.07-2.67 9.61 0 16.85 2.1 21.71 6.32 4.85 4.21 7.41 9.84 7.65 16.87l-15.47.68c-.66-3.94-2.08-6.77-4.26-8.49-2.18-1.73-5.45-2.59-9.8-2.59-4.5 0-8.01.92-10.56 2.77-1.64 1.18-2.46 2.77-2.46 4.75 0 1.81.77 3.36 2.3 4.65 1.95 1.64 6.69 3.34 14.21 5.12 7.52 1.77 13.09 3.61 16.69 5.51 3.6 1.9 6.42 4.49 8.46 7.78 2.04 3.3 3.06 7.36 3.06 12.2 0 4.39-1.22 8.5-3.66 12.33-2.44 3.83-5.89 6.68-10.35 8.55-4.46 1.86-10.02 2.79-16.67 2.79-9.69 0-17.12-2.24-22.31-6.71-5.19-4.48-8.29-11-9.3-19.57zM164.73 124V77.472h34.5v7.87h-25.106V95.66h23.36v7.84h-23.36v12.663h25.993V124H164.73zm40.282-15.14l9.14-.888c.55 3.068 1.667 5.322 3.35 6.76 1.68 1.44 3.95 2.16 6.807 2.16 3.02 0 5.3-.64 6.83-1.922 1.53-1.28 2.3-2.777 2.3-4.49 0-1.1-.32-2.037-.97-2.81-.65-.772-1.77-1.443-3.38-2.015-1.1-.38-3.61-1.058-7.52-2.03-5.04-1.25-8.57-2.783-10.61-4.603-2.86-2.56-4.29-5.68-4.29-9.363 0-2.37.67-4.59 2.01-6.65 1.34-2.07 3.28-3.64 5.8-4.72 2.53-1.08 5.58-1.62 9.15-1.62 5.84 0 10.23 1.28 13.18 3.84 2.95 2.56 4.5 5.97 4.65 10.25l-9.4.41c-.4-2.39-1.27-4.11-2.59-5.16-1.33-1.05-3.31-1.57-5.95-1.57-2.73 0-4.87.56-6.42 1.68-1 .72-1.49 1.68-1.49 2.89 0 1.1.46 2.04 1.39 2.82 1.18.99 4.06 2.03 8.63 3.11s7.95 2.19 10.14 3.35c2.19 1.15 3.9 2.73 5.14 4.73 1.23 2 1.85 4.47 1.85 7.41 0 2.66-.74 5.16-2.22 7.49-1.48 2.32-3.58 4.05-6.29 5.19-2.71 1.13-6.08 1.69-10.13 1.69-5.88 0-10.4-1.36-13.55-4.08-3.15-2.72-5.03-6.68-5.65-11.89zm73.29-19.994l-8.633.952c-.22-1.777-.77-3.09-1.65-3.936-.89-.846-2.05-1.27-3.46-1.27-1.89 0-3.48.847-4.78 2.54-1.3 1.693-2.12 5.215-2.46 10.57 2.22-2.625 4.98-3.937 8.28-3.937 3.72 0 6.91 1.418 9.57 4.253 2.65 2.835 3.98 6.496 3.98 10.982 0 4.76-1.4 8.58-4.19 11.457-2.8 2.878-6.38 4.316-10.76 4.316-4.7 0-8.56-1.824-11.59-5.474-3.03-3.65-4.54-9.64-4.54-17.95 0-8.53 1.58-14.68 4.73-18.44 3.15-3.77 7.24-5.65 12.28-5.65 3.53 0 6.46.99 8.77 2.97 2.31 1.97 3.79 4.85 4.42 8.61zm-20.217 19.455c0 2.9.666 5.14 2 6.72 1.332 1.58 2.856 2.37 4.57 2.37 1.65 0 3.025-.64 4.126-1.93 1.1-1.29 1.65-3.4 1.65-6.34 0-3.02-.59-5.24-1.77-6.65-1.18-1.4-2.66-2.11-4.44-2.11-1.71 0-3.16.67-4.34 2.02-1.18 1.35-1.77 3.33-1.77 5.95zm165.488 420.33h5.906v18.58c0 2.43-.22 4.3-.65 5.61-.58 1.71-1.62 3.08-3.13 4.12-1.51 1.04-3.5 1.55-5.97 1.55-2.9 0-5.13-.81-6.69-2.43-1.57-1.62-2.35-4-2.37-7.13l5.58-.64c.07 1.69.31 2.87.74 3.57.64 1.06 1.61 1.58 2.92 1.58 1.32 0 2.25-.37 2.8-1.13.55-.75.82-2.32.82-4.69v-18.96zm35.4 25.63c1.454 1.04 3.035 1.87 4.744 2.49l-2.182 4.19c-.895-.26-1.77-.63-2.623-1.1-.187-.09-1.5-.96-3.944-2.6-1.922.84-4.05 1.26-6.386 1.26-4.51 0-8.045-1.32-10.6-3.98-2.556-2.65-3.834-6.38-3.834-11.19 0-4.79 1.28-8.52 3.844-11.18 2.562-2.66 6.04-3.99 10.43-3.99 4.35 0 7.8 1.33 10.35 4s3.824 6.39 3.824 11.18c0 2.54-.354 4.77-1.06 6.69-.535 1.47-1.39 2.89-2.564 4.27zm-4.766-3.34c.76-.89 1.332-1.97 1.712-3.24.38-1.26.57-2.72.57-4.36 0-3.39-.75-5.92-2.25-7.6-1.5-1.67-3.45-2.51-5.87-2.51s-4.38.84-5.88 2.52c-1.5 1.68-2.25 4.21-2.25 7.59 0 3.43.75 6 2.25 7.7s3.4 2.56 5.69 2.56c.85 0 1.66-.14 2.42-.42-1.2-.78-2.42-1.4-3.66-1.84l1.66-3.38c1.95.67 3.81 1.67 5.58 3.01zm12.557-22.28h5.926v15.9c0 2.53.073 4.16.22 4.91.253 1.2.857 2.17 1.812 2.89.954.73 2.26 1.1 3.913 1.1 1.682 0 2.95-.34 3.804-1.03.85-.69 1.36-1.53 1.54-2.53.17-1 .26-2.66.26-4.98v-16.24h5.92v15.42c0 3.53-.16 6.01-.48 7.47-.32 1.46-.91 2.69-1.77 3.69s-2.01 1.8-3.46 2.39c-1.44.6-3.33.89-5.65.89-2.81 0-4.93-.32-6.38-.97-1.45-.65-2.6-1.49-3.44-2.52-.84-1.03-1.4-2.12-1.66-3.25-.39-1.68-.58-4.16-.58-7.45v-15.66zM495.977 558v-29.35h21.76v4.966h-15.835v6.507h14.735v4.944h-14.735v7.988h16.396V558h-22.32zm26.93 0v-29.35h12.472c3.13 0 5.41.265 6.83.792s2.56 1.465 3.41 2.813c.85 1.348 1.28 2.89 1.28 4.624 0 2.2-.65 4.02-1.94 5.45-1.3 1.43-3.23 2.34-5.81 2.71 1.28.75 2.34 1.57 3.17 2.46.83.89 1.96 2.48 3.37 4.76l3.58 5.73h-7.08l-4.29-6.39c-1.53-2.29-2.57-3.72-3.13-4.32s-1.15-1-1.78-1.23c-.62-.22-1.62-.33-2.98-.33h-1.2V558h-5.93zm5.926-16.937h4.384c2.843 0 4.618-.12 5.325-.36.708-.24 1.262-.654 1.662-1.24.4-.588.6-1.322.6-2.203 0-.988-.263-1.785-.79-2.393-.527-.607-1.27-.99-2.232-1.15-.48-.067-1.922-.1-4.325-.1h-4.624v7.446zM558.246 558v-12.352l-10.75-16.997h6.946l6.907 11.62 6.76-11.61h6.82l-10.79 17.04V558h-5.91zM413.913 418v-26.98h5.492v22.397h13.657V418h-19.15zm25.496 0v-27.2h20.16v4.6H444.9v6.03h13.657v4.584H444.9v7.403h15.197V418H439.41zm26.38-8.85l5.34-.52c.32 1.794.97 3.11 1.96 3.952.98.84 2.31 1.262 3.98 1.262 1.77 0 3.1-.374 4-1.123.89-.74 1.34-1.62 1.34-2.62 0-.64-.19-1.19-.57-1.64-.38-.45-1.04-.84-1.98-1.18-.65-.22-2.11-.61-4.4-1.18-2.95-.73-5.01-1.62-6.2-2.69-1.67-1.49-2.51-3.32-2.51-5.47 0-1.38.39-2.68 1.17-3.88.79-1.2 1.92-2.12 3.4-2.75 1.48-.63 3.26-.94 5.35-.94 3.41 0 5.98.75 7.71 2.25 1.72 1.5 2.63 3.5 2.72 6l-5.5.24c-.24-1.4-.74-2.4-1.51-3.01-.77-.61-1.93-.92-3.48-.92-1.6 0-2.84.33-3.75.99-.58.42-.87.98-.87 1.69 0 .64.27 1.19.81 1.65.69.58 2.37 1.19 5.05 1.82 2.67.63 4.64 1.28 5.93 1.96 1.28.68 2.28 1.6 3 2.77.72 1.17 1.08 2.62 1.08 4.34 0 1.56-.44 3.02-1.3 4.38-.87 1.36-2.09 2.37-3.68 3.04-1.59.67-3.56 1-5.92 1-3.44 0-6.08-.8-7.93-2.39-1.85-1.59-2.95-3.906-3.31-6.95zm27.77 0l5.34-.52c.32 1.794.97 3.11 1.96 3.952.98.84 2.31 1.262 3.98 1.262 1.77 0 3.1-.374 3.99-1.123.9-.74 1.34-1.62 1.34-2.62 0-.64-.19-1.19-.57-1.64-.38-.45-1.04-.84-1.98-1.18-.64-.22-2.11-.61-4.4-1.18-2.95-.73-5.01-1.62-6.2-2.69-1.67-1.49-2.5-3.32-2.5-5.47 0-1.38.39-2.68 1.17-3.88.78-1.2 1.92-2.12 3.39-2.75 1.48-.63 3.26-.94 5.35-.94 3.41 0 5.98.75 7.71 2.25 1.72 1.5 2.63 3.5 2.71 6l-5.49.24c-.24-1.4-.74-2.4-1.51-3.01-.78-.61-1.94-.92-3.48-.92-1.6 0-2.85.33-3.75.99-.59.42-.88.98-.88 1.69 0 .64.27 1.19.82 1.65.69.58 2.37 1.19 5.04 1.82 2.67.63 4.65 1.28 5.93 1.96 1.28.68 2.28 1.6 3 2.77s1.09 2.62 1.09 4.34c0 1.56-.438 3.02-1.3 4.38-.87 1.36-2.09 2.37-3.678 3.04-1.586.67-3.56 1-5.92 1-3.44 0-6.08-.8-7.92-2.39-1.84-1.59-2.94-3.906-3.3-6.95zM196.83 73V55.104h3.614v7.044h7.08v-7.044h3.614V73h-3.614v-7.825h-7.08V73h-3.613zm21.805 0V58.132h-5.31v-3.028h14.222v3.028h-5.298V73h-3.62zm10.928 0V55.104h5.408l3.25 12.208 3.21-12.208h5.42V73h-3.35V58.913L239.94 73h-3.48l-3.54-14.087V73h-3.357zm20.706 0V55.25h3.61v14.735h8.98V73h-12.59zm14.19-4.602l3.42-.354c.1.773.38 1.385.86 1.837.48.46 1.03.68 1.66.68.71 0 1.32-.29 1.82-.87.49-.58.74-1.46.74-2.63 0-1.1-.25-1.92-.74-2.47-.49-.55-1.13-.82-1.92-.82-.99 0-1.87.44-2.65 1.31l-2.79-.4 1.76-9.31h9.07v3.21h-6.47l-.54 3.04c.76-.38 1.55-.57 2.34-.57 1.52 0 2.81.56 3.87 1.66 1.06 1.11 1.59 2.55 1.59 4.31 0 1.48-.43 2.79-1.28 3.95-1.16 1.58-2.78 2.37-4.85 2.37-1.65 0-3-.44-4.04-1.33-1.05-.89-1.67-2.08-1.87-3.58zm271.57 217.365l.71 7.313c-2.46.44-4.26 1.333-5.41 2.678-1.15 1.346-1.73 3.16-1.73 5.447 0 2.42.51 4.25 1.53 5.48 1.02 1.23 2.22 1.84 3.59 1.84.88 0 1.63-.25 2.24-.77.62-.51 1.15-1.42 1.61-2.7.3-.88.84-2.88 1.62-6.02.99-4.03 2.22-6.85 3.68-8.48 2.05-2.28 4.54-3.42 7.49-3.42 1.89 0 3.67.54 5.32 1.61 1.65 1.08 2.9 2.63 3.77 4.65.86 2.02 1.29 4.47 1.29 7.33 0 4.67-1.03 8.19-3.07 10.55-2.05 2.36-4.78 3.6-8.2 3.72l-.33-7.51c1.91-.32 3.29-1.01 4.12-2.07.84-1.06 1.26-2.64 1.26-4.76 0-2.18-.45-3.89-1.35-5.13-.58-.8-1.35-1.19-2.31-1.19-.88 0-1.64.37-2.26 1.12-.8.95-1.63 3.25-2.49 6.91-.86 3.66-1.76 6.36-2.68 8.12-.92 1.75-2.18 3.12-3.78 4.11-1.6.99-3.58 1.49-5.93 1.49-2.13 0-4.13-.6-5.99-1.78-1.86-1.19-3.25-2.86-4.15-5.03-.91-2.16-1.36-4.86-1.36-8.1 0-4.7 1.09-8.32 3.26-10.84 2.17-2.52 5.34-4.03 9.51-4.52zM523.92 321.9h37.22v7.515h-16.528l16.53 15.184v10.1l-14.5-14.02-22.723 14.78v-9.73l17.46-10.23-6.22-6.1h-11.24v-7.51zm0 36.897h37.22v27.6h-6.296v-20.084h-8.252V385h-6.27v-18.687H530.19v20.795h-6.27v-28.31zm0 42.51h30.924v-11.045h6.297v29.58h-6.29v-11.02h-30.93v-7.515zm13.684 46.648l-2.31 7.287c-4.063-1.117-7.08-2.975-9.052-5.574-1.972-2.598-2.958-5.894-2.958-9.89 0-4.942 1.688-9.004 5.065-12.187 3.37-3.18 7.99-4.77 13.85-4.77 6.19 0 11 1.6 14.43 4.8 3.43 3.2 5.14 7.41 5.14 12.62 0 4.56-1.35 8.25-4.04 11.1-1.59 1.69-3.88 2.96-6.86 3.81l-1.78-7.44c1.93-.44 3.45-1.35 4.57-2.75 1.12-1.39 1.67-3.09 1.67-5.09 0-2.76-.99-5-2.97-6.71-1.98-1.72-5.19-2.58-9.63-2.58-4.71 0-8.06.85-10.06 2.54s-3 3.89-3 6.6c0 2 .63 3.72 1.9 5.16s3.26 2.47 5.99 3.1zm-13.685 13.208h37.22v7.516h-14.65v14.72h14.65v7.51h-37.22v-7.51h16.27v-14.72h-16.27v-7.52zm9.87 35.146l.83 6.9c-1.76.22-3.11.81-4.04 1.78-.93.96-1.4 2.13-1.4 3.5 0 1.47.55 2.71 1.67 3.72 1.11 1 2.62 1.51 4.52 1.51 1.79 0 3.21-.48 4.26-1.45 1.05-.97 1.57-2.14 1.57-3.53 0-.92-.18-2.01-.54-3.28l5.81.78c-.05 1.93.37 3.4 1.26 4.42.89 1.01 2.07 1.52 3.55 1.52 1.25 0 2.25-.37 3-1.12.74-.75 1.12-1.74 1.12-2.97 0-1.22-.43-2.26-1.27-3.13-.85-.86-2.08-1.39-3.71-1.57l1.11-6.58c2.25.45 4.05 1.14 5.39 2.07 1.35.92 2.4 2.21 3.17 3.86s1.16 3.5 1.16 5.54c0 3.5-1.12 6.31-3.35 8.43-1.83 1.74-3.9 2.61-6.2 2.61-3.27 0-5.88-1.79-7.82-5.36-.46 2.13-1.49 3.84-3.08 5.12-1.59 1.27-3.52 1.91-5.77 1.91-3.27 0-6.05-1.19-8.36-3.58-2.3-2.39-3.45-5.36-3.45-8.91 0-3.37.97-6.16 2.91-8.38 1.94-2.22 4.47-3.5 7.6-3.86zM238.13 50l-6.142-17.18h3.762l4.348 12.715 4.207-12.715h3.68L241.83 50h-3.703zm22.36-6.316l3.364 1.066c-.516 1.875-1.373 3.268-2.572 4.178-1.2.91-2.72 1.365-4.565 1.365-2.28 0-4.156-.78-5.625-2.338-1.468-1.56-2.203-3.69-2.203-6.392 0-2.86.73-5.08 2.21-6.663 1.47-1.582 3.42-2.373 5.82-2.373 2.1 0 3.81.62 5.12 1.864.78.74 1.37 1.79 1.76 3.17l-3.44.82c-.21-.89-.63-1.59-1.27-2.11-.65-.51-1.43-.77-2.35-.77-1.28 0-2.31.46-3.1 1.37-.79.92-1.19 2.4-1.19 4.45 0 2.17.39 3.72 1.17 4.64.78.92 1.79 1.39 3.04 1.39.92 0 1.71-.29 2.38-.88.66-.58 1.14-1.5 1.43-2.76zm5.206.726l3.375-.328c.21 1.133.62 1.965 1.24 2.496.62.53 1.46.797 2.52.797 1.12 0 1.96-.236 2.53-.71.57-.472.85-1.024.85-1.657 0-.406-.12-.752-.36-1.037-.24-.28-.65-.53-1.25-.74-.4-.14-1.33-.39-2.77-.75-1.86-.46-3.16-1.03-3.91-1.7-1.05-.94-1.58-2.09-1.58-3.45 0-.87.25-1.69.75-2.45.5-.76 1.21-1.34 2.14-1.74.94-.4 2.06-.6 3.38-.6 2.16 0 3.78.48 4.87 1.42 1.09.95 1.66 2.21 1.72 3.79l-3.47.16c-.15-.88-.47-1.52-.95-1.9-.49-.39-1.22-.58-2.19-.58-1.01 0-1.8.21-2.37.63-.37.26-.55.62-.55 1.06 0 .41.17.76.52 1.05.44.36 1.5.75 3.19 1.15 1.69.4 2.94.81 3.75 1.24.81.43 1.45 1.01 1.9 1.75.46.74.69 1.65.69 2.74 0 .99-.27 1.91-.82 2.77-.54.86-1.32 1.5-2.32 1.92-1 .42-2.24.63-3.74.63-2.17 0-3.84-.5-5-1.5-1.16-1-1.86-2.47-2.08-4.39zm-112.852 75.833h-2.894v-7.477h6.844c.703.727 1.322 1.78 1.857 3.158.54 1.38.81 2.776.81 4.19 0 1.797-.37 3.363-1.13 4.7-.75 1.335-1.83 2.34-3.23 3.01-1.4.673-2.92 1.01-4.57 1.01-1.79 0-3.38-.376-4.77-1.126-1.39-.75-2.45-1.848-3.2-3.293-.57-1.102-.85-2.473-.85-4.114 0-2.13.45-3.79 1.34-4.99.9-1.2 2.13-1.97 3.71-2.31l.65 3.45c-.84.24-1.51.7-1.99 1.37-.49.67-.73 1.5-.73 2.5 0 1.52.48 2.72 1.44 3.62.96.9 2.39 1.34 4.28 1.34 2.04 0 3.57-.45 4.59-1.36 1.02-.9 1.53-2.09 1.53-3.56 0-.72-.14-1.45-.43-2.18-.28-.73-.63-1.36-1.03-1.88h-2.18v3.97zm6.317-10.315h-17.18v-3.47h17.18v3.47zm0-10.386h-14.27v5.098h-2.9V90.988h2.91v5.086h14.28v3.468z" fill="#333"/>
    <path d="M392.387 149l-18.422-51.54h11.285l13.043 38.145 12.62-38.144h11.04L403.496 149h-11.11zm33.792 0V97.46h10.4V149h-10.4zm16.91-16.77l10.12-.984c.61 3.4 1.84 5.895 3.71 7.488 1.86 1.594 4.37 2.39 7.54 2.39 3.35 0 5.87-.708 7.57-2.126 1.7-1.418 2.55-3.076 2.55-4.975 0-1.218-.36-2.255-1.08-3.11-.72-.856-1.97-1.6-3.75-2.233-1.22-.422-4-1.172-8.33-2.25-5.58-1.383-9.5-3.082-11.75-5.098-3.17-2.836-4.75-6.293-4.75-10.37 0-2.626.74-5.08 2.23-7.366 1.49-2.285 3.63-4.026 6.43-5.22 2.8-1.196 6.18-1.794 10.14-1.794 6.46 0 11.33 1.418 14.6 4.254 3.27 2.836 4.98 6.62 5.15 11.355l-10.41.46c-.45-2.65-1.4-4.55-2.87-5.71-1.47-1.16-3.66-1.74-6.59-1.74-3.03 0-5.39.62-7.1 1.87-1.11.8-1.66 1.87-1.66 3.2 0 1.22.52 2.26 1.55 3.13 1.31 1.1 4.5 2.25 9.56 3.45 5.06 1.2 8.8 2.43 11.23 3.71 2.42 1.28 4.32 3.02 5.69 5.24s2.06 4.95 2.06 8.21c0 2.96-.82 5.72-2.46 8.3-1.64 2.58-3.96 4.5-6.96 5.75-3 1.26-6.74 1.88-11.21 1.88-6.52 0-11.52-1.5-15.01-4.51s-5.58-7.4-6.26-13.16zm49.82-34.77h10.4v27.915c0 4.43.13 7.3.38 8.613.44 2.11 1.5 3.803 3.18 5.08 1.67 1.278 3.97 1.916 6.87 1.916 2.95 0 5.17-.603 6.67-1.81s2.4-2.69 2.7-4.447c.3-1.758.45-4.676.45-8.754V97.46H534v27.07c0 6.19-.283 10.56-.845 13.115-.565 2.554-1.6 4.71-3.114 6.468-1.51 1.758-3.53 3.158-6.06 4.2-2.53 1.044-5.83 1.566-9.91 1.566-4.92 0-8.65-.57-11.2-1.71-2.54-1.14-4.55-2.62-6.03-4.43-1.47-1.82-2.45-3.72-2.92-5.72-.68-2.96-1.02-7.31-1.02-13.08V97.46zM590.7 149h-11.32l-4.5-11.707h-20.602L550.022 149h-11.04l20.075-51.54h11.004L590.7 149zm-19.16-20.39l-7.102-19.126-6.96 19.125h14.062zM595.733 149V97.883h10.406v42.433h25.87V149h-36.28zM371.035 730.936h11.095c2.502 0 4.41.19 5.722.574 1.763.52 3.274 1.442 4.532 2.768 1.258 1.326 2.215 2.95 2.87 4.87.657 1.922.985 4.29.985 7.107 0 2.475-.31 4.607-.93 6.398-.75 2.188-1.83 3.958-3.22 5.312-1.05 1.025-2.48 1.825-4.27 2.4-1.34.423-3.13.635-5.38.635h-11.42v-30.064zm6.07 5.085v19.92h4.533c1.695 0 2.92-.09 3.67-.29.985-.24 1.802-.66 2.45-1.25.65-.59 1.18-1.55 1.59-2.9.41-1.34.616-3.18.616-5.5s-.205-4.11-.615-5.35c-.42-1.24-.99-2.21-1.73-2.91-.74-.7-1.68-1.17-2.81-1.41-.85-.19-2.51-.29-4.99-.29h-2.72zM400.94 761v-30.064h22.292v5.085H407.01v6.67h15.094v5.07H407.01v8.19h16.796V761H400.94zm26.03-9.782l5.905-.574c.355 1.982 1.077 3.438 2.164 4.368 1.08.93 2.55 1.394 4.39 1.394 1.95 0 3.43-.413 4.42-1.24.99-.828 1.48-1.795 1.48-2.902 0-.71-.21-1.316-.63-1.815-.42-.5-1.15-.94-2.19-1.31-.71-.25-2.33-.69-4.86-1.31-3.25-.81-5.54-1.8-6.85-2.98-1.85-1.66-2.77-3.67-2.77-6.05 0-1.53.43-2.97 1.3-4.3.87-1.34 2.12-2.35 3.75-3.05 1.63-.7 3.6-1.05 5.91-1.05 3.78 0 6.62.82 8.52 2.48 1.91 1.65 2.91 3.86 3.01 6.62l-6.07.26c-.26-1.54-.82-2.66-1.67-3.33-.86-.68-2.14-1.02-3.85-1.02-1.77 0-3.15.36-4.15 1.08-.64.46-.96 1.09-.96 1.87 0 .71.3 1.32.9 1.82.76.64 2.62 1.31 5.58 2.01 2.95.7 5.13 1.42 6.55 2.16 1.41.74 2.52 1.76 3.32 3.05.8 1.29 1.2 2.89 1.2 4.79 0 1.72-.48 3.33-1.44 4.84-.96 1.5-2.31 2.62-4.06 3.35-1.75.73-3.93 1.1-6.54 1.1-3.8 0-6.72-.88-8.76-2.64-2.04-1.76-3.26-4.32-3.65-7.68zM455.89 761v-30.064h6.07V761h-6.07zm25.392-11.054v-5.065h13.084v11.98c-1.27 1.23-3.114 2.32-5.527 3.25-2.42.94-4.86 1.41-7.34 1.41-3.15 0-5.89-.66-8.23-1.98-2.34-1.32-4.1-3.2-5.27-5.66-1.18-2.45-1.77-5.12-1.77-8.01 0-3.13.65-5.91 1.97-8.34 1.31-2.43 3.23-4.3 5.76-5.6 1.93-.99 4.32-1.49 7.2-1.49 3.73 0 6.64.79 8.74 2.35 2.1 1.57 3.45 3.73 4.05 6.5l-6.03 1.13c-.43-1.47-1.22-2.64-2.39-3.49-1.17-.85-2.63-1.28-4.38-1.28-2.66 0-4.77.84-6.33 2.53-1.57 1.68-2.35 4.18-2.35 7.49 0 3.57.79 6.25 2.38 8.03 1.58 1.78 3.66 2.68 6.23 2.68 1.27 0 2.54-.25 3.82-.75s2.37-1.1 3.29-1.81V750h-6.95zM499.58 761v-30.064h5.906l12.304 20.077v-20.077h5.64V761h-6.09l-12.12-19.605V761h-5.64zm29.822 0v-30.064h22.292v5.085h-16.222v6.67h15.094v5.07h-15.094v8.19h16.796V761h-22.866zm27.588 0v-30.064h12.776c3.213 0 5.547.27 7.003.81 1.45.54 2.62 1.5 3.49 2.88.87 1.382 1.31 2.96 1.31 4.738 0 2.256-.67 4.12-1.99 5.59-1.33 1.468-3.31 2.395-5.95 2.777 1.31.77 2.39 1.61 3.25 2.53.85.92 2 2.55 3.45 4.88l3.67 5.87h-7.26l-4.39-6.54c-1.56-2.34-2.63-3.81-3.2-4.42-.58-.61-1.18-1.02-1.83-1.25-.65-.22-1.66-.34-3.06-.34h-1.23V761h-6.07zm6.07-17.35h4.49c2.913 0 4.732-.123 5.456-.37.725-.245 1.292-.67 1.702-1.27.41-.602.616-1.354.616-2.256 0-1.012-.27-1.83-.81-2.45-.54-.623-1.303-1.016-2.287-1.18-.492-.068-1.97-.103-4.43-.103h-4.737v7.63z" fill="#27AE60"/>
    <path d="M372.602 65.23h9.51c2.144 0 3.78.165 4.904.493 1.51.445 2.806 1.236 3.884 2.373 1.08 1.136 1.9 2.528 2.46 4.175.564 1.65.845 3.68.845 6.09 0 2.13-.264 3.95-.79 5.49-.645 1.88-1.565 3.39-2.76 4.55-.903.88-2.122 1.57-3.657 2.06-1.148.37-2.684.55-4.605.55h-9.79V65.23zm5.203 4.36v17.068h3.884c1.45 0 2.5-.082 3.14-.246.84-.21 1.54-.568 2.1-1.072.55-.504 1.01-1.333 1.36-2.487.35-1.155.52-2.728.52-4.72 0-1.992-.18-3.522-.53-4.588-.36-1.066-.85-1.9-1.48-2.496-.64-.6-1.44-1.01-2.41-1.22-.73-.17-2.15-.25-4.27-.25h-2.34zM398.235 91V65.23h19.107v4.36h-13.905v5.713h12.938v4.342h-12.938v7.013h14.397V91h-19.6zm30.202 0l-9.21-25.77h5.642l6.52 19.073 6.31-19.073h5.52L433.99 91h-5.555zm17.055 0V65.23H464.6v4.36h-13.905v5.713h12.937v4.342h-12.937v7.013h14.396V91H445.5zm23.77 0V65.44h5.202v21.22h12.938V91h-18.14zm20.41-12.727c0-2.625.394-4.828 1.18-6.61.585-1.31 1.384-2.49 2.398-3.532 1.014-1.04 2.124-1.81 3.33-2.32 1.607-.68 3.458-1.02 5.556-1.02 3.797 0 6.835 1.18 9.114 3.54 2.28 2.36 3.42 5.63 3.42 9.83 0 4.16-1.132 7.42-3.393 9.77-2.262 2.35-5.286 3.53-9.07 3.53-3.833 0-6.88-1.17-9.14-3.5-2.263-2.34-3.394-5.56-3.394-9.66zm5.362-.175c0 2.918.674 5.13 2.022 6.635 1.347 1.506 3.058 2.26 5.133 2.26 2.07 0 3.77-.748 5.1-2.242 1.33-1.49 1.99-3.73 1.99-6.72 0-2.95-.65-5.15-1.95-6.61-1.3-1.45-3.02-2.18-5.16-2.18-2.15 0-3.87.74-5.19 2.21-1.32 1.47-1.97 3.69-1.97 6.66zM518.347 91V65.23h8.35c3.163 0 5.226.13 6.187.387 1.476.387 2.713 1.228 3.71 2.523.995 1.295 1.493 2.967 1.493 5.018 0 1.582-.287 2.912-.86 3.99-.576 1.08-1.305 1.925-2.19 2.54-.885.616-1.784 1.023-2.698 1.222-1.25.246-3.05.37-5.4.37h-3.39V91h-5.21zm5.203-21.41v7.312h2.847c2.05 0 3.422-.134 4.114-.404.7-.27 1.24-.69 1.63-1.266.39-.574.59-1.242.59-2.003 0-.94-.27-1.72-.83-2.33-.55-.61-1.25-.99-2.09-1.14-.62-.12-1.87-.18-3.74-.18h-2.51zM541.975 91V65.23h19.108v4.36H547.18v5.713h12.936v4.342H547.18v7.013h14.395V91h-19.6zm23.647 0V65.23h10.95c2.755 0 4.756.232 6.004.695 1.248.463 2.247 1.286 2.997 2.47.75 1.183 1.125 2.537 1.125 4.06 0 1.934-.568 3.53-1.705 4.79-1.137 1.26-2.836 2.054-5.098 2.382 1.125.656 2.054 1.377 2.786 2.162.74.78 1.72 2.18 2.97 4.18l3.14 5.03h-6.22l-3.76-5.61c-1.33-2.01-2.25-3.27-2.74-3.79s-1.01-.88-1.56-1.07c-.55-.2-1.43-.29-2.62-.29h-1.06V91h-5.2zm5.203-14.87h3.85c2.496 0 4.054-.107 4.675-.317.62-.21 1.108-.575 1.46-1.09.35-.516.527-1.16.527-1.934 0-.87-.232-1.57-.695-2.11-.463-.54-1.116-.87-1.96-1.01-.422-.06-1.687-.09-3.797-.09h-4.06v6.54z" fill="#D32F6E"/>
    <path d="M376.628 17V.536h4.976l2.987 11.23 2.96-11.23h4.99V17h-3.09V4.04L386.18 17h-3.2l-3.26-12.96V17h-3.09zm20.575 0V.536h3.325V17h-3.325zm6.29 0l5.627-8.59-5.1-7.874h3.887l3.302 5.29 3.23-5.29h3.85l-5.12 7.996L418.8 17h-4.01l-3.65-5.694L407.48 17h-3.987zm18.385 0V.536h3.325V17h-3.325zm7.997 0V.536h3.235l6.738 10.995V.54h3.088V17H439.6l-6.636-10.736V17h-3.09zm17.206-5.357l3.24-.314c.2 1.08.59 1.88 1.19 2.39.6.51 1.4.76 2.41.76 1.07 0 1.88-.23 2.42-.68.55-.45.82-.98.82-1.59 0-.39-.11-.72-.34-1-.22-.28-.62-.51-1.19-.72-.39-.14-1.27-.38-2.66-.72-1.78-.44-3.03-.99-3.75-1.63-1.01-.91-1.52-2.01-1.52-3.32 0-.84.24-1.63.72-2.36s1.16-1.29 2.06-1.67c.9-.38 1.98-.57 3.24-.57 2.07 0 3.62.45 4.67 1.36 1.05.9 1.6 2.11 1.65 3.63l-3.32.14c-.14-.85-.44-1.46-.91-1.83-.46-.37-1.17-.56-2.1-.56-.96 0-1.72.2-2.27.59-.35.25-.53.59-.53 1.02 0 .39.17.72.5 1 .42.35 1.44.72 3.06 1.1 1.62.38 2.82.78 3.59 1.18.77.41 1.38.96 1.82 1.67.44.7.66 1.58.66 2.62 0 .94-.26 1.82-.79 2.65-.52.82-1.26 1.43-2.22 1.83-.95.4-2.15.6-3.58.6-2.08 0-3.68-.48-4.79-1.45-1.11-.97-1.78-2.37-2-4.21zM62.49 319v-24.338h10.343c2.6 0 4.49.22 5.67.656 1.178.437 2.122 1.215 2.83 2.332.708 1.118 1.063 2.397 1.063 3.835 0 1.827-.537 3.334-1.61 4.524-1.074 1.19-2.68 1.94-4.815 2.25 1.07.62 1.94 1.3 2.64 2.04.69.74 1.63 2.06 2.8 3.95l2.97 4.75H78.5l-3.554-5.3c-1.26-1.89-2.123-3.09-2.587-3.58-.47-.49-.96-.83-1.48-1.01-.52-.19-1.35-.28-2.48-.28h-1V319h-4.92zm4.914-14.045h3.636c2.357 0 3.83-.1 4.416-.3.587-.198 1.046-.54 1.378-1.028.332-.487.498-1.096.498-1.826 0-.81-.22-1.48-.656-1.98-.437-.5-1.054-.82-1.85-.95-.4-.05-1.595-.08-3.587-.08H67.4v6.18zM86.666 319v-24.338h18.046v4.117H91.58v5.39h12.218v4.1H91.58v6.62h13.596v4.1h-18.51zm21.07-7.92l4.782-.464c.288 1.605.87 2.784 1.75 3.536.88.753 2.068 1.13 3.562 1.13 1.583 0 2.776-.336 3.578-1.005.802-.67 1.204-1.453 1.204-2.35 0-.575-.17-1.065-.507-1.47-.337-.402-.927-.754-1.768-1.053-.575-.2-1.887-.553-3.934-1.062-2.635-.653-4.483-1.456-5.545-2.407-1.494-1.34-2.242-2.972-2.242-4.898 0-1.24.352-2.4 1.055-3.478.71-1.08 1.72-1.91 3.04-2.47 1.32-.57 2.92-.85 4.79-.85 3.06 0 5.36.67 6.9 2.01 1.55 1.34 2.36 3.12 2.43 5.36l-4.91.21c-.21-1.25-.66-2.15-1.35-2.7-.69-.55-1.73-.83-3.11-.83-1.42 0-2.54.29-3.35.88-.52.38-.78.88-.78 1.51 0 .58.25 1.07.73 1.48.62.52 2.13 1.06 4.52 1.63 2.39.56 4.16 1.14 5.31 1.75 1.15.6 2.04 1.43 2.69 2.47.65 1.04.97 2.34.97 3.87 0 1.39-.38 2.7-1.16 3.92-.77 1.21-1.87 2.12-3.29 2.71-1.41.59-3.18.89-5.29.89-3.07 0-5.44-.71-7.08-2.13-1.65-1.43-2.63-3.5-2.95-6.22zM131.3 319v-24.338h7.885c2.99 0 4.937.122 5.844.365 1.39.366 2.56 1.16 3.5 2.383s1.41 2.803 1.41 4.74c0 1.494-.27 2.75-.81 3.768-.55 1.018-1.23 1.818-2.07 2.4-.84.58-1.69.965-2.55 1.153-1.18.24-2.88.35-5.1.35h-3.21V319h-4.91zm4.914-20.22v6.906h2.69c1.936 0 3.23-.128 3.884-.382.653-.255 1.165-.653 1.536-1.196.37-.542.556-1.173.556-1.892 0-.886-.26-1.616-.78-2.192-.52-.575-1.18-.935-1.976-1.08-.587-.11-1.765-.165-3.536-.165h-2.374zm16.406 8.2c0-2.48.37-4.56 1.112-6.242.553-1.24 1.31-2.352 2.266-3.337.957-.98 2.006-1.71 3.146-2.19 1.516-.64 3.265-.96 5.246-.96 3.586 0 6.455 1.11 8.608 3.34 2.153 2.23 3.23 5.32 3.23 9.28 0 3.93-1.07 7.01-3.205 9.22-2.135 2.22-4.99 3.33-8.565 3.33-3.62 0-6.497-1.1-8.633-3.31-2.136-2.21-3.204-5.25-3.204-9.12zm5.063-.166c0 2.756.638 4.845 1.91 6.268 1.273 1.422 2.89 2.133 4.848 2.133 1.96 0 3.57-.706 4.83-2.117 1.26-1.41 1.89-3.528 1.89-6.35 0-2.79-.61-4.87-1.83-6.242-1.22-1.373-2.84-2.06-4.87-2.06s-3.65.696-4.89 2.085c-1.24 1.39-1.86 3.49-1.86 6.29zM179.75 319v-24.338h4.78l9.962 16.253v-16.253h4.566V319h-4.93l-9.812-15.87V319h-4.566zm22.897-7.92l4.78-.464c.29 1.605.873 2.784 1.753 3.536.88.753 2.067 1.13 3.56 1.13 1.584 0 2.776-.336 3.58-1.005.8-.67 1.202-1.453 1.202-2.35 0-.575-.17-1.065-.506-1.47-.338-.402-.927-.754-1.768-1.053-.576-.2-1.887-.553-3.935-1.062-2.633-.653-4.48-1.456-5.544-2.407-1.5-1.34-2.24-2.972-2.24-4.898 0-1.24.35-2.4 1.05-3.478.7-1.08 1.71-1.91 3.03-2.47 1.32-.57 2.92-.85 4.79-.85 3.05 0 5.35.67 6.89 2.01 1.54 1.34 2.35 3.12 2.43 5.36l-4.92.21c-.21-1.25-.66-2.15-1.36-2.7s-1.73-.83-3.12-.83c-1.43 0-2.55.29-3.35.88-.52.38-.78.88-.78 1.51 0 .58.24 1.07.73 1.48.62.52 2.12 1.06 4.51 1.63 2.39.56 4.16 1.14 5.3 1.75 1.14.6 2.04 1.43 2.69 2.47.64 1.04.97 2.34.97 3.87 0 1.39-.39 2.7-1.16 3.92-.78 1.21-1.87 2.12-3.29 2.71-1.42.59-3.18.89-5.3.89-3.08 0-5.44-.71-7.09-2.13-1.65-1.43-2.64-3.5-2.96-6.22zM226.06 319v-24.338h4.913V319h-4.913zm15.442 0l-8.7-24.338h5.33l6.16 18.013 5.96-18.013h5.212L246.746 319H241.5zm16.107 0v-24.338h18.04v4.117h-13.13v5.39h12.22v4.1h-12.22v6.62h13.59v4.1H257.6zm164.64-7.485h5.33v16.765c0 2.192-.2 3.88-.58 5.06-.52 1.54-1.46 2.778-2.82 3.712-1.36.933-3.16 1.4-5.39 1.4-2.62 0-4.63-.732-6.04-2.195-1.41-1.464-2.12-3.61-2.13-6.44l5.04-.58c.06 1.518.28 2.59.67 3.217.57.95 1.45 1.427 2.63 1.427 1.19 0 2.03-.34 2.52-1.02.49-.68.74-2.09.74-4.23v-17.11zm12.03 17.867l5.2-.506c.31 1.747.95 3.03 1.9 3.85.95.818 2.25 1.227 3.87 1.227 1.72 0 3.02-.364 3.89-1.093.87-.73 1.31-1.58 1.31-2.556 0-.627-.19-1.16-.55-1.6-.37-.44-1.01-.82-1.93-1.146-.63-.217-2.06-.603-4.28-1.157-2.87-.71-4.88-1.58-6.04-2.61-1.63-1.46-2.44-3.23-2.44-5.33 0-1.35.38-2.61 1.14-3.78.76-1.17 1.87-2.07 3.31-2.68 1.44-.61 3.17-.92 5.21-.92 3.32 0 5.82.73 7.5 2.19 1.68 1.46 2.56 3.41 2.65 5.84l-5.35.24c-.23-1.36-.72-2.34-1.47-2.93-.76-.6-1.89-.89-3.39-.89-1.56 0-2.77.32-3.65.96-.57.41-.85.95-.85 1.64 0 .63.26 1.16.79 1.61.67.56 2.31 1.15 4.91 1.77 2.6.61 4.52 1.25 5.77 1.9 1.25.66 2.22 1.56 2.93 2.69.7 1.14 1.06 2.54 1.06 4.22 0 1.52-.42 2.94-1.27 4.26-.85 1.33-2.04 2.31-3.58 2.95-1.55.65-3.47.97-5.77.97-3.35 0-5.92-.77-7.72-2.32-1.79-1.55-2.86-3.8-3.21-6.76zm27.31-4.462c0-2.698.4-4.962 1.21-6.793.6-1.35 1.42-2.56 2.46-3.63 1.04-1.073 2.18-1.868 3.42-2.386 1.65-.69 3.55-1.04 5.71-1.04 3.9 0 7.02 1.21 9.36 3.63s3.51 5.79 3.51 10.1c0 4.28-1.16 7.62-3.49 10.04-2.33 2.42-5.43 3.63-9.32 3.63-3.94 0-7.07-1.2-9.4-3.6-2.33-2.4-3.49-5.71-3.49-9.92zm5.51-.18c0 2.998.69 5.272 2.07 6.82 1.38 1.547 3.14 2.32 5.27 2.32 2.13 0 3.88-.767 5.25-2.303 1.36-1.535 2.05-3.84 2.05-6.91 0-3.035-.67-5.3-2-6.793-1.33-1.493-3.1-2.24-5.3-2.24-2.21 0-3.98.756-5.33 2.267-1.35 1.52-2.03 3.8-2.03 6.84zM493.88 338v-26.485h5.203l10.84 17.687v-17.687h4.965V338h-5.365l-10.677-17.27V338h-4.97zM392.28 46.84v-6.03h15.577v14.26c-1.513 1.465-3.707 2.755-6.58 3.87-2.87 1.115-5.78 1.672-8.727 1.672-3.743 0-7.006-.785-9.79-2.356-2.783-1.57-4.874-3.816-6.274-6.738-1.4-2.92-2.1-6.1-2.1-9.534 0-3.727.782-7.04 2.344-9.936 1.563-2.897 3.85-5.12 6.86-6.665 2.296-1.187 5.152-1.78 8.57-1.78 4.443 0 7.914.93 10.413 2.794 2.493 1.864 4.1 4.44 4.82 7.727l-7.18 1.344c-.506-1.758-1.454-3.145-2.846-4.163-1.39-1.016-3.13-1.525-5.21-1.525-3.16 0-5.67 1-7.534 3.003-1.862 2.002-2.794 4.973-2.794 8.91 0 4.25.94 7.436 2.83 9.56 1.89 2.124 4.36 3.186 7.42 3.186 1.51 0 3.03-.3 4.55-.9 1.52-.6 2.82-1.32 3.91-2.16v-4.54h-8.28zm25.393-22.63h7.225v19.384c0 3.076.09 5.07.27 5.98.31 1.466 1.044 2.642 2.21 3.53 1.163.886 2.754 1.33 4.772 1.33 2.05 0 3.597-.42 4.64-1.258 1.04-.838 1.667-1.867 1.88-3.088.21-1.22.316-3.247.316-6.08v-19.8h7.225v18.8c0 4.297-.19 7.332-.58 9.106-.39 1.774-1.11 3.272-2.16 4.492-1.05 1.22-2.45 2.194-4.21 2.918-1.76.724-4.05 1.086-6.88 1.086-3.42 0-6.01-.394-7.78-1.184-1.76-.79-3.16-1.815-4.18-3.076-1.02-1.26-1.7-2.584-2.02-3.967-.47-2.05-.71-5.078-.71-9.082V24.21zM457.23 60V24.502h7.227V53.97h17.967V60H457.23zm33.547 0V24.21h11.595c4.395 0 7.26.178 8.594.536 2.05.537 3.767 1.705 5.15 3.504 1.384 1.798 2.076 4.12 2.076 6.97 0 2.197-.4 4.044-1.197 5.542-.798 1.497-1.81 2.673-3.04 3.528-1.23.854-2.478 1.42-3.748 1.696-1.725.342-4.223.513-7.495.513H498V60h-7.226zm7.225-29.736V40.42h3.955c2.85 0 4.757-.187 5.717-.562.96-.374 1.713-.96 2.26-1.757.544-.79.816-1.72.816-2.78 0-1.3-.38-2.37-1.146-3.22-.765-.84-1.733-1.37-2.905-1.58-.87-.16-2.6-.24-5.2-.24H498zM.53 483v-26.485h5.347V483H.53zm12.954 0v-26.27h5.348v21.808H32.13V483H13.483zm24.97 0v-26.27H43.8v21.808h13.3V483H38.453zm24.788-26.485h5.347v14.344c0 2.27.06 3.75.19 4.42.23 1.08.77 1.95 1.63 2.61.86.65 2.04.98 3.53.98 1.51 0 2.66-.31 3.43-.93.77-.62 1.23-1.39 1.39-2.29.15-.91.23-2.41.23-4.5V456.5h5.34v13.91c0 3.18-.15 5.428-.44 6.74-.29 1.313-.82 2.42-1.6 3.325-.78.9-1.82 1.62-3.12 2.157-1.3.536-3 .804-5.1.804-2.53 0-4.45-.29-5.76-.877-1.31-.59-2.34-1.35-3.1-2.28-.76-.94-1.26-1.92-1.5-2.94-.35-1.52-.53-3.76-.53-6.72V456.5zm27.77 17.867l5.202-.506c.313 1.747.95 3.03 1.906 3.85.958.818 2.25 1.227 3.875 1.227 1.723 0 3.02-.364 3.894-1.093.87-.73 1.31-1.58 1.31-2.556 0-.627-.19-1.16-.56-1.6-.37-.44-1.01-.82-1.93-1.146-.63-.217-2.06-.603-4.28-1.157-2.87-.71-4.88-1.58-6.04-2.61-1.63-1.46-2.44-3.23-2.44-5.33 0-1.35.38-2.61 1.15-3.78.76-1.17 1.86-2.07 3.3-2.68 1.44-.61 3.17-.92 5.21-.92 3.32 0 5.82.73 7.5 2.19 1.68 1.46 2.56 3.41 2.64 5.84l-5.35.24c-.23-1.36-.72-2.34-1.48-2.93-.75-.6-1.88-.89-3.39-.89-1.56 0-2.77.32-3.65.96-.57.41-.85.95-.85 1.64 0 .63.26 1.16.79 1.61.67.56 2.31 1.15 4.91 1.77 2.6.61 4.52 1.25 5.77 1.9 1.24.66 2.22 1.56 2.92 2.69.7 1.14 1.05 2.54 1.05 4.22 0 1.52-.42 2.94-1.27 4.26-.84 1.33-2.04 2.31-3.58 2.95-1.54.65-3.47.97-5.77.97-3.35 0-5.92-.77-7.72-2.32-1.8-1.55-2.87-3.8-3.22-6.76zM125.374 483v-22.005h-7.86v-4.48h21.048v4.48h-7.84V483h-5.348zm19.025 0v-26.485h11.25c2.83 0 4.88.238 6.17.713 1.28.476 2.31 1.322 3.08 2.54.77 1.215 1.15 2.606 1.15 4.172 0 1.987-.59 3.628-1.76 4.923s-2.92 2.11-5.24 2.448c1.15.68 2.11 1.42 2.86 2.23s1.77 2.24 3.04 4.3l3.24 5.16h-6.39l-3.87-5.76c-1.38-2.06-2.32-3.36-2.82-3.89-.51-.53-1.04-.9-1.61-1.1-.57-.19-1.47-.29-2.69-.29h-1.09V483h-5.34zm5.34-15.284h3.95c2.56 0 4.16-.11 4.8-.325.63-.21 1.13-.59 1.5-1.12.36-.53.54-1.19.54-1.98 0-.89-.24-1.61-.72-2.16-.48-.54-1.15-.89-2.02-1.04-.44-.06-1.74-.09-3.91-.09h-4.17v6.72zM197.35 483h-5.82l-2.31-6.016h-10.585L176.45 483h-5.672l10.316-26.485h5.655L197.35 483zm-9.844-10.48l-3.65-9.827-3.578 9.828h7.23zM205.773 483v-22.005h-7.86v-4.48h21.05v4.48h-7.842V483h-5.34zm17.255-13.08c0-2.698.4-4.962 1.21-6.793.6-1.35 1.42-2.56 2.46-3.63 1.04-1.073 2.18-1.868 3.42-2.386 1.65-.69 3.553-1.04 5.71-1.04 3.902 0 7.025 1.21 9.367 3.63 2.343 2.42 3.514 5.79 3.514 10.1 0 4.28-1.17 7.62-3.49 10.04s-5.44 3.63-9.33 3.63c-3.94 0-7.07-1.2-9.4-3.6-2.33-2.4-3.49-5.71-3.49-9.92zm5.51-.18c0 2.998.69 5.272 2.07 6.82 1.384 1.547 3.142 2.32 5.274 2.32s3.88-.767 5.25-2.303c1.365-1.535 2.05-3.84 2.05-6.91 0-3.035-.667-5.3-1.997-6.793-1.33-1.493-3.1-2.24-5.303-2.24s-3.98.756-5.33 2.267c-1.346 1.52-2.02 3.8-2.02 6.84zM255.28 483v-26.485h11.254c2.83 0 4.887.238 6.17.713 1.282.476 2.31 1.322 3.08 2.54.77 1.215 1.156 2.606 1.156 4.172 0 1.987-.584 3.628-1.752 4.923-1.168 1.295-2.915 2.11-5.24 2.448 1.157.68 2.11 1.42 2.864 2.23.753.81 1.768 2.24 3.044 4.3l3.234 5.16h-6.395l-3.867-5.76c-1.373-2.06-2.312-3.36-2.818-3.89-.506-.53-1.042-.9-1.608-1.1-.566-.19-1.463-.29-2.692-.29h-1.084V483h-5.347zm5.346-15.284h3.957c2.565 0 4.167-.11 4.805-.325.64-.21 1.14-.59 1.5-1.12.36-.53.542-1.19.542-1.98 0-.89-.238-1.61-.714-2.16-.475-.54-1.147-.89-2.014-1.04-.434-.06-1.734-.09-3.902-.09h-4.174v6.72zM371.11 723v-20.76h6.726c2.55 0 4.21.105 4.984.313 1.19.31 2.186.99 2.988 2.032.803 1.043 1.204 2.39 1.204 4.042 0 1.275-.232 2.346-.694 3.215-.463.868-1.05 1.55-1.763 2.046-.713.496-1.437.824-2.174.984-1 .198-2.44.297-4.34.297h-2.74V723h-4.19zm4.19-17.247v5.89h2.295c1.652 0 2.757-.108 3.314-.325.55-.217.99-.557 1.31-1.02.31-.462.47-1 .47-1.614 0-.755-.22-1.378-.67-1.87-.45-.49-1.01-.797-1.69-.92-.5-.094-1.51-.14-3.02-.14h-2.02zM392.324 723v-20.76h4.19v8.172h8.214v-8.17h4.192L408.916 723h-4.19v-9.077h-8.214V723h-4.19zm21.935-10.252c0-2.115.31-3.89.95-5.324.47-1.057 1.11-2.006 1.93-2.846.81-.84 1.71-1.464 2.68-1.87 1.29-.547 2.78-.82 4.47-.82 3.06 0 5.5.948 7.34 2.845 1.83 1.898 2.75 4.536 2.75 7.916 0 3.35-.91 5.97-2.74 7.86-1.82 1.89-4.26 2.84-7.31 2.84-3.09 0-5.54-.95-7.37-2.83-1.82-1.89-2.74-4.48-2.74-7.78zm4.32-.142c0 2.35.54 4.133 1.62 5.346s2.46 1.82 4.13 1.82 3.04-.602 4.11-1.806c1.07-1.204 1.61-3.01 1.61-5.416 0-2.38-.52-4.154-1.57-5.324s-2.43-1.756-4.16-1.756-3.12.592-4.18 1.777c-1.06 1.185-1.59 2.97-1.59 5.36zM444.19 723v-17.247h-6.16v-3.512h16.497v3.52h-6.146V723h-4.19zm13.524-10.252c0-2.115.317-3.89.95-5.324.47-1.057 1.115-2.006 1.932-2.846.816-.84 1.71-1.464 2.682-1.87 1.294-.547 2.785-.82 4.475-.82 3.06 0 5.506.948 7.342 2.845 1.835 1.898 2.753 4.536 2.753 7.916 0 3.35-.91 5.97-2.733 7.86-1.822 1.89-4.257 2.84-7.306 2.84-3.09 0-5.54-.95-7.37-2.83-1.82-1.89-2.74-4.48-2.74-7.78zm4.32-.142c0 2.35.542 4.133 1.628 5.346 1.085 1.213 2.464 1.82 4.134 1.82 1.67 0 3.042-.602 4.113-1.806 1.07-1.204 1.6-3.01 1.6-5.416 0-2.38-.52-4.154-1.57-5.324s-2.43-1.756-4.16-1.756-3.12.592-4.18 1.777c-1.06 1.185-1.59 2.97-1.59 5.36zm19.88 3.64l4.08-.397c.245 1.36.743 2.37 1.493 3.01.75.64 1.762.96 3.037.96 1.35 0 2.367-.29 3.05-.86.685-.57 1.028-1.24 1.028-2.01 0-.49-.144-.91-.432-1.26-.288-.35-.79-.65-1.508-.9-.49-.17-1.61-.47-3.356-.91-2.248-.56-3.824-1.25-4.73-2.06-1.275-1.14-1.91-2.54-1.91-4.18 0-1.06.297-2.05.897-2.97.6-.92 1.463-1.62 2.59-2.11 1.13-.49 2.49-.73 4.086-.73 2.6 0 4.56.57 5.88 1.71 1.31 1.14 2.01 2.66 2.07 4.57l-4.19.18c-.18-1.07-.57-1.83-1.16-2.3-.59-.47-1.48-.7-2.66-.7-1.22 0-2.17.25-2.86.75-.45.32-.67.75-.67 1.29 0 .49.21.91.62 1.26.53.44 1.81.9 3.85 1.39 2.04.48 3.55.98 4.52 1.49s1.74 1.22 2.29 2.11c.55.89.83 1.99.83 3.31 0 1.19-.33 2.3-.99 3.34-.66 1.04-1.6 1.81-2.8 2.31-1.21.5-2.72.76-4.52.76-2.63 0-4.64-.61-6.05-1.82-1.41-1.22-2.25-2.98-2.52-5.31zm22.28 6.754v-20.76h4.192v8.172h8.212v-8.17h4.192V723h-4.193v-9.077h-8.212V723h-4.192zm21.935-10.252c0-2.115.31-3.89.95-5.324.47-1.057 1.11-2.006 1.93-2.846.81-.84 1.71-1.464 2.68-1.87 1.29-.547 2.78-.82 4.47-.82 3.05 0 5.5.948 7.34 2.845 1.83 1.898 2.75 4.536 2.75 7.916 0 3.35-.91 5.97-2.74 7.86-1.82 1.89-4.26 2.84-7.31 2.84-3.09 0-5.54-.95-7.36-2.83-1.82-1.89-2.73-4.48-2.73-7.78zm4.32-.142c0 2.35.54 4.133 1.62 5.346s2.46 1.82 4.13 1.82 3.04-.602 4.11-1.806c1.07-1.204 1.6-3.01 1.6-5.416 0-2.38-.52-4.154-1.57-5.324s-2.43-1.756-4.16-1.756-3.12.592-4.18 1.777-1.59 2.97-1.59 5.36zM551.39 723v-20.76h6.727c2.55 0 4.21.105 4.984.313 1.19.31 2.19.99 2.99 2.032.81 1.043 1.21 2.39 1.21 4.042 0 1.275-.23 2.346-.69 3.215-.46.868-1.05 1.55-1.76 2.046-.71.496-1.43.824-2.17.984-1 .198-2.45.297-4.34.297h-2.74V723h-4.19zm4.192-17.247v5.89h2.294c1.652 0 2.757-.108 3.314-.325.557-.217.993-.557 1.31-1.02.316-.462.474-1 .474-1.614 0-.755-.222-1.378-.666-1.87-.443-.49-1.005-.797-1.685-.92-.5-.094-1.505-.14-3.016-.14h-2.025zM412.02 521v-10.02h3.246c1.23 0 2.032.05 2.406.15.574.15 1.055.476 1.442.98.388.503.58 1.154.58 1.952 0 .615-.11 1.132-.334 1.55-.223.42-.507.75-.85.99-.345.238-.695.397-1.05.474-.483.096-1.183.144-2.1.144h-1.318V521h-2.023zm2.022-8.326v2.844h1.107c.79 0 1.33-.053 1.6-.158.26-.104.48-.27.63-.492.15-.223.23-.483.23-.78 0-.364-.11-.664-.32-.9-.22-.238-.49-.387-.82-.446-.24-.045-.73-.068-1.46-.068h-.98zm8.21 8.326v-10.02h7.43v1.694h-5.406v2.222h5.03v1.688h-5.03v2.728h5.6V521h-7.624zm10.24 0v-10.02h4.26c1.07 0 1.85.09 2.334.27.486.18.874.5 1.166.96.292.46.437.986.437 1.578 0 .752-.23 1.373-.67 1.863-.44.49-1.1.8-1.98.93.43.26.8.54 1.08.84.28.31.67.85 1.15 1.63l1.23 1.95h-2.42l-1.47-2.18c-.52-.78-.88-1.27-1.07-1.47-.19-.2-.4-.34-.61-.41-.22-.07-.55-.11-1.02-.11h-.41V521h-2.03zm2.025-5.783h1.497c.97 0 1.577-.04 1.818-.123.242-.082.43-.224.567-.424.13-.2.2-.45.2-.752 0-.337-.09-.61-.27-.817-.18-.2-.44-.33-.76-.39-.17-.02-.66-.03-1.48-.03h-1.58v2.55zm8.99 5.783v-10.02h6.87v1.694h-4.847v2.372h4.183v1.695h-4.183V521h-2.024zm9.023-4.95c0-1.02.153-1.877.458-2.57.228-.51.54-.968.933-1.374.4-.405.83-.706 1.3-.902.63-.264 1.35-.396 2.16-.396 1.48 0 2.66.458 3.55 1.374.89.916 1.33 2.19 1.33 3.82 0 1.62-.44 2.885-1.32 3.798-.88.914-2.05 1.37-3.53 1.37-1.49 0-2.67-.454-3.55-1.363-.88-.91-1.32-2.16-1.32-3.756zm2.085-.068c0 1.135.262 1.995.786 2.58.53.587 1.19.88 2 .88s1.47-.29 1.99-.872c.52-.58.78-1.453.78-2.615 0-1.148-.25-2.005-.75-2.57s-1.17-.848-2-.848c-.83 0-1.5.286-2.01.858-.51.572-.76 1.434-.76 2.587zM464.733 521v-10.02h4.26c1.07 0 1.848.09 2.333.27.486.18.874.5 1.166.96.29.46.437.986.437 1.578 0 .752-.23 1.373-.67 1.863-.44.49-1.11.8-1.98.93.43.26.8.54 1.08.84.28.31.67.85 1.15 1.63l1.22 1.95h-2.42l-1.47-2.18c-.52-.78-.88-1.27-1.07-1.47-.19-.2-.39-.34-.61-.41-.22-.07-.56-.11-1.02-.11h-.41V521h-2.03zm2.023-5.783h1.497c.97 0 1.577-.04 1.82-.123.24-.082.43-.224.566-.424.13-.2.2-.45.2-.752 0-.337-.09-.61-.27-.817-.18-.2-.44-.33-.76-.39-.17-.02-.66-.03-1.48-.03h-1.58v2.55zm8.95 5.783v-10.02h3.027l1.82 6.834 1.797-6.835h3.035V521h-1.88v-7.89l-1.99 7.89h-1.948l-1.982-7.89V521h-1.88zm21.622 0h-2.202l-.875-2.276h-4l-.83 2.276h-2.14l3.91-10.02h2.14l4.01 10.02zm-3.726-3.965l-1.38-3.72-1.354 3.72h2.734zm5.715 3.965v-10.02h1.97l4.1 6.69v-6.69h1.88V521h-2.03l-4.04-6.535V521h-1.88zm13.242 0v-8.326h-2.98v-1.695h7.96v1.69h-2.97V521h-2.03zM371.1 674.97l12.094-1.176c.73 4.06 2.206 7.04 4.43 8.944 2.227 1.904 5.23 2.856 9.01 2.856 4.002 0 7.02-.847 9.05-2.54 2.03-1.694 3.042-3.675 3.042-5.943 0-1.45-.427-2.69-1.28-3.71-.855-1.02-2.346-1.91-4.474-2.66-1.457-.5-4.775-1.4-9.954-2.69-6.662-1.65-11.338-3.68-14.025-6.08-3.78-3.38-5.67-7.51-5.67-12.39 0-3.13.89-6.06 2.67-8.79 1.776-2.73 4.34-4.8 7.683-6.23 3.346-1.42 7.385-2.14 12.116-2.14 7.723 0 13.54 1.7 17.445 5.08 3.906 3.39 5.956 7.91 6.15 13.57l-12.427.55c-.533-3.16-1.674-5.43-3.424-6.82-1.75-1.39-4.375-2.08-7.874-2.08-3.61 0-6.44.74-8.482 2.22-1.315.96-1.973 2.23-1.973 3.83 0 1.46.617 2.7 1.848 3.74 1.566 1.32 5.373 2.69 11.42 4.12s10.52 2.91 13.417 4.43c2.9 1.53 5.166 3.61 6.804 6.26 1.637 2.65 2.456 5.92 2.456 9.81 0 3.53-.98 6.83-2.94 9.91s-4.73 5.37-8.313 6.87c-3.59 1.5-8.05 2.25-13.4 2.25-7.79 0-13.76-1.8-17.93-5.4-4.17-3.6-6.67-8.84-7.48-15.72zM452.82 695l-22.004-61.56h13.48L459.88 679l15.075-45.56h13.186L466.1 695h-13.27zm75.8-22.634v-10.372h26.79v24.524c-2.603 2.52-6.376 4.738-11.317 6.655-4.94 1.918-9.946 2.877-15.013 2.877-6.44 0-12.052-1.35-16.84-4.052-4.786-2.702-8.383-6.565-10.79-11.59-2.408-5.025-3.612-10.49-3.612-16.398 0-6.41 1.345-12.108 4.03-17.09 2.69-4.984 6.623-8.805 11.8-11.465 3.95-2.044 8.86-3.065 14.74-3.065 7.644 0 13.614 1.602 17.91 4.808 4.298 3.205 7.063 7.635 8.294 13.29l-12.347 2.31c-.868-3.024-2.5-5.41-4.89-7.16-2.395-1.75-5.38-2.624-8.967-2.624-5.43 0-9.75 1.72-12.953 5.165-3.206 3.44-4.808 8.55-4.808 15.32 0 7.3 1.62 12.78 4.87 16.44 3.245 3.65 7.5 5.48 12.763 5.48 2.602 0 5.212-.51 7.83-1.54 2.617-1.02 4.864-2.26 6.74-3.72v-7.81h-14.23zM52.502 448H46.06l-2.564-6.667h-11.73L29.34 448h-6.286l11.43-29.35h6.268L52.504 448zm-10.91-11.61l-4.042-10.892-3.963 10.89h8.007zM59.23 448v-29.35h5.767l12.012 19.6v-19.6h5.5V448h-5.94l-11.83-19.14V448h-5.51zm32.89 0v-29.35h5.926V448H92.12zm15.01 0v-29.35H116l5.325 20.02 5.268-20.02h8.89V448h-5.506v-23.103L124.144 448h-5.705l-5.81-23.103V448h-5.51zm64.22 0h-6.45l-2.562-6.667h-11.73L148.184 448H141.9l11.43-29.35h6.266l11.75 29.35zm-10.91-11.61l-4.044-10.892-3.963 10.89h8.007zM181.58 448v-24.384h-8.71v-4.965h23.323v4.97h-8.69V448h-5.925zm21.777 0v-29.35h5.927V448h-5.925zm13.89-14.494c0-2.99.45-5.5 1.34-7.527.67-1.5 1.58-2.84 2.736-4.03 1.154-1.19 2.42-2.07 3.793-2.65 1.828-.78 3.937-1.16 6.326-1.16 4.323 0 7.783 1.34 10.38 4.02 2.595 2.68 3.893 6.41 3.893 11.19 0 4.74-1.29 8.44-3.865 11.12-2.576 2.67-6.02 4.01-10.33 4.01-4.365 0-7.835-1.33-10.41-4-2.576-2.66-3.864-6.33-3.864-11zm6.108-.2c0 3.323.768 5.842 2.303 7.557 1.534 1.715 3.482 2.573 5.845 2.573 2.363 0 4.3-.85 5.816-2.553 1.51-1.702 2.27-4.254 2.27-7.657 0-3.364-.74-5.873-2.22-7.528-1.47-1.655-3.43-2.482-5.88-2.482s-4.41.837-5.91 2.512-2.24 4.2-2.24 7.578zM253.915 448v-29.35h5.766l12.01 19.6v-19.6h5.51V448h-5.94l-11.83-19.14V448h-5.5zm176.043 45.262l5.185 1.644c-.794 2.89-2.116 5.038-3.965 6.44-1.85 1.404-4.195 2.106-7.037 2.106-3.51 0-6.4-1.202-8.67-3.605-2.26-2.402-3.39-5.687-3.39-9.855 0-4.408 1.14-7.832 3.42-10.27 2.28-2.44 5.27-3.66 8.98-3.66 3.24 0 5.87.958 7.9 2.874 1.21 1.132 2.11 2.758 2.71 4.877l-5.29 1.265c-.31-1.373-.96-2.457-1.96-3.252-.99-.795-2.2-1.192-3.62-1.192-1.96 0-3.55.704-4.78 2.114-1.22 1.41-1.83 3.69-1.83 6.847 0 3.348.61 5.733 1.81 7.154 1.2 1.42 2.77 2.13 4.7 2.13 1.42 0 2.65-.45 3.67-1.36 1.03-.91 1.76-2.33 2.21-4.27zm11.596 1.12l5.203-.506c.313 1.747.95 3.03 1.906 3.85.958.818 2.25 1.227 3.875 1.227 1.723 0 3.02-.364 3.894-1.093.878-.73 1.31-1.58 1.31-2.556 0-.627-.18-1.16-.55-1.6-.364-.44-1.01-.82-1.92-1.146-.627-.217-2.054-.603-4.28-1.157-2.87-.71-4.88-1.58-6.037-2.61-1.626-1.46-2.44-3.23-2.44-5.33 0-1.35.384-2.61 1.15-3.78.763-1.17 1.865-2.07 3.305-2.68 1.44-.61 3.176-.92 5.212-.92 3.323 0 5.825.73 7.506 2.19 1.68 1.46 2.562 3.41 2.646 5.84l-5.35.24c-.23-1.36-.72-2.34-1.472-2.93-.754-.6-1.883-.89-3.388-.89-1.554 0-2.77.32-3.65.96-.566.41-.85.95-.85 1.64 0 .63.266 1.16.796 1.61.675.56 2.313 1.15 4.914 1.77 2.602.61 4.526 1.25 5.772 1.9 1.247.66 2.223 1.56 2.927 2.69.706 1.14 1.058 2.54 1.058 4.22 0 1.52-.42 2.94-1.26 4.26-.84 1.33-2.03 2.31-3.57 2.95-1.54.65-3.46.97-5.76.97-3.34 0-5.92-.77-7.71-2.32-1.79-1.55-2.86-3.8-3.21-6.76zm27.855 0l5.2-.506c.32 1.747.95 3.03 1.91 3.85.96.818 2.25 1.227 3.87 1.227 1.72 0 3.02-.364 3.89-1.093.87-.73 1.31-1.58 1.31-2.556 0-.627-.19-1.16-.55-1.6-.37-.44-1.01-.82-1.93-1.146-.63-.217-2.06-.603-4.28-1.157-2.87-.71-4.88-1.58-6.04-2.61-1.63-1.46-2.44-3.23-2.44-5.33 0-1.35.38-2.61 1.14-3.78s1.86-2.07 3.3-2.68c1.44-.61 3.17-.92 5.21-.92 3.32 0 5.83.73 7.51 2.19 1.68 1.46 2.56 3.41 2.64 5.84l-5.35.24c-.23-1.36-.72-2.34-1.47-2.93-.76-.6-1.89-.89-3.39-.89-1.56 0-2.77.32-3.65.96-.57.41-.85.95-.85 1.64 0 .63.26 1.16.79 1.61.67.56 2.31 1.15 4.91 1.77 2.6.61 4.52 1.25 5.77 1.9 1.24.66 2.22 1.56 2.92 2.69.7 1.14 1.05 2.54 1.05 4.22 0 1.52-.42 2.94-1.27 4.26-.85 1.33-2.04 2.31-3.58 2.95-1.54.65-3.46.97-5.76.97-3.35 0-5.92-.77-7.72-2.32s-2.87-3.8-3.22-6.76zm27.91 1.59l4.91-.596c.15 1.253.58 2.21 1.26 2.873.68.66 1.52.99 2.49.99 1.04 0 1.93-.4 2.64-1.19.71-.8 1.07-1.87 1.07-3.22 0-1.28-.34-2.29-1.03-3.04-.68-.75-1.52-1.12-2.51-1.12-.65 0-1.43.12-2.33.38l.56-4.14c1.37.03 2.42-.26 3.14-.9.72-.64 1.08-1.48 1.08-2.52 0-.89-.27-1.61-.8-2.13-.53-.53-1.24-.8-2.12-.8-.87 0-1.61.3-2.22.9-.62.6-.99 1.48-1.12 2.63l-4.68-.8c.32-1.6.81-2.88 1.47-3.84.66-.96 1.57-1.71 2.75-2.26 1.17-.55 2.49-.83 3.94-.83 2.49 0 4.49.79 6 2.38 1.24 1.3 1.86 2.77 1.86 4.41 0 2.32-1.27 4.18-3.82 5.56 1.52.33 2.73 1.05 3.64 2.19.91 1.13 1.36 2.5 1.36 4.1 0 2.32-.85 4.3-2.54 5.94s-3.81 2.46-6.34 2.46c-2.4 0-4.39-.69-5.97-2.07s-2.49-3.18-2.75-5.41zM103.88 664.104v-5.91h15.265v13.973c-1.483 1.436-3.633 2.7-6.448 3.792-2.82 1.09-5.67 1.63-8.56 1.63-3.67 0-6.866-.77-9.594-2.31-2.727-1.54-4.777-3.74-6.15-6.6-1.37-2.87-2.056-5.98-2.056-9.35 0-3.66.766-6.9 2.298-9.74 1.53-2.84 3.772-5.02 6.723-6.54 2.25-1.16 5.05-1.75 8.4-1.75 4.355 0 7.757.91 10.205 2.74 2.448 1.82 4.024 4.35 4.725 7.57l-7.034 1.31c-.494-1.72-1.423-3.08-2.787-4.08-1.364-1-3.067-1.5-5.108-1.5-3.1 0-5.56.98-7.38 2.94-1.83 1.96-2.74 4.87-2.74 8.73 0 4.16.92 7.28 2.77 9.36 1.85 2.08 4.27 3.12 7.27 3.12 1.48 0 2.97-.29 4.46-.88 1.49-.58 2.77-1.28 3.84-2.11v-4.45h-8.11zm25.956-22.18h7.082v18.998c0 3.015.087 4.968.263 5.862.31 1.435 1.03 2.588 2.17 3.457 1.14.87 2.7 1.31 4.68 1.31 2.01 0 3.53-.41 4.55-1.23 1.02-.82 1.64-1.83 1.85-3.02.21-1.19.31-3.18.31-5.95v-19.41h7.09v18.43c0 4.21-.19 7.19-.57 8.93-.38 1.74-1.09 3.21-2.11 4.41-1.03 1.19-2.4 2.15-4.12 2.86-1.72.71-3.97 1.06-6.74 1.06-3.35 0-5.89-.39-7.62-1.16-1.73-.77-3.09-1.78-4.1-3.01-1-1.24-1.66-2.53-1.98-3.89-.46-2.01-.69-4.98-.69-8.9v-18.71zM169.67 677v-34.788h7.082v28.878h17.61V677H169.67zm33.947 0v-35.075h11.364c4.31 0 7.12.175 8.43.526 2.01.53 3.7 1.68 5.05 3.44 1.36 1.76 2.03 4.04 2.03 6.83 0 2.16-.39 3.97-1.17 5.43-.78 1.47-1.77 2.62-2.98 3.46-1.2.84-2.42 1.39-3.67 1.66-1.69.34-4.14.5-7.34.5h-4.62V677h-7.08zm7.082-29.142v9.954h3.87c2.79 0 4.65-.184 5.6-.55.94-.368 1.68-.942 2.21-1.723.53-.79.8-1.7.8-2.73 0-1.28-.38-2.33-1.13-3.16-.75-.83-1.7-1.35-2.85-1.56-.85-.16-2.55-.24-5.1-.24h-3.42zM627.93 313.01v12.1h-38.06c-4.977 0-8.805-.437-11.485-1.312-3.5-1.176-6.31-3.31-8.43-6.398-2.118-3.09-3.177-7.164-3.177-12.223 0-5.934 1.66-10.5 4.983-13.7 3.33-3.198 8.2-4.812 14.63-4.84l1.32 11.444c-3.44.14-5.88.65-7.3 1.52-2.16 1.31-3.24 3.31-3.24 5.99 0 2.71.77 4.62 2.32 5.74s4.75 1.68 9.62 1.68h38.85zm-40.564 29.156l1.148 11.813c-3.965.71-6.877 2.15-8.736 4.32-1.86 2.17-2.79 5.1-2.79 8.8 0 3.91.828 6.85 2.482 8.84 1.654 1.98 3.59 2.97 5.804 2.97 1.422 0 2.632-.42 3.63-1.25.998-.84 1.866-2.29 2.604-4.37.492-1.42 1.367-4.66 2.625-9.72 1.613-6.51 3.596-11.08 5.947-13.7 3.31-3.69 7.342-5.54 12.1-5.54 3.063 0 5.927.86 8.593 2.6 2.666 1.73 4.696 4.24 6.09 7.5 1.395 3.26 2.092 7.21 2.092 11.83 0 7.54-1.654 13.22-4.962 17.04-3.31 3.81-7.725 5.82-13.248 6.01l-.534-12.14c3.09-.52 5.32-1.64 6.67-3.34 1.36-1.71 2.03-4.27 2.03-7.69 0-3.53-.72-6.29-2.17-8.29-.93-1.29-2.17-1.93-3.73-1.93-1.42 0-2.63.6-3.65 1.8-1.28 1.53-2.62 5.25-4.02 11.15-1.39 5.9-2.83 10.27-4.32 13.1-1.49 2.83-3.52 5.04-6.11 6.64-2.58 1.6-5.77 2.4-9.58 2.4-3.44 0-6.67-.96-9.68-2.87-3.01-1.92-5.24-4.63-6.7-8.13s-2.19-7.86-2.19-13.08c0-7.6 1.76-13.44 5.27-17.52 3.52-4.08 8.64-6.51 15.36-7.3zM567.8 402.37l31.378 20.55 28.752-18.622v14.19l-19.318 12.06 19.318 11.812v14.07l-29.203-18.705-30.928 20.55V443.63l20.79-13.33-20.8-13.372v-14.56zM463.4 442l-3.417-14.316h2.96l2.157 9.834 2.618-9.834h3.437l2.51 10 2.197-10h2.91L475.296 442h-3.067l-2.86-10.703L466.53 442h-3.13zm18.476 0v-14.316h2.89V442h-2.89zm7.37 0v-14.316h6.085c1.53 0 2.65.128 3.34.385.7.25 1.25.71 1.67 1.37.42.66.63 1.41.63 2.25 0 1.07-.31 1.96-.94 2.66-.63.7-1.57 1.14-2.83 1.32.63.36 1.14.76 1.55 1.2.41.43.96 1.21 1.65 2.32l1.75 2.79h-3.46l-2.09-3.12c-.74-1.12-1.25-1.82-1.52-2.11-.27-.29-.56-.49-.87-.6-.3-.11-.79-.17-1.45-.17h-.58v6h-2.89zm2.892-8.262h2.14c1.386 0 2.25-.058 2.596-.175.346-.118.616-.32.81-.606.196-.286.294-.644.294-1.074 0-.482-.13-.87-.386-1.167-.257-.296-.62-.484-1.09-.562-.233-.032-.936-.05-2.108-.05h-2.256v3.634zm13.26 8.262v-14.316h10.615v2.42h-7.724v3.175h7.18v2.41h-7.19v3.89h7.99V442h-10.89zm-90.263 27v-14.316h9.814v2.42h-6.93v3.39H424v2.422h-5.976V469h-2.89zm13.924 0v-14.316h6.08c1.53 0 2.64.128 3.33.385.69.25 1.25.71 1.66 1.37.41.66.62 1.41.62 2.25 0 1.07-.32 1.96-.95 2.66-.63.7-1.58 1.14-2.83 1.32.62.36 1.14.76 1.54 1.2.4.43.95 1.21 1.64 2.32l1.75 2.79h-3.46l-2.09-3.12c-.74-1.12-1.25-1.82-1.53-2.11-.28-.29-.57-.49-.87-.6-.31-.11-.79-.17-1.46-.17h-.59v6h-2.89zm2.89-8.262h2.13c1.38 0 2.25-.058 2.6-.175.34-.118.61-.32.81-.606.19-.286.29-.644.29-1.074 0-.482-.13-.87-.39-1.167-.26-.296-.62-.484-1.09-.562-.24-.032-.94-.05-2.11-.05h-2.26v3.634zM458.12 469h-3.145l-1.25-3.252h-5.722L446.82 469h-3.066l5.577-14.316h3.06L458.12 469zm-5.323-5.664l-1.972-5.313-1.934 5.313h3.91zM461.33 469v-14.316h4.327l2.598 9.765 2.568-9.77h4.336V469h-2.69v-11.27L469.63 469h-2.783l-2.835-11.27V469h-2.685zm18.33 0v-14.316h2.89V469h-2.89zm7.39 0v-14.316h2.813l5.86 9.56v-9.56h2.685V469h-2.9l-5.772-9.336V469h-2.686zm22.792-5.264v-2.412h6.23v5.703c-.605.586-1.483 1.102-2.632 1.548-1.15.446-2.313.67-3.49.67-1.498 0-2.804-.315-3.917-.943-1.113-.63-1.95-1.527-2.51-2.696-.56-1.168-.84-2.44-.84-3.813 0-1.49.313-2.816.938-3.975.63-1.16 1.54-2.047 2.75-2.666.92-.475 2.06-.713 3.43-.713 1.78 0 3.17.37 4.17 1.11s1.64 1.77 1.93 3.09l-2.87.54c-.2-.71-.58-1.26-1.13-1.67-.56-.41-1.25-.61-2.08-.61-1.26 0-2.27.4-3.01 1.2-.74.8-1.12 1.99-1.12 3.56 0 1.7.38 2.97 1.13 3.82.76.85 1.75 1.27 2.97 1.27.61 0 1.22-.12 1.82-.36.61-.24 1.13-.53 1.57-.86v-1.82h-3.31zM415.28 440.5l-2.05-8.59h1.775l1.295 5.9 1.57-5.9h2.063l1.506 6 1.31-6h1.74l-2.09 8.59h-1.84l-1.71-6.422-1.71 6.422h-1.88zm11.144 0v-8.59h1.734v3.38h3.4v-3.38h1.733v8.59h-1.73v-3.756h-3.4v3.756h-1.73zm9.638 0v-8.59h1.734v8.59h-1.734zm6.35 0v-7.137h-2.55v-1.453h6.828v1.453h-2.543v7.137h-1.735zm6.427 0v-8.59h6.36v1.453h-4.64v1.905h4.31v1.447h-4.32v2.338h4.8v1.447h-6.53z" fill="#333"/>
    <path d="M602.945 287.82h3.457v10.875c0 1.422-.125 2.516-.375 3.282-.336 1-.945 1.802-1.828 2.408-.89.605-2.05.908-3.5.908-1.7 0-3-.475-3.92-1.424-.92-.95-1.38-2.35-1.39-4.18l3.27-.38c.04.98.18 1.68.43 2.08.37.62.94.92 1.71.92s1.32-.22 1.64-.66c.32-.44.48-1.36.48-2.75v-11.09zM612.05 305v-17.18h3.468V305h-3.47zm8.844 0v-17.18h7.3c1.837 0 3.17.155 4.003.463.832.31 1.498.858 1.998 1.647.5.79.75 1.69.75 2.707 0 1.29-.38 2.353-1.137 3.193-.757.84-1.89 1.37-3.398 1.588.75.437 1.37.918 1.857 1.44.49.525 1.147 1.454 1.975 2.79L636.34 305h-4.15l-2.507-3.738c-.89-1.336-1.5-2.178-1.828-2.526-.328-.347-.675-.586-1.043-.715-.367-.12-.95-.19-1.746-.19h-.703V305h-3.47zm3.47-9.914h2.566c1.664 0 2.703-.07 3.117-.21.414-.142.738-.384.972-.728.23-.343.35-.773.35-1.29 0-.577-.16-1.044-.47-1.4-.31-.354-.75-.58-1.31-.673-.28-.04-1.13-.058-2.53-.058h-2.71v4.36zM655.766 305h-3.773l-1.5-3.902h-6.867L642.21 305h-3.68l6.69-17.18h3.668l6.88 17.18zm-6.386-6.797l-2.367-6.375-2.32 6.375h4.688zM50.76 519v-27.917h8.437l5.066 19.043 5.008-19.043h8.46V519h-5.24v-21.976L66.95 519h-5.43L56 497.024V519h-5.24zm34.307-27.917h5.636v15.12c0 2.4.07 3.955.21 4.666.24 1.14.815 2.05 1.723 2.75.908.69 2.15 1.03 3.723 1.03 1.6 0 2.8-.33 3.61-.98.81-.66 1.3-1.46 1.46-2.41.16-.95.24-2.53.24-4.74v-15.44h5.63v14.66c0 3.35-.15 5.72-.46 7.1-.3 1.38-.87 2.55-1.68 3.5-.82.95-1.92 1.71-3.29 2.27s-3.16.84-5.37.84c-2.67 0-4.69-.31-6.07-.93-1.38-.62-2.46-1.42-3.26-2.4-.8-.99-1.33-2.02-1.58-3.1-.37-1.6-.55-3.96-.55-7.09v-14.89zm28.554 18.834l5.49-.534c.33 1.84 1 3.193 2.01 4.056 1.01.86 2.37 1.29 4.09 1.29 1.82 0 3.19-.39 4.11-1.15.92-.77 1.38-1.67 1.38-2.7 0-.66-.19-1.22-.58-1.69-.38-.46-1.06-.87-2.03-1.21-.66-.23-2.16-.64-4.51-1.22-3.02-.75-5.14-1.67-6.36-2.76-1.71-1.54-2.57-3.41-2.57-5.62 0-1.43.41-2.76 1.21-3.99.81-1.24 1.97-2.18 3.49-2.83 1.52-.65 3.35-.97 5.5-.97 3.5 0 6.14.77 7.91 2.3 1.78 1.54 2.71 3.59 2.79 6.15l-5.63.25c-.24-1.44-.76-2.47-1.55-3.1-.79-.63-1.98-.95-3.57-.95-1.64 0-2.92.33-3.85 1.01-.59.43-.89 1.01-.89 1.73 0 .66.28 1.22.84 1.69.71.59 2.44 1.21 5.18 1.86 2.74.65 4.77 1.32 6.09 2.01 1.32.69 2.35 1.64 3.09 2.84s1.11 2.68 1.11 4.45c0 1.6-.44 3.1-1.33 4.49-.89 1.39-2.14 2.43-3.77 3.11-1.62.68-3.65 1.02-6.07 1.02-3.53 0-6.24-.82-8.13-2.45-1.89-1.63-3.02-4.01-3.39-7.13zM149.13 519v-23.194h-8.284v-4.723h22.185v4.723h-8.26V519h-5.63zm41.6 0h-6.133l-2.437-6.34H171l-2.304 6.34h-5.98l10.874-27.917h5.96L190.728 519zm-10.38-11.045l-3.846-10.36-3.77 10.36h7.618zm33.01.78l5.466 1.734c-.838 3.04-2.23 5.31-4.18 6.78-1.948 1.48-4.42 2.22-7.417 2.22-3.71 0-6.76-1.27-9.14-3.8-2.39-2.53-3.58-6-3.58-10.39 0-4.65 1.2-8.26 3.6-10.83 2.39-2.57 5.55-3.86 9.46-3.86 3.41 0 6.19 1.01 8.32 3.03 1.27 1.19 2.22 2.9 2.85 5.14l-5.58 1.33c-.33-1.45-1.02-2.59-2.07-3.43-1.05-.84-2.32-1.26-3.82-1.26-2.07 0-3.75.74-5.04 2.23-1.29 1.48-1.93 3.89-1.93 7.21 0 3.53.63 6.04 1.9 7.54s2.92 2.25 4.95 2.25c1.5 0 2.78-.48 3.86-1.43s1.85-2.45 2.32-4.5zM225.46 519v-27.917h5.637v10.988h11.045v-10.98h5.637V519h-5.64v-12.207h-11.05V519h-5.64zm29.926 0v-27.917h20.7v4.723H261.02v6.19h14.016v4.702H261.02v7.598h15.597V519h-21.233zM93.836 634v-27.917h20.7v4.723h-15.06v6.19h14.015v4.702H99.48v7.598h15.596V634H93.838zm26.988 0v-27.917h8.436l5.065 19.043 5.01-19.043h8.454V634h-5.24v-21.976L137.01 634h-5.427l-5.522-21.976V634h-5.23zm33.613 0v-27.917h9.046c3.428 0 5.662.14 6.703.42 1.6.418 2.94 1.33 4.018 2.732 1.08 1.402 1.62 3.215 1.62 5.436 0 1.72-.312 3.16-.934 4.33-.623 1.17-1.413 2.09-2.37 2.75-.96.67-1.934 1.11-2.924 1.33-1.346.27-3.295.4-5.847.4h-3.68V634h-5.64zm5.637-23.194v7.922h3.085c2.22 0 3.7-.146 4.45-.438.75-.292 1.33-.75 1.76-1.372.42-.622.64-1.345.64-2.17 0-1.016-.3-1.854-.9-2.514-.6-.66-1.36-1.073-2.27-1.238-.68-.127-2.03-.19-4.06-.19h-2.72zM203.78 634h-6.13l-2.44-6.34h-11.158l-2.304 6.34h-5.98l10.874-27.917h5.96L203.78 634zm-10.378-11.045l-3.847-10.36-3.77 10.36h7.617zM211.21 634v-23.194h-8.284v-4.723h22.185v4.723h-8.26V634h-5.63zm18.607 0v-27.917h5.637v10.988H246.5v-10.98h5.636V634H246.5v-12.207h-11.046V634h-5.637zm36.527 0v-11.75l-10.226-16.167h6.608l6.57 11.045 6.437-11.045h6.493l-10.264 16.206V634h-5.618zM69.7 548.736l5.465 1.733c-.838 3.04-2.23 5.31-4.18 6.78-1.95 1.48-4.42 2.22-7.417 2.22-3.707 0-6.754-1.27-9.14-3.8-2.387-2.53-3.58-6-3.58-10.39 0-4.65 1.2-8.26 3.598-10.83 2.4-2.57 5.554-3.86 9.465-3.86 3.42 0 6.19 1.01 8.33 3.03 1.27 1.19 2.22 2.9 2.86 5.14l-5.58 1.33c-.33-1.45-1.02-2.59-2.06-3.43-1.04-.84-2.32-1.26-3.82-1.26-2.07 0-3.75.74-5.03 2.23-1.29 1.48-1.93 3.89-1.93 7.21 0 3.53.64 6.04 1.91 7.54s2.92 2.25 4.95 2.25c1.5 0 2.79-.48 3.87-1.43s1.86-2.45 2.33-4.5zm11.314-17.653h5.637v15.12c0 2.4.07 3.955.21 4.666.24 1.14.82 2.05 1.73 2.75.91.69 2.15 1.03 3.73 1.03 1.6 0 2.81-.33 3.62-.98.81-.66 1.3-1.46 1.47-2.41.17-.95.25-2.53.25-4.74v-15.44h5.64v14.66c0 3.35-.15 5.72-.45 7.1-.3 1.38-.86 2.55-1.68 3.5-.82.95-1.91 1.71-3.28 2.27-1.37.56-3.16.84-5.37.84-2.66 0-4.69-.31-6.06-.93-1.38-.62-2.47-1.42-3.26-2.4-.8-.99-1.33-2.02-1.58-3.1-.37-1.6-.55-3.96-.55-7.09v-14.89zM110.286 559v-27.917h11.863c2.98 0 5.15.25 6.5.752 1.35.502 2.43 1.394 3.24 2.676.81 1.29 1.22 2.75 1.22 4.4 0 2.1-.62 3.83-1.85 5.19-1.23 1.37-3.07 2.23-5.53 2.58 1.22.71 2.22 1.49 3.02 2.34.79.86 1.86 2.37 3.21 4.54l3.41 5.45h-6.74l-4.08-6.07c-1.45-2.17-2.44-3.54-2.97-4.1-.53-.56-1.1-.95-1.7-1.16-.6-.21-1.54-.31-2.84-.31h-1.14V559h-5.64zm5.636-16.11h4.17c2.705 0 4.393-.115 5.066-.343.673-.23 1.2-.622 1.58-1.18.382-.56.572-1.258.572-2.096 0-.93-.25-1.69-.752-2.27-.502-.58-1.21-.94-2.124-1.09-.457-.06-1.828-.09-4.113-.09h-4.39v7.09zM139.31 559v-27.917h5.636V559h-5.636zm10.914-13.787c0-2.844.425-5.23 1.276-7.16.635-1.422 1.5-2.698 2.6-3.828 1.097-1.13 2.3-1.968 3.608-2.514 1.74-.73 3.745-1.1 6.017-1.1 4.114 0 7.405 1.28 9.874 3.83 2.46 2.55 3.7 6.1 3.7 10.65 0 4.51-1.23 8.04-3.68 10.58s-5.73 3.82-9.83 3.82c-4.15 0-7.46-1.26-9.91-3.8s-3.68-6.02-3.68-10.46zm5.808-.19c0 3.16.73 5.557 2.19 7.188 1.46 1.64 3.313 2.45 5.56 2.45 2.248 0 4.092-.81 5.533-2.43 1.44-1.61 2.16-4.04 2.16-7.28 0-3.2-.7-5.58-2.103-7.16-1.403-1.57-3.266-2.36-5.59-2.36-2.323 0-4.195.8-5.617 2.39-1.422 1.59-2.133 4-2.133 7.21zm26.682-13.94h5.637v15.12c0 2.4.07 3.955.21 4.666.24 1.14.82 2.05 1.73 2.75.91.69 2.15 1.03 3.73 1.03 1.6 0 2.81-.33 3.62-.98.81-.66 1.3-1.46 1.47-2.41.17-.95.25-2.53.25-4.74v-15.44H205v14.66c0 3.35-.15 5.72-.458 7.1-.306 1.38-.867 2.55-1.686 3.5-.82.95-1.916 1.71-3.287 2.27-1.37.56-3.16.84-5.37.84-2.67 0-4.69-.31-6.07-.93-1.38-.62-2.47-1.42-3.27-2.4-.8-.99-1.33-2.02-1.58-3.1-.37-1.6-.56-3.96-.56-7.09v-14.89zm27.824 18.834l5.485-.534c.33 1.84 1 3.193 2.01 4.056 1.008.86 2.37 1.29 4.083 1.29 1.816 0 3.184-.39 4.104-1.15.92-.77 1.38-1.67 1.38-2.7 0-.66-.193-1.22-.58-1.69-.387-.46-1.063-.87-2.028-1.21-.66-.23-2.165-.64-4.513-1.22-3.03-.75-5.15-1.67-6.37-2.76-1.72-1.54-2.57-3.41-2.57-5.62 0-1.43.4-2.76 1.21-3.99.8-1.24 1.96-2.18 3.48-2.83 1.51-.65 3.35-.97 5.49-.97 3.5 0 6.14.77 7.91 2.3 1.77 1.54 2.7 3.59 2.79 6.15l-5.64.25c-.24-1.44-.76-2.47-1.55-3.1-.8-.63-1.99-.95-3.58-.95-1.64 0-2.92.33-3.85 1.01-.6.43-.9 1.01-.9 1.73 0 .66.28 1.22.83 1.69.71.59 2.44 1.21 5.18 1.86 2.74.65 4.77 1.32 6.08 2.01 1.31.69 2.34 1.64 3.08 2.84.74 1.2 1.11 2.68 1.11 4.45 0 1.6-.44 3.1-1.33 4.49-.89 1.39-2.15 2.43-3.77 3.11-1.63.68-3.65 1.02-6.08 1.02-3.53 0-6.24-.82-8.14-2.45-1.89-1.63-3.02-4.01-3.39-7.13zm63.776-12.3v5.617h-17.672c-2.31 0-4.088-.203-5.332-.61-1.625-.545-2.93-1.536-3.913-2.97-.984-1.435-1.476-3.326-1.476-5.675 0-2.76.78-4.88 2.32-6.36 1.54-1.49 3.81-2.24 6.79-2.25l.61 5.31c-1.6.06-2.73.3-3.39.7-1 .61-1.5 1.53-1.5 2.78 0 1.25.36 2.14 1.08 2.66s2.21.78 4.47.78h18.04zm-18.834 11.237l.534 5.485c-1.84.33-3.193.99-4.057 2-.863 1.01-1.294 2.37-1.294 4.08 0 1.81.384 3.18 1.152 4.1.768.92 1.666 1.38 2.694 1.38.66 0 1.22-.2 1.68-.58.46-.39.86-1.07 1.21-2.03.22-.66.63-2.17 1.22-4.52.75-3.02 1.67-5.14 2.76-6.36 1.53-1.72 3.41-2.57 5.62-2.57 1.42 0 2.75.4 3.99 1.21 1.24.8 2.18 1.97 2.83 3.48.64 1.52.97 3.35.97 5.49 0 3.5-.77 6.14-2.31 7.91-1.54 1.77-3.59 2.7-6.15 2.79l-.25-5.64c1.43-.24 2.46-.76 3.09-1.56.63-.79.94-1.98.94-3.57 0-1.64-.34-2.92-1.01-3.84-.43-.6-1.01-.9-1.73-.9-.66 0-1.23.28-1.7.84-.6.71-1.22 2.44-1.87 5.18-.65 2.74-1.32 4.77-2.01 6.08s-1.64 2.34-2.84 3.08c-1.2.74-2.69 1.11-4.45 1.11-1.6 0-3.1-.45-4.5-1.34-1.4-.89-2.44-2.15-3.11-3.77-.68-1.63-1.02-3.65-1.02-6.08 0-3.53.81-6.24 2.45-8.13 1.63-1.9 4-3.03 7.13-3.39zm-9.083 28.49h27.917v9.047c0 3.43-.14 5.67-.42 6.71-.418 1.6-1.33 2.94-2.732 4.02-1.403 1.08-3.215 1.62-5.436 1.62-1.714 0-3.155-.31-4.323-.93-1.168-.62-2.085-1.41-2.752-2.37-.66-.96-1.1-1.93-1.32-2.92-.26-1.34-.4-3.29-.4-5.84V583H246.4v-5.64zm23.194 5.638h-7.92v3.085c0 2.222.15 3.707.44 4.456.29.75.75 1.336 1.37 1.76.63.427 1.35.64 2.17.64 1.02 0 1.86-.3 2.52-.896.66-.596 1.08-1.352 1.24-2.266.13-.67.19-2.02.19-4.05v-2.72zM640.8 375.63h-2.412v-6.232h5.703c.59.606 1.1 1.483 1.55 2.632.45 1.15.67 2.313.67 3.49 0 1.5-.31 2.804-.94 3.917-.63 1.114-1.52 1.95-2.69 2.51-1.17.56-2.44.84-3.81.84-1.49 0-2.81-.313-3.97-.938-1.16-.63-2.05-1.54-2.66-2.75-.48-.92-.71-2.06-.71-3.43 0-1.78.37-3.17 1.12-4.17.75-1 1.78-1.64 3.09-1.93l.54 2.87c-.7.2-1.26.58-1.66 1.14-.41.55-.61 1.25-.61 2.08 0 1.26.4 2.26 1.2 3.01.8.74 1.99 1.11 3.57 1.11 1.7 0 2.98-.38 3.82-1.13.85-.76 1.28-1.75 1.28-2.97 0-.61-.12-1.22-.35-1.82-.24-.61-.53-1.14-.86-1.57h-1.82v3.31zm5.263-9.446h-14.315V360.1c0-1.53.128-2.642.386-3.335.258-.693.715-1.248 1.373-1.665.657-.417 1.41-.625 2.256-.625 1.073 0 1.96.316 2.66.947.7.632 1.14 1.576 1.323 2.832.365-.625.765-1.14 1.2-1.548.437-.406 1.212-.955 2.325-1.645l2.8-1.74v3.46l-3.11 2.09c-1.11.75-1.81 1.25-2.1 1.53-.29.28-.48.57-.59.87-.11.31-.16.79-.16 1.46v.59h5.98v2.89zm-8.26-2.89v-2.14c0-1.386-.06-2.252-.176-2.597-.117-.345-.32-.615-.606-.81-.28-.196-.64-.293-1.07-.293-.48 0-.87.128-1.16.385-.29.25-.48.62-.56 1.08-.03.23-.05.94-.05 2.11v2.25h3.64zm-6.055-12.063v-2.89h7.754c1.23 0 2.027-.03 2.39-.1.587-.12 1.058-.42 1.413-.88.354-.46.532-1.1.532-1.91 0-.82-.168-1.43-.503-1.85-.333-.41-.745-.66-1.234-.75-.488-.08-1.298-.12-2.43-.12h-7.92v-2.89h7.518c1.72 0 2.933.08 3.643.24.71.16 1.31.45 1.8.87s.88.98 1.17 1.68c.29.7.44 1.62.44 2.76 0 1.37-.15 2.4-.47 3.11-.31.71-.72 1.26-1.23 1.67-.5.41-1.03.68-1.58.81-.82.19-2.03.29-3.63.29h-7.63zm14.316-15.03H631.75v-2.81l9.56-5.86h-9.56v-2.68h14.315v2.9l-9.335 5.77h9.336v2.69zm0-18.17H634.17v4.25h-2.42V310.9h2.42v4.237h11.895v2.89z" fill="#333"/>
    <path d="M104.433 408H92.956l-4.563-11.87H67.505L63.192 408H52l20.353-52.255H83.51L104.433 408zm-19.426-20.674l-7.2-19.39-7.058 19.39H85zm51.297 1.462v-8.805h22.74V400.8c-2.21 2.138-5.41 4.022-9.605 5.65-4.2 1.627-8.45 2.44-12.75 2.44-5.47 0-10.23-1.145-14.3-3.44-4.07-2.292-7.12-5.57-9.16-9.836-2.05-4.266-3.07-8.906-3.07-13.92 0-5.44 1.14-10.277 3.42-14.507 2.28-4.23 5.62-7.473 10.01-9.73 3.35-1.736 7.52-2.603 12.51-2.603 6.49 0 11.55 1.36 15.2 4.08 3.65 2.722 5.99 6.483 7.04 11.283l-10.48 1.96c-.74-2.566-2.12-4.592-4.15-6.077-2.03-1.485-4.57-2.228-7.61-2.228-4.61 0-8.28 1.46-11 4.384-2.72 2.923-4.09 7.26-4.09 13.01 0 6.203 1.38 10.854 4.13 13.955 2.75 3.11 6.37 4.66 10.83 4.66 2.21 0 4.42-.43 6.64-1.3 2.22-.87 4.13-1.92 5.72-3.15v-6.63H136.3zM170.42 408v-52.255h10.552V408h-10.55zm22.854 0v-51.827h10.55v43.023h26.235V408h-36.79zm46.272 0v-52.255h38.745v8.84H250.1v11.584h26.235v8.8H250.1v14.22h29.192V408H239.55z" fill="#D32F6E"/>
    <path d="M565.253 473v-12.17h8.343v2.06h-5.886v2.88h5.08v2.06h-5.08V473h-2.457zm10.892 0v-12.07h2.457v10.02h6.11V473h-8.567zm10.76-12.17h2.456v6.592c0 1.046.04 1.724.1 2.034.11.498.36.897.75 1.2.4.3.94.45 1.63.45.7 0 1.22-.14 1.58-.426.36-.285.57-.635.64-1.05.07-.415.11-1.104.11-2.067v-6.732h2.46v6.4c0 1.46-.06 2.5-.2 3.1-.13.61-.37 1.11-.73 1.53-.35.42-.83.75-1.43.99s-1.38.37-2.34.37c-1.16 0-2.04-.13-2.64-.4-.6-.26-1.07-.61-1.42-1.04-.35-.43-.57-.88-.69-1.35-.16-.69-.24-1.72-.24-3.09v-6.49zM599.58 473v-12.17h2.458V473h-2.457zm5.248-12.17h4.49c1.013 0 1.785.08 2.316.233.714.21 1.326.584 1.835 1.12.5.538.89 1.195 1.16 1.973.26.777.4 1.736.4 2.876 0 1-.13 1.865-.38 2.59-.31.885-.74 1.602-1.31 2.15-.43.415-1 .738-1.73.97-.54.172-1.27.258-2.18.258h-4.63v-12.17zm2.457 2.06v8.06h1.834c.68 0 1.18-.04 1.48-.117.4-.1.73-.268.99-.506s.47-.63.64-1.174c.16-.545.25-1.288.25-2.23 0-.94-.09-1.662-.25-2.166-.17-.503-.4-.896-.7-1.178-.3-.29-.68-.48-1.14-.58-.35-.08-1.02-.12-2.02-.12h-1.11zM65.117 598v-30.064h5.906l12.305 20.077v-20.077h5.64V598h-6.09l-12.12-19.605V598h-5.64zm28.592-14.848c0-3.062.45-5.632 1.37-7.71.68-1.532 1.61-2.906 2.8-4.123 1.18-1.22 2.48-2.12 3.88-2.71 1.87-.8 4.03-1.19 6.48-1.19 4.43 0 7.97 1.37 10.63 4.12 2.66 2.75 3.99 6.57 3.99 11.46 0 4.85-1.32 8.65-3.96 11.39-2.64 2.74-6.17 4.11-10.58 4.11-4.47 0-8.03-1.37-10.67-4.09-2.64-2.73-3.96-6.49-3.96-11.27zm6.25-.205c0 3.405.78 5.985 2.36 7.742 1.57 1.75 3.56 2.63 5.98 2.63s4.4-.87 5.96-2.62c1.55-1.75 2.32-4.36 2.32-7.85 0-3.45-.76-6.02-2.27-7.71-1.51-1.7-3.52-2.55-6.02-2.55-2.5 0-4.52.86-6.05 2.57-1.53 1.72-2.3 4.3-2.3 7.76zm27.18-15.01h11.09c2.5 0 4.41.19 5.72.573 1.76.52 3.27 1.442 4.53 2.768 1.25 1.326 2.21 2.95 2.87 4.87.65 1.922.98 4.29.98 7.107 0 2.475-.31 4.607-.93 6.398-.75 2.188-1.83 3.958-3.22 5.312-1.06 1.025-2.48 1.825-4.27 2.4-1.34.423-3.13.635-5.38.635h-11.42v-30.064zm6.07 5.084v19.92h4.53c1.69 0 2.92-.09 3.67-.29.98-.24 1.8-.66 2.45-1.25.65-.59 1.18-1.55 1.59-2.9.41-1.34.61-3.18.61-5.5s-.21-4.11-.62-5.35c-.41-1.24-.99-2.21-1.73-2.91-.74-.7-1.68-1.17-2.81-1.41-.85-.19-2.51-.29-4.98-.29h-2.73zM157.04 598v-30.064h22.292v5.085h-16.22v6.67h15.09v5.07h-15.09v8.19h16.796V598h-22.86zm36.254-19l-2.73-11.453h2.365l1.72 7.867 2.09-7.867h2.75l2.01 8 1.75-8h2.33L202.81 579h-2.45l-2.28-8.563-2.27 8.563h-2.51zm12.84-5.656c0-1.167.174-2.146.523-2.938.26-.583.616-1.107 1.067-1.57.45-.464.944-.807 1.48-1.03.714-.303 1.537-.454 2.47-.454 1.687 0 3.037.523 4.05 1.57 1.013 1.047 1.52 2.502 1.52 4.367 0 1.84-.503 3.29-1.508 4.34-1.005 1.04-2.348 1.56-4.03 1.56-1.704 0-3.058-.52-4.063-1.56s-1.508-2.47-1.508-4.3zm2.383-.078c0 1.297.3 2.28.9 2.95.6.668 1.36 1.003 2.28 1.003.923 0 1.68-.34 2.27-1 .592-.67.89-1.66.89-2.99 0-1.31-.29-2.29-.866-2.94-.57-.65-1.34-.97-2.29-.97s-1.72.33-2.3.98c-.58.65-.87 1.64-.87 2.95zM218.89 579v-11.453h4.867c1.222 0 2.11.103 2.666.308.554.206.998.572 1.332 1.098.33.526.5 1.128.5 1.805 0 .86-.256 1.57-.76 2.13-.506.56-1.26.91-2.267 1.057.5.292.914.612 1.24.96.325.35.764.97 1.316 1.86L229.18 579h-2.766l-1.67-2.492c-.594-.89-1-1.452-1.22-1.684-.22-.232-.45-.39-.694-.476-.245-.086-.633-.13-1.164-.13h-.47V579h-2.31zm2.31-6.61h1.713c1.11 0 1.802-.046 2.078-.14.28-.094.5-.255.65-.484.16-.23.24-.516.24-.86 0-.385-.1-.696-.31-.933-.2-.237-.49-.387-.87-.45-.18-.026-.75-.04-1.68-.04h-1.81v2.908zm9.058-4.843h4.227c.953 0 1.68.073 2.18.22.672.197 1.247.548 1.726 1.053.48.506.85 1.124 1.1 1.856s.38 1.634.38 2.707c0 .943-.11 1.755-.35 2.437-.28.834-.69 1.508-1.22 2.024-.4.39-.94.695-1.62.914-.51.16-1.19.242-2.05.242h-4.35v-11.453zm2.31 1.937v7.586h1.73c.644 0 1.11-.036 1.397-.11.375-.093.686-.252.934-.476.24-.224.45-.592.6-1.105.15-.52.23-1.22.23-2.1 0-.89-.08-1.57-.24-2.04-.16-.48-.38-.85-.66-1.11-.28-.27-.64-.45-1.07-.54-.33-.08-.96-.11-1.9-.11h-1.04zm-42.6 26.616v-11.453h3.71c1.408 0 2.324.057 2.75.172.658.17 1.207.54 1.65 1.12.443.57.664 1.32.664 2.23 0 .7-.128 1.29-.383 1.77-.26.48-.58.85-.98 1.13-.4.27-.79.45-1.2.54-.55.11-1.35.16-2.4.16h-1.51v4.32h-2.31zm2.31-9.516v3.25h1.27c.91 0 1.52-.06 1.827-.18.307-.12.548-.307.722-.562.173-.255.26-.552.26-.89 0-.417-.125-.76-.37-1.032-.245-.27-.555-.44-.93-.507-.276-.053-.83-.08-1.664-.08h-1.117zm8.2 9.516v-11.453h4.867c1.224 0 2.113.103 2.668.308.555.206 1 .572 1.332 1.098.333.526.5 1.128.5 1.805 0 .86-.252 1.57-.758 2.13-.507.56-1.26.91-2.267 1.057.5.292.912.612 1.238.96.328.35.766.97 1.318 1.86l1.4 2.235h-2.768l-1.675-2.492c-.593-.89-1-1.452-1.218-1.684-.22-.232-.453-.39-.698-.476-.245-.086-.633-.13-1.164-.13h-.47v4.782h-2.313zm2.31-6.61h1.71c1.11 0 1.805-.046 2.08-.14.278-.094.494-.255.65-.484.156-.23.234-.516.234-.86 0-.385-.103-.696-.308-.933-.206-.237-.496-.387-.87-.45-.19-.026-.75-.04-1.69-.04h-1.804v2.908zm9.067 6.61v-11.453h8.492v1.937h-6.18v2.54h5.75v1.93h-5.75v3.116h6.4v1.93h-8.714zm9.915-3.727l2.25-.218c.137.755.41 1.31.826 1.664.414.35.972.53 1.675.53.75 0 1.31-.16 1.69-.48.38-.32.57-.69.57-1.11 0-.27-.08-.5-.23-.69-.16-.19-.43-.36-.83-.5-.27-.1-.88-.26-1.85-.5-1.24-.31-2.11-.69-2.61-1.14-.7-.63-1.05-1.4-1.05-2.31 0-.59.17-1.13.5-1.64.33-.51.81-.9 1.43-1.16.63-.27 1.38-.4 2.26-.4 1.44 0 2.52.32 3.25.95.73.63 1.11 1.47 1.15 2.52l-2.31.1c-.1-.59-.31-1.01-.63-1.27s-.81-.39-1.46-.39c-.67 0-1.19.13-1.57.41-.24.17-.37.41-.37.71 0 .27.12.5.35.69.29.24 1 .5 2.12.76s1.96.54 2.5.82c.54.28.96.67 1.26 1.16.31.49.46 1.1.46 1.82 0 .65-.18 1.27-.55 1.84-.36.57-.88 1-1.55 1.27-.66.28-1.49.42-2.49.42-1.44 0-2.56-.33-3.33-1-.77-.67-1.24-1.65-1.39-2.93zm10.503 0l2.25-.218c.135.755.41 1.31.824 1.664.412.35.97.53 1.674.53.75 0 1.31-.16 1.69-.48.38-.32.57-.69.57-1.11 0-.27-.08-.5-.23-.69-.16-.19-.43-.36-.83-.5-.27-.1-.88-.26-1.85-.5-1.24-.31-2.11-.69-2.61-1.14-.7-.63-1.05-1.4-1.05-2.31 0-.59.17-1.13.5-1.64.33-.51.81-.9 1.43-1.16.62-.27 1.38-.4 2.26-.4 1.44 0 2.52.32 3.25.95.73.63 1.11 1.47 1.15 2.52l-2.31.1c-.1-.59-.31-1.01-.64-1.27-.32-.26-.81-.39-1.46-.39-.67 0-1.19.13-1.57.41-.24.17-.36.41-.36.71 0 .27.12.5.35.69.29.24 1 .5 2.12.76 1.13.26 1.96.54 2.5.82.54.28.96.67 1.27 1.16.3.49.46 1.1.46 1.82 0 .65-.18 1.27-.55 1.84-.36.57-.88 1-1.54 1.27-.66.28-1.49.42-2.49.42-1.45 0-2.56-.33-3.33-1-.77-.67-1.24-1.65-1.39-2.93zM74.45 348v-15.463h-5.52v-3.148h14.79v3.14h-5.51V348h-3.76zm16.305 0v-7.833l-6.818-10.778h4.406l4.38 7.36 4.29-7.37h4.33L94.5 340.19V348h-3.745zm12.177 0v-18.61h6.03c2.286 0 3.775.092 4.47.278 1.066.28 1.96.887 2.678 1.822.72.935 1.08 2.143 1.08 3.624 0 1.143-.208 2.103-.623 2.882-.415.78-.94 1.39-1.58 1.835-.64.45-1.29.74-1.95.89-.896.18-2.195.27-3.897.27h-2.45V348h-3.758zm3.758-15.463v5.28h2.057c1.48 0 2.47-.096 2.97-.29.5-.195.89-.5 1.175-.915.283-.414.425-.897.425-1.447 0-.677-.2-1.236-.597-1.676-.397-.44-.9-.72-1.51-.83-.45-.09-1.35-.13-2.704-.13h-1.816zm12.546 6.272c0-1.9.283-3.49.85-4.78.424-.95 1-1.8 1.733-2.55.73-.76 1.53-1.31 2.4-1.68 1.16-.49 2.49-.74 4.01-.74 2.74 0 4.93.85 6.58 2.55 1.64 1.7 2.47 4.07 2.47 7.1 0 3-.82 5.35-2.45 7.05-1.64 1.7-3.82 2.54-6.55 2.54-2.77 0-4.97-.85-6.6-2.53-1.64-1.69-2.45-4.02-2.45-6.98zm3.872-.13c0 2.1.487 3.7 1.46 4.79.973 1.09 2.21 1.63 3.707 1.63 1.498 0 2.727-.54 3.688-1.62.96-1.08 1.44-2.7 1.44-4.86 0-2.14-.467-3.73-1.402-4.78-.93-1.05-2.17-1.58-3.72-1.58-1.55 0-2.79.53-3.74 1.59s-1.42 2.66-1.42 4.8zm25.495 2.47v-3.14h8.1v7.41c-.788.76-1.928 1.43-3.422 2.01-1.49.58-3 .87-4.53.87-1.94 0-3.64-.41-5.09-1.23-1.45-.82-2.53-1.99-3.26-3.51s-1.09-3.17-1.09-4.96c0-1.94.41-3.66 1.22-5.17.81-1.51 2-2.66 3.57-3.47 1.2-.62 2.68-.93 4.46-.93 2.31 0 4.12.49 5.42 1.45 1.3.97 2.14 2.31 2.51 4.02l-3.73.7c-.26-.92-.76-1.64-1.48-2.17s-1.63-.8-2.71-.8c-1.64 0-2.95.52-3.92 1.56-.97 1.04-1.45 2.59-1.45 4.64 0 2.21.49 3.86 1.47 4.97.99 1.1 2.27 1.65 3.86 1.65.79 0 1.58-.15 2.37-.46.79-.31 1.47-.68 2.04-1.12v-2.37h-4.31zm11.3 6.84v-18.61h7.91c1.99 0 3.435.16 4.336.5.9.33 1.62.93 2.16 1.78s.81 1.83.81 2.93c0 1.39-.41 2.55-1.23 3.46-.82.91-2.05 1.48-3.69 1.72.81.47 1.48.99 2.01 1.56.53.57 1.24 1.57 2.14 3.02l2.27 3.63h-4.5l-2.72-4.05c-.97-1.45-1.63-2.36-1.98-2.74-.36-.38-.74-.64-1.13-.78-.4-.14-1.03-.21-1.9-.21h-.76v7.8h-3.75zm3.76-10.74h2.78c1.802 0 2.928-.08 3.376-.23.44-.15.8-.42 1.05-.79.25-.37.38-.84.38-1.4 0-.63-.17-1.13-.5-1.52-.34-.39-.81-.63-1.42-.73-.31-.04-1.22-.07-2.74-.07h-2.94v4.72zm31.51 10.74h-4.087l-1.625-4.23h-7.44l-1.53 4.24h-3.99l7.25-18.61h3.98l7.45 18.61zm-6.92-7.37l-2.563-6.91-2.512 6.9h5.078zm8.637 7.37v-18.61h6.03c2.287 0 3.776.09 4.47.27 1.067.28 1.96.88 2.68 1.82.718.93 1.078 2.14 1.078 3.62 0 1.14-.207 2.1-.622 2.88-.415.78-.942 1.39-1.58 1.83-.64.45-1.29.74-1.95.89-.897.18-2.196.26-3.897.26h-2.45V348h-3.76zm3.76-15.47v5.28h2.056c1.48 0 2.47-.1 2.97-.29.5-.2.89-.5 1.175-.92.29-.42.43-.9.43-1.45 0-.68-.2-1.24-.59-1.68-.4-.44-.9-.72-1.51-.83-.45-.09-1.35-.13-2.7-.13h-1.81zM213.97 348v-18.61h3.757v7.324h7.363v-7.325h3.758V348h-3.758v-8.138h-7.363V348h-3.758zm23.374 0v-7.833l-6.818-10.778h4.406l4.38 7.36 4.29-7.37h4.33l-6.843 10.8V348h-3.75zm147.868-62.075l.506 5.203c-1.746.313-3.03.948-3.848 1.906-.82.958-1.228 2.25-1.228 3.875 0 1.72.364 3.02 1.093 3.89.728.87 1.58 1.31 2.556 1.31.63 0 1.16-.19 1.6-.55.44-.37.83-1.01 1.15-1.93.22-.63.6-2.06 1.16-4.28.71-2.87 1.59-4.88 2.62-6.04 1.46-1.63 3.24-2.44 5.33-2.44 1.35 0 2.61.38 3.79 1.14 1.18.76 2.07 1.87 2.68 3.31.62 1.44.93 3.17.93 5.21 0 3.32-.73 5.82-2.18 7.5-1.45 1.68-3.4 2.56-5.83 2.64l-.23-5.35c1.36-.23 2.34-.72 2.94-1.48.6-.75.9-1.88.9-3.39 0-1.55-.32-2.77-.96-3.65-.41-.57-.95-.85-1.64-.85-.62 0-1.16.27-1.61.8-.56.67-1.15 2.31-1.77 4.91-.61 2.6-1.25 4.52-1.9 5.77-.65 1.24-1.55 2.22-2.69 2.92-1.14.71-2.54 1.06-4.22 1.06-1.51 0-2.93-.42-4.26-1.27-1.32-.84-2.31-2.03-2.95-3.58-.65-1.54-.97-3.47-.97-5.77 0-3.35.77-5.92 2.32-7.72 1.55-1.8 3.8-2.87 6.77-3.22zm1.12 44.003l-1.643 5.185c-2.9-.795-5.04-2.116-6.45-3.965-1.41-1.85-2.11-4.195-2.11-7.037 0-3.51 1.2-6.4 3.6-8.67 2.4-2.26 5.69-3.39 9.85-3.39 4.41 0 7.83 1.14 10.27 3.42 2.44 2.28 3.66 5.27 3.66 8.98 0 3.24-.96 5.87-2.87 7.9-1.14 1.21-2.76 2.11-4.88 2.71l-1.27-5.29c1.37-.31 2.45-.96 3.25-1.96.79-.99 1.19-2.2 1.19-3.62 0-1.96-.71-3.55-2.12-4.78-1.41-1.22-3.69-1.83-6.85-1.83-3.35 0-5.73.6-7.16 1.81-1.42 1.21-2.13 2.77-2.13 4.7 0 1.42.45 2.65 1.36 3.67.9 1.03 2.32 1.76 4.26 2.21zm-1.12 9.443l.506 5.21c-1.746.32-3.03.95-3.848 1.91-.82.96-1.228 2.25-1.228 3.88 0 1.72.364 3.02 1.093 3.9.728.88 1.58 1.31 2.556 1.31.63 0 1.16-.18 1.6-.55.44-.37.83-1.01 1.15-1.92.22-.62.6-2.05 1.16-4.28.71-2.86 1.59-4.88 2.62-6.03 1.46-1.62 3.24-2.44 5.33-2.44 1.35 0 2.61.39 3.79 1.15 1.18.77 2.07 1.87 2.68 3.31.62 1.44.93 3.18.93 5.22 0 3.33-.73 5.83-2.18 7.51-1.45 1.68-3.4 2.56-5.83 2.65l-.23-5.35c1.36-.23 2.34-.72 2.94-1.47.6-.75.9-1.88.9-3.39 0-1.55-.32-2.77-.96-3.65-.41-.56-.95-.85-1.64-.85-.62 0-1.16.27-1.61.8-.56.68-1.15 2.31-1.77 4.92-.61 2.6-1.25 4.53-1.9 5.77-.65 1.25-1.55 2.22-2.69 2.93s-2.54 1.06-4.22 1.06c-1.51 0-2.93-.42-4.26-1.26-1.32-.84-2.31-2.03-2.95-3.58-.65-1.54-.97-3.46-.97-5.76 0-3.35.77-5.92 2.32-7.71 1.55-1.79 3.8-2.86 6.77-3.21zm0 25.71l.506 5.21c-1.746.32-3.03.95-3.848 1.91-.82.96-1.228 2.25-1.228 3.88 0 1.72.364 3.02 1.093 3.9.728.88 1.58 1.31 2.556 1.31.63 0 1.16-.18 1.6-.55.44-.36.83-1.01 1.15-1.92.22-.63.6-2.05 1.16-4.28.71-2.86 1.59-4.88 2.62-6.03 1.46-1.62 3.24-2.44 5.33-2.44 1.35 0 2.61.39 3.79 1.15 1.18.76 2.07 1.87 2.68 3.31.62 1.44.93 3.18.93 5.21 0 3.33-.73 5.83-2.18 7.51-1.45 1.68-3.4 2.56-5.83 2.65l-.23-5.35c1.36-.23 2.34-.72 2.94-1.47.6-.75.9-1.88.9-3.39 0-1.55-.32-2.77-.96-3.65-.41-.56-.95-.85-1.64-.85-.62 0-1.16.27-1.61.8-.56.68-1.15 2.31-1.77 4.92-.61 2.61-1.25 4.53-1.9 5.78-.65 1.25-1.55 2.22-2.69 2.93s-2.54 1.06-4.22 1.06c-1.51 0-2.93-.42-4.26-1.27-1.32-.84-2.31-2.03-2.95-3.58-.65-1.54-.97-3.46-.97-5.76 0-3.35.77-5.92 2.32-7.71 1.55-1.8 3.8-2.87 6.77-3.22z" fill="#333"/>
  </g>
</svg>
