<svg xmlns="http://www.w3.org/2000/svg" viewBox="0 0 599.4 594.2"><defs><style>.cls-1{isolation:isolate;}.cls-2{mix-blend-mode:hard-light;}.cls-3{fill:#d4306e;}.cls-4{fill:#24ae5f;}</style></defs><title>hero1</title><g class="cls-1"><g id="Layer_1" data-name="Layer 1"><g class="cls-2"><path class="cls-3" d="M982.48,360L1097,165.74l0.24,0.51,92.63,194.34-0.45,0ZM1096.9,167L983.55,359.36,1188.9,360Z" transform="translate(-887.3 -50.15)"/><path class="cls-3" d="M1189.32,360.91l-0.22-.47L1096.43,166l0.54,0.06,198.64,22.15-0.28.41Zm-91.88-194.17,92,193,105.13-171Z" transform="translate(-887.3 -50.15)"/><path class="cls-3" d="M1295.54,188.82l-0.5-.06-198.95-22.18,0.67-.46,148.47-101,0.14,0.34Zm-197.77-22.65,196.83,21.95L1244.95,66Z" transform="translate(-887.3 -50.15)"/><path class="cls-3" d="M1096.81,166.82l-0.15-.31-43-87.3,0.44,0,192.08-14Zm-42.22-87.08L1097,165.93,1244,66Z" transform="translate(-887.3 -50.15)"/><path class="cls-3" d="M1054.15,79.78l-0.08-.59,130.61-24.95h0.06l62.72,11.47Zm130.54-24.93-125.44,24,183.47-13.35Z" transform="translate(-887.3 -50.15)"/><path class="cls-3" d="M1392.58,195l-97.76-6.33-0.07-.18-50.41-124Zm-97.34-6.91,95.63,6.2-145-127.69Z" transform="translate(-887.3 -50.15)"/><path class="cls-3" d="M1392.41,196L1243.66,64.73l99.16,37.38,0.05,0.1ZM1246.51,66.44l143.84,126.94-47.95-90.79Z" transform="translate(-887.3 -50.15)"/><path class="cls-3" d="M1391.58,195.06l-50.17-94.33L1424,183.07ZM1343.81,104l48.05,90.35,31.07-11.48Z" transform="translate(-887.3 -50.15)"/><path class="cls-3" d="M1449.83,225.13L1391,194.64l32.62-12.06Zm-57.37-30.4,55.72,28.87-24.83-40.29Z" transform="translate(-887.3 -50.15)"/><path class="cls-3" d="M1406.5,363.44l-0.59,0-217.09-2.82,0.3-.43,106-172.22,0.24,0.39ZM1189.9,360l215.46,2.71L1295.06,189Z" transform="translate(-887.3 -50.15)"/><path class="cls-3" d="M1279.1,554.29l-0.22-.49-90-193.83,217.59,2.9-0.29.43Zm-89.25-193.65,89.36,192.43L1405.39,363.4Z" transform="translate(-887.3 -50.15)"/><path class="cls-3" d="M1091.43,526.66l-0.28-.43L982.48,359.41l0.52,0,206.87,0.82-0.25.46ZM983.55,360l107.83,165.52,97.47-164.62Z" transform="translate(-887.3 -50.15)"/><path class="cls-3" d="M967.5,533.29l0-.34L982.79,358.8l0.48,0.73,108.67,166.82-0.52,0Zm15.74-172.71L968.16,532.65l122.72-6.86Z" transform="translate(-887.3 -50.15)"/><path class="cls-3" d="M1136.2,635.18L966.84,532.73l1-.06,123.79-6.92,0.08,0.2Zm-167.39-102L1135,633.73l-43.75-107.35Z" transform="translate(-887.3 -50.15)"/><path class="cls-3" d="M1137.86,635.48l-95-29.81-77.17-74.35Zm-94.63-30.29,90.08,28.23L970,534.62Z" transform="translate(-887.3 -50.15)"/><path class="cls-3" d="M969,535l-36.73-45.39L889.53,359.78l0.56-.22Zm-36.18-45.63L966.6,531,891.89,365Z" transform="translate(-887.3 -50.15)"/><path class="cls-3" d="M1184.69,641.66h0l-51.78-7.28L1313,619.66l0.07,0.59Zm-46.39-7.13,46.39,6.52,121.22-20.22Z" transform="translate(-887.3 -50.15)"/><path class="cls-3" d="M1135.43,634.88l-44.5-109.19,0.52,0.08,188.6,27.74-0.76.43Zm-43.55-108.44L1135.73,634l142.52-80.17Z" transform="translate(-887.3 -50.15)"/><path class="cls-3" d="M1134.25,634.86l1.18-.67,143.84-80.93,0.14,0.27,34.07,66.68-0.45,0ZM1279,554.09l-142.12,80,175.62-14.35Z" transform="translate(-887.3 -50.15)"/><path class="cls-3" d="M1312.93,620.45l-0.19-.35-34-66.27,0.36-.1L1424.54,513l-0.85.82Zm-33.34-66.24,33.5,65.26,109.34-105.22Z" transform="translate(-887.3 -50.15)"/><path class="cls-3" d="M968,534.14L889.35,359.39h94l0,0.33ZM890.28,360L967.63,531.8,982.69,360H890.28Z" transform="translate(-887.3 -50.15)"/><path class="cls-3" d="M941.64,209.73l0.64-.75,111.91-130,0.2,0.41,43,87.23ZM1054.06,80L943.38,208.63l153.12-42.44Z" transform="translate(-887.3 -50.15)"/><path class="cls-3" d="M983.41,360h-94l0.14-.4,53-151.42Zm-93.17-.6h92.39L942.48,210.2Z" transform="translate(-887.3 -50.15)"/><path class="cls-3" d="M890.1,359.79l-0.57-.17,31.09-127.11,0.05-.06,22.61-24.54Zm31.06-127-29.58,121,50.18-143.3Z" transform="translate(-887.3 -50.15)"/><path class="cls-3" d="M919.77,234.31l16.43-34.53L1053.91,79.27l0.44,0.41L942.74,209.38Zm16.9-34.15L922,231l20.29-22L1047.7,86.48Z" transform="translate(-887.3 -50.15)"/><path class="cls-3" d="M982.91,360.45l-0.19-.69L942.15,209l0.29-.08,155.13-43-0.38.64Zm-40-151.06,40.24,149.53,113.17-192.05Z" transform="translate(-887.3 -50.15)"/><path class="cls-3" d="M1279.65,554.06l-0.55-.08L1090.94,526.3l0.2-.37,98.29-166.07,0.25,0.55Zm-187.78-28.22,186.78,27.47-89.26-192.1Z" transform="translate(-887.3 -50.15)"/><path class="cls-3" d="M1278.44,554.19l0.46-.67L1406.13,363l0.1,0.79,17.58,150.07-0.25.07Zm127.29-189.53L1279.86,553.18l143.3-39.75Z" transform="translate(-887.3 -50.15)"/><path class="cls-3" d="M1423.32,514.83l-17.73-152,78.13,2.11,0.1,0.41ZM1406.27,363.4l17.37,149.05,59.46-146.94Z" transform="translate(-887.3 -50.15)"/><path class="cls-3" d="M1406.33,365l-0.65-1L1294.51,188.13,1392,194.4l0,0.26Zm-110.7-176.23,109.9,173.81L1391.45,195Z" transform="translate(-887.3 -50.15)"/><path class="cls-3" d="M1483.58,365.51l-77.92-2.11-14.34-170.11Zm-77.37-2.71,76.84,2.11-90.9-168.82Z" transform="translate(-887.3 -50.15)"/><path class="cls-3" d="M1483.82,365.32l-0.54,0L1391,194l58.27,30.19,0,0.13ZM1392.45,195.4L1482.69,363l-33.95-138.42Z" transform="translate(-887.3 -50.15)"/></g><polygon class="cls-4" points="123.25 196.16 122.67 196.01 166.47 29.79 167.05 29.95 123.25 196.16"/><polygon class="cls-4" points="123.14 196.32 122.77 195.84 358.1 15.06 358.46 15.53 123.14 196.32"/><rect class="cls-4" x="1056.18" y="221.92" width="0.6" height="112.2" transform="translate(-658.6 940.78) rotate(-55.48)"/><polygon class="cls-4" points="215.57 259.91 215.23 259.42 335.49 176.26 335.83 176.75 215.57 259.91"/><polygon class="cls-4" points="335.96 176.55 335.36 176.47 357.98 15.25 358.57 15.34 335.96 176.55"/><rect class="cls-4" x="1138.21" y="41.5" width="0.6" height="223.68" transform="translate(-610.96 862.38) rotate(-49.04)"/><rect class="cls-4" x="1254.3" y="220.64" width="0.6" height="172.47" transform="translate(-912.39 431.63) rotate(-21.53)"/><polygon class="cls-4" points="398.83 337.22 215.29 259.94 215.52 259.39 399.06 336.67 398.83 337.22"/><rect class="cls-4" x="1031.05" y="371.7" width="125.62" height="0.6" transform="translate(-315.23 1352.7) rotate(-81.93)"/><rect class="cls-4" x="1082.3" y="410.34" width="206.66" height="0.6" transform="translate(-949.55 229.57) rotate(-13.11)"/><polygon class="cls-4" points="2.75 309.86 2.34 309.42 122.75 195.86 123.16 196.3 2.75 309.86"/><rect class="cls-4" x="1047.34" y="239.07" width="0.6" height="202.28" transform="translate(-938.86 361.16) rotate(-21.69)"/><polygon class="cls-4" points="480.37 207.77 335.6 176.8 335.72 176.21 480.49 207.18 480.37 207.77"/><polygon class="cls-4" points="399.2 337.11 398.69 336.79 480.17 207.31 480.68 207.63 399.2 337.11"/><rect class="cls-4" x="1306.35" y="47.67" width="0.6" height="227.72" transform="translate(-770.05 675.98) rotate(-32.44)"/><rect class="cls-4" x="1346.13" y="225.84" width="67.49" height="0.6" transform="translate(-214.2 1382.5) rotate(-68.95)"/><polygon class="cls-4" points="595.87 315.56 480.22 207.69 480.63 207.25 596.28 315.12 595.87 315.56"/><polygon class="cls-4" points="398.98 337.25 398.92 336.65 596.04 315.04 596.1 315.64 398.98 337.25"/><polygon class="cls-4" points="404.31 437.27 398.65 336.96 399.25 336.93 404.92 437.24 404.31 437.27"/><rect class="cls-4" x="1357.56" y="433.04" width="0.6" height="134.36" transform="translate(-279.51 1687.57) rotate(-79)"/><polygon class="cls-4" points="404.77 437.51 404.45 437 595.91 315.09 596.23 315.59 404.77 437.51"/><polygon class="cls-4" points="425.46 569.56 404.32 437.31 404.91 437.21 426.05 569.46 425.46 569.56"/><rect class="cls-4" x="1106.17" y="560.83" width="215.02" height="0.6" transform="translate(-941.47 935.79) rotate(-43.34)"/><rect class="cls-4" x="1188.17" y="353.98" width="0.6" height="213.63" transform="translate(-441.17 1446.85) rotate(-75.57)"/><rect class="cls-4" x="1011.18" y="493.43" width="121.85" height="0.6" transform="translate(-524.19 1387.24) rotate(-77.81)"/><polygon class="cls-4" points="247.91 584.92 171.68 503.32 172.12 502.92 248.35 584.51 247.91 584.92"/><rect class="cls-4" x="1023.63" y="579.11" width="54.79" height="0.6" transform="translate(-702.11 1360.35) rotate(-72.69)"/><polygon class="cls-4" points="171.83 503.41 80.69 482.79 80.82 482.21 171.97 502.83 171.83 503.41"/><rect class="cls-4" x="1054.63" y="520.04" width="241.86" height="0.6" transform="translate(-984.5 289.18) rotate(-15.78)"/><polygon class="cls-4" points="171.67 503.32 73.63 388.86 74.09 388.47 172.13 502.93 171.67 503.32"/><rect class="cls-4" x="961.12" y="436.2" width="123.95" height="0.6" transform="matrix(1, -0.04, 0.04, 1, -902.82, -11.81)"/><rect class="cls-4" x="886.34" y="342.22" width="198.75" height="0.6" transform="translate(-476.17 1163.47) rotate(-75.75)"/><polygon class="cls-4" points="73.64 388.87 2.32 309.84 2.77 309.44 74.08 388.47 73.64 388.87"/><polygon class="cls-4" points="45.42 439.53 44.89 439.26 73.59 388.53 74.13 388.8 45.42 439.53"/><polygon class="cls-4" points="122.79 196.33 48.94 149.77 49.26 149.26 123.12 195.83 122.79 196.33"/><polygon class="cls-4" points="247.22 100.47 246.69 100.19 297.38 4.09 297.91 4.37 247.22 100.47"/><polygon class="cls-4" points="335.88 176.71 335.44 176.3 454.85 51.48 455.29 51.89 335.88 176.71"/><circle class="cls-4" cx="215.57" cy="259.42" r="3.19"/><circle class="cls-4" cx="122.79" cy="196.16" r="3.19"/><circle class="cls-4" cx="197.65" cy="383.74" r="3.19"/><circle class="cls-4" cx="73.63" cy="388.87" r="3.19"/><circle class="cls-4" cx="171.97" cy="502.92" r="3.19"/><circle class="cls-4" cx="404.56" cy="436.96" r="3.19"/><circle class="cls-4" cx="398.65" cy="336.66" r="3.19"/><circle class="cls-4" cx="335.86" cy="176.55" r="3.19"/><circle class="cls-4" cx="480.15" cy="207.58" r="3.19"/><circle class="cls-4" cx="248.02" cy="100.47" r="3.19"/><circle class="cls-3" cx="595.45" cy="315.2" r="3.95"/><circle class="cls-3" cx="518.29" cy="312.65" r="4.85"/><circle class="cls-3" cx="391.14" cy="504.14" r="4.85"/><circle class="cls-3" cx="536.51" cy="462.22" r="4.85"/><circle class="cls-3" cx="425.76" cy="570.3" r="3.53"/><circle class="cls-3" cx="296.73" cy="591.52" r="2.69"/><circle class="cls-3" cx="247.42" cy="584.72" r="4.85"/><circle class="cls-3" cx="154.6" cy="555.61" r="3.07"/><circle class="cls-3" cx="203.63" cy="476.51" r="4.85"/><circle class="cls-3" cx="79.97" cy="483.14" r="4.85"/><circle class="cls-3" cx="46.04" cy="440.19" r="2.93"/><circle class="cls-3" cx="302.53" cy="309.84" r="4.85"/><circle class="cls-3" cx="96.11" cy="310.43" r="4.85"/><circle class="cls-3" cx="2.9" cy="309.42" r="2.9"/><circle class="cls-3" cx="55.71" cy="159.59" r="4.85"/><circle class="cls-3" cx="210.06" cy="116.67" r="4.85"/><circle class="cls-3" cx="167.05" cy="29.99" r="4.85"/><circle class="cls-3" cx="298.3" cy="3.55" r="3.55"/><circle class="cls-3" cx="358.28" cy="16.49" r="4.85"/><circle class="cls-3" cx="407.53" cy="137.78" r="4.85"/><circle class="cls-3" cx="454.11" cy="50.58" r="4.14"/><circle class="cls-3" cx="504.01" cy="144.89" r="4.85"/><circle class="cls-3" cx="536.73" cy="132.93" r="3.42"/><circle class="cls-3" cx="562.53" cy="174.1" r="4.85"/><circle class="cls-3" cx="49.1" cy="148.7" r="3.32"/><circle class="cls-3" cx="32.47" cy="183.06" r="2.93"/></g></g></svg>