<svg xmlns="http://www.w3.org/2000/svg" viewBox="0 0 599.4 594.2">
  <defs>
    <style>
      .cls-1{isolation:isolate;}.cls-2{mix-blend-mode:hard-light;}.cls-3{fill:#d4306e;}.cls-4{fill:#24ae5f;}
    </style>
  </defs>
  <g class="cls-1">
    <g id="Layer_1" data-name="Layer 1">
      <g class="cls-2">
        <path class="cls-3" d="M95.18 309.85L209.7 115.59l.24.51 92.63 194.34h-.45zm114.42-193L96.25 309.21l205.35.64z"/>
        <path class="cls-3" d="M302.02 310.76l-.22-.47-92.67-194.44.54.06 198.64 22.15-.28.41zm-91.88-194.17l92 193 105.13-171z"/>
        <path class="cls-3" d="M408.24 138.67l-.5-.06-198.95-22.18.67-.46 148.47-101 .14.34zm-197.77-22.65l196.83 21.95-49.65-122.12z"/>
        <path class="cls-3" d="M209.51 116.67l-.15-.31-43-87.3h.44l192.08-14zm-42.22-87.08l42.41 86.19 147-99.93z"/>
        <path class="cls-3" d="M166.85 29.63l-.08-.59L297.38 4.09h.06l62.72 11.47zM297.39 4.7l-125.44 24 183.47-13.35z"/>
        <path class="cls-3" d="M505.28 144.85l-97.76-6.33-.07-.18-50.41-124zm-97.34-6.91l95.63 6.2-145-127.69z"/>
        <path class="cls-3" d="M505.11 145.85L356.36 14.58l99.16 37.38.05.1zM359.21 16.29l143.84 126.94-47.95-90.79z"/>
        <path class="cls-3" d="M504.28 144.91l-50.17-94.33 82.59 82.34zm-47.77-91.06l48.05 90.35 31.07-11.48z"/>
        <path class="cls-3" d="M562.53 174.98l-58.83-30.49 32.62-12.06zm-57.37-30.4l55.72 28.87-24.83-40.29zm14.04 168.71h-.59l-217.09-2.82.3-.43 106-172.22.24.39zm-216.6-3.44l215.46 2.71-110.3-173.71z"/>
        <path class="cls-3" d="M391.8 504.14l-.22-.49-90-193.83 217.59 2.9-.29.43zm-89.25-193.65l89.36 192.43 126.18-189.67z"/>
        <path class="cls-3" d="M204.13 476.51l-.28-.43L95.18 309.26h.52l206.87.82-.25.46zM96.25 309.85l107.83 165.52 97.47-164.62z"/>
        <path class="cls-3" d="M80.2 483.14v-.34l15.29-174.15.48.73L204.64 476.2h-.52zm15.74-172.71L80.86 482.5l122.72-6.86z"/>
        <path class="cls-3" d="M248.9 585.03L79.54 482.58l1-.06 123.79-6.92.08.2zm-167.39-102L247.7 583.58l-43.75-107.35z"/>
        <path class="cls-3" d="M250.56 585.33l-95-29.81-77.17-74.35zm-94.63-30.29l90.08 28.23-163.31-98.8z"/>
        <path class="cls-3" d="M81.7 484.85l-36.73-45.39L2.23 309.63l.56-.22zm-36.18-45.63l33.78 41.63-74.71-166zm251.87 152.29l-51.78-7.28 180.09-14.72.07.59zM251 584.38l46.39 6.52 121.22-20.22z"/>
        <path class="cls-3" d="M248.13 584.73l-44.5-109.19.52.08 188.6 27.74-.76.43zm-43.55-108.44l43.85 107.56 142.52-80.17z"/>
        <path class="cls-3" d="M246.95 584.71l1.18-.67 143.84-80.93.14.27 34.07 66.68h-.45zm144.75-80.77l-142.12 80 175.62-14.35z"/>
        <path class="cls-3" d="M425.63 570.3l-.19-.35-34-66.27.36-.1 145.44-40.73-.85.82zm-33.34-66.24l33.5 65.26L535.13 464.1zM80.7 483.99L2.05 309.24h94v.33zM2.98 309.85l77.35 171.8 15.06-171.8H2.98zm51.36-150.27l.64-.75 111.91-130 .2.41 43 87.23zM166.76 29.85L56.08 158.48l153.12-42.44z"/>
        <path class="cls-3" d="M96.11 309.85h-94l.14-.4 53-151.42zm-93.17-.6h92.39l-40.15-149.2z"/>
        <path class="cls-3" d="M2.8 309.64l-.57-.17 31.09-127.11.05-.06 22.61-24.54zm31.06-127l-29.58 121 50.18-143.3z"/>
        <path class="cls-3" d="M32.47 184.16l16.43-34.53L166.61 29.12l.44.41-111.61 129.7zm16.9-34.15L34.7 180.85l20.29-22L160.4 36.33z"/>
        <path class="cls-3" d="M95.61 310.3l-.19-.69-40.57-150.76.29-.08 155.13-43-.38.64zm-40-151.06l40.24 149.53 113.17-192.05zm336.74 344.67l-.55-.08-188.16-27.68.2-.37 98.29-166.07.25.55zm-187.78-28.22l186.78 27.47-89.26-192.1z"/>
        <path class="cls-3" d="M391.14 504.04l.46-.67 127.23-190.52.1.79 17.58 150.07-.25.07zm127.29-189.53L392.56 503.03l143.3-39.75z"/>
        <path class="cls-3" d="M536.02 464.68l-17.73-152 78.13 2.11.1.41zm-17.05-151.43l17.37 149.05 59.46-146.94z"/>
        <path class="cls-3" d="M519.03 314.85l-.65-1-111.17-175.87 97.49 6.27v.26zm-110.7-176.23l109.9 173.81-14.08-167.58z"/>
        <path class="cls-3" d="M596.28 315.36l-77.92-2.11-14.34-170.11zm-77.37-2.71l76.84 2.11-90.9-168.82z"/>
        <path class="cls-3" d="M596.52 315.17h-.54L503.7 143.85l58.27 30.19v.13zm-91.37-169.92l90.24 167.6-33.95-138.42z"/>
      </g>
      <path class="cls-4" d="M123.25 196.16l-.58-.15 43.8-166.22.58.16-43.8 166.21z"/>
      <path class="cls-4" d="M123.14 196.32l-.37-.48L358.1 15.06l.36.47-235.32 180.79z"/>
      <path class="cls-4" d="M122.777 196.324l.34-.494 92.445 63.583-.34.494z"/>
      <path class="cls-4" d="M215.57 259.91l-.34-.49 120.26-83.16.34.49-120.26 83.16z"/>
      <path class="cls-4" d="M335.96 176.55l-.6-.08 22.62-161.22.59.09-22.61 161.21z"/>
      <path class="cls-4" d="M166.513 30.045l.393-.453 168.916 146.63-.394.453z"/>
      <path class="cls-4" d="M335.364 176.56l.558-.22 63.295 160.437-.558.22z"/>
      <path class="cls-4" d="M398.83 337.22l-183.54-77.28.23-.55 183.54 77.28-.23.55z"/>
      <path class="cls-4" d="M197.53 384.04l17.636-124.376.594.085-17.635 124.373z"/>
      <path class="cls-4" d="M197.615 383.726L398.89 336.85l.135.586L197.75 384.31zM2.75 309.86l-.41-.44 120.41-113.56.41.44L2.75 309.86z"/>
      <path class="cls-4" d="M122.682 196.222l.557-.22L198 383.958l-.56.22zM480.37 207.77L335.6 176.8l.12-.59 144.77 30.97-.12.59z"/>
      <path class="cls-4" d="M399.2 337.11l-.51-.32 81.48-129.48.51.32-81.48 129.48z"/>
      <path class="cls-4" d="M358.02 15.464l.506-.322L480.68 207.327l-.508.322z"/>
      <path class="cls-4" d="M480.075 207.32l24.242-62.988.56.216-24.242 62.986z"/>
      <path class="cls-4" d="M595.87 315.56L480.22 207.69l.41-.44 115.65 107.87-.41.44z"/>
      <path class="cls-4" d="M398.98 337.25l-.06-.6 197.12-21.61.06.6-197.12 21.61z"/>
      <path class="cls-4" d="M404.31 437.27l-5.66-100.31.6-.03 5.67 100.31-.61.03z"/>
      <path class="cls-4" d="M404.608 437.58l.115-.59 131.89 25.638-.113.59z"/>
      <path class="cls-4" d="M404.77 437.51l-.32-.51 191.46-121.91.32.5-191.46 121.92z"/>
      <path class="cls-4" d="M425.46 569.56l-21.14-132.25.59-.1 21.14 132.25-.59.1z"/>
      <path class="cls-4" d="M247.953 584.485L404.336 436.91l.41.437-156.38 147.574z"/>
      <path class="cls-4" d="M197.73 384.374l.15-.58 206.89 53.235-.148.58z"/>
      <path class="cls-4" d="M171.63 503.05l25.73-119.103.585.126-25.73 119.103z"/>
      <path class="cls-4" d="M247.91 584.92l-76.23-81.6.44-.4 76.23 81.59-.44.41z"/>
      <path class="cls-4" d="M155.344 555.39l16.302-52.308.573.18-16.305 52.307z"/>
      <path class="cls-4" d="M171.83 503.41l-91.14-20.62.13-.58 91.15 20.62-.14.58z"/>
      <path class="cls-4" d="M171.806 502.82l232.744-65.77.164.577L171.97 503.4z"/>
      <path class="cls-4" d="M171.67 503.32L73.63 388.86l.46-.39 98.04 114.46-.46.39zM75.748 385.945l123.95-4.958.024.6-123.95 4.958z"/>
      <path class="cls-4" d="M73.696 388.64l48.923-192.634.58.148-48.925 192.634z"/>
      <path class="cls-4" d="M73.64 388.87L2.32 309.84l.45-.4 71.31 79.03-.44.4z"/>
      <path class="cls-4" d="M45.42 439.53l-.53-.27 28.7-50.73.54.27-28.71 50.73zm77.37-243.2l-73.85-46.56.32-.51 73.86 46.57-.33.5zm124.43-95.86l-.53-.28 50.69-96.1.53.28-50.69 96.1zm88.66 76.24l-.44-.41L454.85 51.48l.44.41-119.41 124.82z"/>
      <circle class="cls-4" cx="215.57" cy="259.42" r="3.19"/>
      <circle class="cls-4" cx="122.79" cy="196.16" r="3.19"/>
      <circle class="cls-4" cx="197.65" cy="383.74" r="3.19"/>
      <circle class="cls-4" cx="73.63" cy="388.87" r="3.19"/>
      <circle class="cls-4" cx="171.97" cy="502.92" r="3.19"/>
      <circle class="cls-4" cx="404.56" cy="436.96" r="3.19"/>
      <circle class="cls-4" cx="398.65" cy="336.66" r="3.19"/>
      <circle class="cls-4" cx="335.86" cy="176.55" r="3.19"/>
      <circle class="cls-4" cx="480.15" cy="207.58" r="3.19"/>
      <circle class="cls-4" cx="248.02" cy="100.47" r="3.19"/>
      <circle class="cls-3" cx="595.45" cy="315.2" r="3.95"/>
      <circle class="cls-3" cx="518.29" cy="312.65" r="4.85"/>
      <circle class="cls-3" cx="391.14" cy="504.14" r="4.85"/>
      <circle class="cls-3" cx="536.51" cy="462.22" r="4.85"/>
      <circle class="cls-3" cx="425.76" cy="570.3" r="3.53"/>
      <circle class="cls-3" cx="296.73" cy="591.52" r="2.69"/>
      <circle class="cls-3" cx="247.42" cy="584.72" r="4.85"/>
      <circle class="cls-3" cx="154.6" cy="555.61" r="3.07"/>
      <circle class="cls-3" cx="203.63" cy="476.51" r="4.85"/>
      <circle class="cls-3" cx="79.97" cy="483.14" r="4.85"/>
      <circle class="cls-3" cx="46.04" cy="440.19" r="2.93"/>
      <circle class="cls-3" cx="302.53" cy="309.84" r="4.85"/>
      <circle class="cls-3" cx="96.11" cy="310.43" r="4.85"/>
      <circle class="cls-3" cx="2.9" cy="309.42" r="2.9"/>
      <circle class="cls-3" cx="55.71" cy="159.59" r="4.85"/>
      <circle class="cls-3" cx="210.06" cy="116.67" r="4.85"/>
      <circle class="cls-3" cx="167.05" cy="29.99" r="4.85"/>
      <circle class="cls-3" cx="298.3" cy="3.55" r="3.55"/>
      <circle class="cls-3" cx="358.28" cy="16.49" r="4.85"/>
      <circle class="cls-3" cx="407.53" cy="137.78" r="4.85"/>
      <circle class="cls-3" cx="454.11" cy="50.58" r="4.14"/>
      <circle class="cls-3" cx="504.01" cy="144.89" r="4.85"/>
      <circle class="cls-3" cx="536.73" cy="132.93" r="3.42"/>
      <circle class="cls-3" cx="562.53" cy="174.1" r="4.85"/>
      <circle class="cls-3" cx="49.1" cy="148.7" r="3.32"/>
      <circle class="cls-3" cx="32.47" cy="183.06" r="2.93"/>
    </g>
  </g>
</svg>
