<svg width="495" height="300" viewBox="0 0 495 300" xmlns="http://www.w3.org/2000/svg">
  <g fill="none" fill-rule="evenodd">
    <circle fill="#D32F6E" cx="345" cy="150" r="150"/>
    <circle fill="#27AE60" cx="150" cy="150" r="150"/>
    <path d="M27.66 143l-7.675-21.475h4.703l5.434 15.894 5.26-15.9h4.598L32.29 143h-4.63zm14.79-17.666v-3.81h4.117v3.81H42.45zm0 17.666v-15.557h4.117V143H42.45zm7.715-4.438l4.13-.63c.177.8.534 1.408 1.07 1.823.538.415 1.29.623 2.256.623 1.07 0 1.87-.195 2.41-.586.36-.273.54-.64.54-1.1 0-.31-.1-.57-.29-.775-.2-.195-.66-.376-1.37-.542-3.32-.732-5.42-1.4-6.31-2.007-1.23-.84-1.84-2.007-1.84-3.5 0-1.348.53-2.48 1.6-3.4 1.07-.917 2.72-1.376 4.96-1.376 2.13 0 3.71.346 4.75 1.04 1.04.693 1.75 1.72 2.14 3.076l-3.88.718c-.16-.606-.48-1.07-.94-1.392-.46-.322-1.12-.483-1.98-.483-1.08 0-1.86.16-2.33.46-.31.22-.46.5-.46.84 0 .3.14.55.41.75.37.28 1.66.66 3.85 1.16 2.19.5 3.72 1.11 4.59 1.83.86.74 1.29 1.76 1.29 3.07 0 1.43-.6 2.65-1.79 3.68-1.19 1.03-2.95 1.54-5.29 1.54-2.12 0-3.79-.43-5.03-1.29-1.23-.86-2.04-2.02-2.42-3.5zM79.37 143v-2.33c-.567.83-1.312 1.485-2.235 1.964-.922.478-1.897.718-2.922.718-1.045 0-1.982-.23-2.813-.69-.83-.458-1.43-1.102-1.8-1.933-.372-.83-.558-1.98-.558-3.45v-9.85h4.116v7.15c0 2.18.076 3.52.227 4.02.152.49.428.88.828 1.17.4.28.908.43 1.523.43.704 0 1.333-.19 1.89-.58.557-.39.938-.86 1.143-1.44.2-.57.3-1.97.3-4.2v-6.57h4.11V143h-3.82zm11.99-10.81l-3.734-.674c.42-1.504 1.142-2.618 2.168-3.34 1.025-.723 2.55-1.084 4.57-1.084 1.836 0 3.203.217 4.102.652.898.434 1.53.986 1.897 1.655.366.66.55 1.89.55 3.68l-.045 4.8c0 1.36.066 2.37.198 3.02.132.65.378 1.34.74 2.08h-4.073c-.107-.28-.24-.68-.395-1.22-.07-.24-.117-.41-.147-.48-.7.68-1.45 1.19-2.25 1.54-.8.34-1.65.51-2.56.51-1.6 0-2.86-.44-3.78-1.31-.92-.87-1.38-1.97-1.38-3.3 0-.88.21-1.66.63-2.35.42-.69 1.01-1.22 1.77-1.58.76-.37 1.85-.69 3.28-.96 1.93-.37 3.26-.7 4-1.01v-.42c0-.79-.19-1.36-.58-1.69-.39-.34-1.12-.51-2.21-.51-.73 0-1.3.14-1.71.43-.41.29-.74.79-.99 1.52zm5.51 3.34c-.528.175-1.363.385-2.506.63-1.143.243-1.89.483-2.24.717-.538.38-.807.864-.807 1.45 0 .576.215 1.074.645 1.494.43.42.976.63 1.64.63.743 0 1.45-.24 2.124-.73.498-.37.826-.82.982-1.36.107-.35.16-1.02.16-2v-.82zm8.93 7.47v-21.475h4.116V143H105.8zm-83.632 11.625h7.925c1.787 0 3.15.137 4.087.41 1.26.372 2.34 1.03 3.237 1.978.898.947 1.582 2.107 2.05 3.48.47 1.37.704 3.063.704 5.075 0 1.767-.22 3.29-.65 4.57-.53 1.563-1.3 2.827-2.3 3.794-.75.732-1.77 1.304-3.04 1.714-.95.303-2.23.454-3.84.454h-8.16v-21.475zm4.336 3.633v14.224h3.237c1.22 0 2.09-.07 2.63-.205.71-.176 1.29-.474 1.75-.894.47-.42.85-1.11 1.14-2.073.3-.96.44-2.272.44-3.933 0-1.66-.14-2.934-.44-3.823-.29-.89-.7-1.582-1.23-2.08s-1.19-.835-2-1.01c-.6-.137-1.79-.206-3.56-.206h-1.95zm27.153 12.89l4.1.69c-.526 1.503-1.358 2.648-2.496 3.434-1.13.787-2.56 1.18-4.27 1.18-2.7 0-4.7-.884-6-2.652-1.02-1.416-1.54-3.203-1.54-5.36 0-2.58.68-4.598 2.02-6.058 1.35-1.46 3.06-2.19 5.12-2.19 2.32 0 4.14.764 5.48 2.292 1.34 1.53 1.98 3.87 1.92 7.024H47.67c.03 1.22.36 2.17.996 2.85.635.678 1.426 1.017 2.373 1.017.64 0 1.18-.175 1.62-.527.44-.352.77-.918 1-1.7zm.234-4.16c-.02-1.19-.33-2.096-.92-2.717-.58-.62-1.3-.93-2.14-.93-.9 0-1.64.33-2.22.99-.58.66-.87 1.55-.86 2.67h6.15zm6.83 4.674l4.13-.63c.18.8.54 1.408 1.07 1.823.54.415 1.29.623 2.26.623 1.07 0 1.87-.195 2.41-.586.36-.273.55-.64.55-1.1 0-.31-.1-.57-.29-.775-.2-.195-.66-.376-1.38-.542-3.32-.732-5.42-1.4-6.31-2.007-1.23-.84-1.84-2.007-1.84-3.5 0-1.348.54-2.48 1.6-3.4 1.07-.917 2.72-1.376 4.95-1.376 2.13 0 3.71.346 4.75 1.04 1.03.693 1.75 1.72 2.14 3.076l-3.88.718c-.16-.606-.48-1.07-.94-1.392-.46-.322-1.13-.483-1.98-.483-1.08 0-1.86.16-2.33.46-.31.22-.47.5-.47.84 0 .3.14.55.41.75.37.28 1.66.66 3.85 1.16 2.19.5 3.72 1.11 4.59 1.83.86.74 1.29 1.76 1.29 3.07 0 1.43-.6 2.65-1.79 3.68-1.19 1.03-2.95 1.54-5.29 1.54-2.12 0-3.79-.43-5.03-1.29-1.24-.86-2.04-2.02-2.42-3.5zm18.97-13.228v-3.81h4.11v3.81h-4.12zm0 17.666v-15.557h4.11V176.1h-4.12zm8.79 1.025l4.71.572c.08.547.26.923.54 1.128.39.293 1.01.44 1.85.44 1.08 0 1.88-.162 2.42-.484.36-.21.64-.56.82-1.04.13-.34.19-.97.19-1.89v-2.27c-1.23 1.68-2.78 2.52-4.65 2.52-2.09 0-3.74-.88-4.96-2.65-.96-1.39-1.43-3.13-1.43-5.21 0-2.61.63-4.6 1.88-5.97s2.82-2.06 4.68-2.06c1.93 0 3.51.85 4.76 2.54v-2.18h3.86v13.96c0 1.84-.15 3.21-.45 4.12-.3.91-.73 1.62-1.27 2.14-.55.52-1.28.93-2.19 1.22-.916.3-2.07.44-3.467.44-2.634 0-4.504-.45-5.61-1.35-1.1-.9-1.653-2.05-1.653-3.43 0-.13 0-.3.01-.5zM92.14 168c0 1.65.32 2.858.96 3.625.64.767 1.427 1.15 2.365 1.15 1.006 0 1.855-.393 2.55-1.18.692-.786 1.04-1.95 1.04-3.493 0-1.61-.333-2.808-.998-3.59-.664-.78-1.503-1.17-2.52-1.17-.985 0-1.798.383-2.438 1.15-.64.766-.96 1.935-.96 3.507zm30.01 8.1h-4.117v-7.94c0-1.68-.087-2.766-.263-3.26-.176-.492-.46-.875-.857-1.15-.395-.272-.87-.41-1.428-.41-.713 0-1.353.197-1.92.587-.565.39-.954.908-1.164 1.553-.21.644-.31 1.836-.31 3.574v7.046h-4.11v-15.557h3.83v2.286c1.36-1.76 3.07-2.64 5.13-2.64.91 0 1.74.16 2.49.49.76.33 1.33.74 1.71 1.25.39.51.66 1.08.81 1.73.15.64.23 1.57.23 2.77v9.66zm14.012-4.95l4.102.687c-.527 1.504-1.36 2.65-2.498 3.435-1.137.787-2.56 1.18-4.27 1.18-2.705 0-4.707-.884-6.006-2.652-1.025-1.416-1.538-3.203-1.538-5.36 0-2.58.674-4.598 2.022-6.058 1.348-1.46 3.052-2.19 5.112-2.19 2.315 0 4.14.764 5.48 2.292 1.337 1.53 1.976 3.87 1.918 7.024H130.17c.028 1.22.36 2.17.995 2.85.635.678 1.426 1.017 2.373 1.017.645 0 1.187-.175 1.626-.527.44-.352.772-.918.996-1.7zm.235-4.16c-.03-1.193-.337-2.098-.923-2.72-.586-.62-1.3-.93-2.14-.93-.897 0-1.64.328-2.225.983-.59.654-.88 1.543-.87 2.666h6.15zm12.21 9.11h-4.115v-15.557h3.823v2.212c.655-1.045 1.243-1.733 1.766-2.065.52-.332 1.12-.498 1.78-.498.94 0 1.84.26 2.71.776l-1.27 3.59c-.69-.45-1.34-.675-1.93-.675-.57 0-1.06.16-1.46.476-.4.31-.71.89-.94 1.72-.23.83-.34 2.57-.34 5.21v4.8zm186.17-33.1v-21.475H349.5v3.633h-10.386v5.083h8.965v3.64h-8.97V143h-4.34zm23.038 0H353.7v-15.557h3.822v2.212c.654-1.045 1.243-1.733 1.765-2.065.522-.332 1.116-.498 1.78-.498.937 0 1.84.26 2.71.776l-1.275 3.59c-.693-.45-1.338-.675-1.933-.675-.58 0-1.07.16-1.47.476-.4.31-.72.89-.95 1.72-.23.83-.35 2.57-.35 5.21V143zm7.612-7.998c0-1.367.337-2.69 1.01-3.97.674-1.28 1.63-2.256 2.864-2.93 1.24-.673 2.62-1.01 4.14-1.01 2.36 0 4.29.764 5.79 2.292 1.51 1.53 2.26 3.46 2.26 5.794 0 2.353-.76 4.304-2.28 5.852-1.52 1.548-3.43 2.322-5.73 2.322-1.42 0-2.78-.323-4.08-.967-1.29-.645-2.28-1.59-2.95-2.835-.67-1.245-1.01-2.76-1.01-4.548zm4.22.22c0 1.543.365 2.724 1.097 3.545.733.82 1.636 1.23 2.71 1.23s1.975-.41 2.703-1.23c.727-.82 1.09-2.012 1.09-3.575 0-1.523-.363-2.695-1.09-3.515-.728-.82-1.63-1.23-2.703-1.23-1.074 0-1.977.41-2.71 1.23-.732.82-1.098 2.002-1.098 3.545zM399.683 143h-4.116v-7.94c0-1.68-.088-2.766-.264-3.26-.175-.492-.46-.875-.856-1.15-.396-.272-.872-.41-1.43-.41-.712 0-1.35.197-1.918.587-.57.39-.96.908-1.17 1.553-.21.644-.32 1.836-.32 3.574V143h-4.11v-15.557h3.82v2.286c1.35-1.76 3.06-2.64 5.12-2.64.91 0 1.74.16 2.49.49.76.33 1.32.74 1.71 1.25.39.51.65 1.08.81 1.73.15.64.22 1.57.22 2.77V143zm12.14-15.557v3.282h-2.814v6.27c0 1.27.02 2.008.08 2.218.05.21.17.384.36.52.19.137.42.205.69.205.38 0 .93-.13 1.65-.395l.35 3.193c-.96.41-2.04.616-3.26.616-.74 0-1.41-.125-2.01-.374-.6-.25-1.04-.57-1.31-.967-.28-.39-.47-.93-.58-1.6-.09-.48-.13-1.44-.13-2.9v-6.78h-1.89v-3.28h1.89v-3.09l4.13-2.4v5.5h2.81zm3.216 9.83v-4.117h8.08v4.116h-8.09zm20.29.776l4.1.68c-.53 1.5-1.36 2.65-2.5 3.43-1.14.78-2.56 1.18-4.27 1.18-2.71 0-4.71-.89-6.01-2.65-1.03-1.42-1.54-3.21-1.54-5.36 0-2.58.67-4.6 2.02-6.06s3.05-2.19 5.11-2.19c2.31 0 4.14.76 5.48 2.29 1.34 1.53 1.98 3.87 1.92 7.02h-10.31c.03 1.22.36 2.17.99 2.85.63.68 1.42 1.01 2.37 1.01.64 0 1.18-.18 1.62-.53.44-.35.77-.92.99-1.7zm.23-4.16c-.03-1.2-.34-2.1-.93-2.72-.59-.62-1.3-.93-2.14-.93-.9 0-1.64.32-2.23.98-.59.65-.88 1.54-.87 2.66h6.15zm22.43 9.11h-4.12v-7.94c0-1.68-.09-2.77-.27-3.26-.18-.5-.47-.88-.86-1.15-.4-.28-.88-.41-1.43-.41-.72 0-1.36.19-1.92.58-.57.39-.96.91-1.17 1.55-.21.64-.32 1.83-.32 3.57V143h-4.11v-15.557h3.82v2.286c1.36-1.76 3.06-2.64 5.12-2.64.91 0 1.74.16 2.49.49.75.33 1.32.74 1.71 1.25.38.51.65 1.08.8 1.73.15.64.22 1.57.22 2.77V143zm19.27 0h-3.83v-2.29c-.64.89-1.39 1.55-2.25 1.98-.87.43-1.74.65-2.62.65-1.79 0-3.32-.72-4.6-2.16-1.28-1.44-1.91-3.45-1.91-6.03 0-2.64.62-4.64 1.86-6.01 1.24-1.38 2.81-2.06 4.7-2.06 1.73 0 3.24.72 4.51 2.17v-7.74h4.11V143zm-10.99-8.12c0 1.66.23 2.86.68 3.6.66 1.07 1.59 1.61 2.78 1.61.95 0 1.75-.41 2.41-1.21.66-.81 1-2.01 1-3.61 0-1.79-.32-3.08-.97-3.86-.65-.79-1.47-1.18-2.48-1.18-.98 0-1.8.39-2.46 1.16-.66.77-.99 1.93-.99 3.48zm-136.64 19.74h7.92c1.78 0 3.15.13 4.08.41 1.26.37 2.34 1.03 3.24 1.98.9.94 1.58 2.1 2.05 3.48.47 1.37.7 3.06.7 5.07 0 1.76-.22 3.29-.66 4.57-.54 1.56-1.31 2.82-2.3 3.79-.76.73-1.77 1.3-3.05 1.71-.96.3-2.24.45-3.84.45h-8.16V154.6zm4.33 3.63v14.22h3.24c1.21 0 2.08-.07 2.62-.21.7-.18 1.28-.48 1.75-.9.46-.42.84-1.11 1.13-2.07.29-.96.44-2.27.44-3.94 0-1.66-.15-2.94-.44-3.83-.29-.89-.7-1.58-1.23-2.08s-1.19-.84-2.01-1.01c-.61-.14-1.8-.21-3.56-.21h-1.95zm27.15 12.89l4.1.69c-.53 1.5-1.36 2.65-2.5 3.43-1.14.78-2.56 1.18-4.27 1.18-2.71 0-4.71-.89-6.01-2.65-1.03-1.42-1.54-3.21-1.54-5.36 0-2.58.67-4.6 2.02-6.06s3.05-2.19 5.11-2.19c2.31 0 4.14.76 5.48 2.29s1.97 3.87 1.92 7.02h-10.31c.03 1.22.36 2.17.99 2.85.63.68 1.42 1.01 2.37 1.01.64 0 1.18-.18 1.62-.53.44-.35.77-.92.99-1.7zm.23-4.16c-.03-1.19-.34-2.1-.93-2.72-.59-.62-1.3-.93-2.14-.93-.9 0-1.64.32-2.23.98-.59.65-.88 1.54-.87 2.66h6.16zm12.54 9.11l-6.27-15.56h4.33l2.93 7.94.85 2.65c.22-.68.36-1.12.42-1.34.13-.44.28-.88.44-1.32l2.96-7.94h4.23l-6.18 15.56h-3.7zm22.25-4.95l4.1.68c-.53 1.5-1.36 2.65-2.5 3.43-1.14.78-2.56 1.18-4.27 1.18-2.71 0-4.71-.89-6.01-2.65-1.02-1.42-1.54-3.21-1.54-5.36 0-2.58.67-4.6 2.02-6.06 1.34-1.46 3.05-2.19 5.11-2.19 2.31 0 4.14.76 5.48 2.29 1.33 1.53 1.97 3.87 1.92 7.02h-10.31c.03 1.22.36 2.17.99 2.85.63.68 1.42 1.01 2.37 1.01.64 0 1.18-.17 1.62-.52.44-.35.77-.92.99-1.7zm.23-4.16c-.03-1.2-.34-2.1-.92-2.72-.59-.62-1.3-.93-2.14-.93-.9 0-1.64.32-2.23.98-.59.65-.88 1.54-.87 2.66h6.15zm8.27 9.11v-21.47h4.11v21.48h-4.12zm8.21-8c0-1.37.33-2.69 1.01-3.97.67-1.28 1.63-2.26 2.86-2.93 1.23-.67 2.61-1.01 4.14-1.01 2.35 0 4.28.76 5.78 2.29s2.25 3.46 2.25 5.79c0 2.35-.76 4.3-2.28 5.85-1.52 1.54-3.43 2.32-5.74 2.32-1.42 0-2.78-.33-4.08-.97-1.29-.64-2.27-1.59-2.95-2.83-.67-1.24-1.01-2.76-1.01-4.55zm4.22.22c0 1.54.36 2.72 1.1 3.54.73.82 1.63 1.23 2.71 1.23 1.07 0 1.97-.41 2.7-1.23.73-.82 1.09-2.01 1.09-3.58 0-1.53-.37-2.7-1.09-3.52-.73-.82-1.63-1.23-2.7-1.23-1.08 0-1.98.41-2.71 1.23-.74.82-1.1 2-1.1 3.54zm15.77-7.78h3.84v2.29c.49-.79 1.17-1.42 2.02-1.91.85-.49 1.79-.74 2.82-.74 1.8 0 3.34.71 4.6 2.12 1.26 1.42 1.89 3.39 1.89 5.92 0 2.6-.64 4.62-1.91 6.06-1.27 1.44-2.81 2.16-4.62 2.16-.86 0-1.64-.17-2.33-.51-.7-.35-1.43-.93-2.21-1.76V182h-4.12v-21.47zm4.07 7.51c0 1.75.35 3.04 1.04 3.87.69.83 1.54 1.25 2.53 1.25.95 0 1.75-.39 2.38-1.15.63-.77.95-2.03.95-3.77 0-1.63-.33-2.85-.99-3.64s-1.47-1.19-2.43-1.19c-1.01 0-1.84.39-2.51 1.16-.66.77-.998 1.92-.998 3.45zm24.21 3.09l4.1.69c-.53 1.5-1.36 2.65-2.5 3.43-1.14.78-2.56 1.18-4.27 1.18-2.71 0-4.71-.89-6.01-2.65-1.03-1.42-1.54-3.21-1.54-5.36 0-2.58.67-4.6 2.02-6.06 1.34-1.46 3.05-2.19 5.11-2.19 2.31 0 4.14.76 5.48 2.29 1.33 1.53 1.97 3.87 1.91 7.02H455.1c.03 1.22.36 2.17.99 2.85.636.68 1.427 1.01 2.374 1.01.645 0 1.19-.17 1.626-.52.44-.35.77-.92.998-1.7zm.23-4.16c-.03-1.19-.34-2.1-.92-2.72-.59-.62-1.3-.93-2.14-.93-.9 0-1.64.33-2.23.98-.59.65-.88 1.54-.87 2.66h6.15zm12.21 9.11h-4.12v-15.55h3.82v2.21c.65-1.05 1.24-1.73 1.76-2.07.52-.34 1.12-.5 1.78-.5.94 0 1.84.26 2.71.77l-1.27 3.59c-.7-.45-1.34-.68-1.94-.68-.58 0-1.06.16-1.47.47-.4.31-.718.89-.948 1.72-.23.83-.34 2.57-.34 5.21v4.8zM247.5 36C215.365 63.51 195 104.374 195 149.994c0 45.62 20.365 86.482 52.5 113.994 32.135-27.512 52.5-68.375 52.5-113.994 0-45.62-20.365-86.483-52.5-113.994z" fill="#333"/>
    <path d="M228.153 136.525h4.336v11.63c0 1.847.05 3.043.16 3.59.18.88.62 1.585 1.32 2.117s1.65.798 2.86.798c1.23 0 2.15-.25 2.78-.754.62-.503 1-1.12 1.12-1.853.13-.733.19-1.948.19-3.648v-11.88h4.33v11.28c0 2.578-.12 4.4-.35 5.464-.24 1.06-.67 1.96-1.3 2.69s-1.48 1.31-2.53 1.75c-1.06.43-2.44.65-4.13.65-2.06 0-3.61-.24-4.67-.71-1.06-.48-1.9-1.09-2.52-1.85s-1.02-1.55-1.22-2.38c-.29-1.23-.43-3.05-.43-5.45v-11.45zM248.495 158l7.34-11.206-6.652-10.27h5.07l4.305 6.9 4.22-6.9h5.023l-6.67 10.43L268.47 158h-5.23l-4.763-7.427L253.7 158h-5.2z" fill="#FFF"/>
  </g>
</svg>
