<svg id="design" xmlns="http://www.w3.org/2000/svg" viewBox="0 0 283.13 291.16"><defs><style>.cls-1{fill:#fefefe;}.cls-2{fill:#fef9fc;}.cls-3{fill:#fef0f2;}.cls-4{fill:#fef9f6;}.cls-5{fill:#fefcf9;}.cls-6{fill:#fffbf6;}.cls-7{fill:#fff8f0;}.cls-8{fill:#fffcf6;}.cls-9{fill:#fffef3;}.cls-10{fill:#fbfedf;}.cls-11{fill:#f3fffc;}.cls-12{fill:#f3fefc;}.cls-13{fill:#eafefd;}.cls-14{fill:#d0fefd;}.cls-15{fill:#9bfbfb;}.cls-16{fill:#fcfffe;}.cls-17{fill:#d2fcfe;}.cls-18{fill:#fbfefe;}.cls-19{fill:#a6f7fe;}.cls-20{fill:#c0f9fe;}.cls-21{fill:#fdfffe;}.cls-22{fill:#f0fdfe;}.cls-23{fill:#e7fcfa;}.cls-24{fill:#fafffd;}.cls-25{fill:#fefffd;}.cls-26{fill:#fbfef2;}.cls-27{fill:#f5f9e9;}.cls-28{fill:#fafef2;}.cls-29{fill:#fcfff7;}.cls-30{fill:#fbfdf6;}.cls-31{fill:#f5f8f1;}.cls-32{fill:#f6f5f4;}.cls-33{fill:#fcfbfc;}.cls-34{fill:#eee3ed;}.cls-35{fill:#f2e5f1;}.cls-36{fill:#f2e2f1;}.cls-37{fill:#f1d5ed;}.cls-38{fill:#eac3e2;}.cls-39{fill:#fef3fd;}.cls-40{fill:#fadaf2;}.cls-41{fill:#edafd9;}.cls-42{fill:#fbd2ee;}.cls-43{fill:#e992c6;}.cls-44{fill:#ffe6f3;}.cls-45{fill:#f09bcb;}.cls-46{fill:#f196c2;}.cls-47{fill:#ffe0ec;}.cls-48{fill:#ef81a6;}.cls-49{fill:#febed2;}.cls-50{fill:#f68f9c;}.cls-51{fill:#febbbc;}.cls-52{fill:#fee3df;}.cls-53{fill:#fff2f0;}.cls-54{fill:#f79473;}.cls-55{fill:#f9a877;}.cls-56{fill:#fbb374;}.cls-57{fill:#fab96a;}.cls-58{fill:#f8bd56;}.cls-59{fill:#fff2db;}.cls-60{fill:#fee89a;}.cls-61{fill:#f8dd64;}.cls-62{fill:#fef2ae;}.cls-63{fill:#f4e467;}.cls-64{fill:#f6ee8c;}.cls-65{fill:#f6f3a0;}.cls-66{fill:#f0f2a4;}.cls-67{fill:#e5ed99;}.cls-68{fill:#f0f9d0;}.cls-69{fill:#fafff6;}.cls-70{fill:#e1f7d7;}.cls-71{fill:#e5fdea;}.cls-72{fill:#effff6;}.cls-73{fill:#a3ecd4;}.cls-74{fill:#94ecdc;}.cls-75{fill:#7deade;}.cls-76{fill:#63e6de;}.cls-77{fill:#4bdfdc;}.cls-78{fill:#6ef1f3;}.cls-79{fill:#46e3ea;}.cls-80{fill:#6bf0f8;}.cls-81{fill:#3bdae9;}.cls-82{fill:#4ee0ed;}.cls-83{fill:#5ddeec;}.cls-84{fill:#65d5e3;}.cls-85{fill:#abf2f6;}.cls-86{fill:#9adfe4;}.cls-87{fill:#cdf2f3;}.cls-88{fill:#abd6cd;}.cls-89{fill:#c8e3d6;}.cls-90{fill:#dbebdd;}.cls-91{fill:#e4efdd;}.cls-92{fill:#e7f0de;}.cls-93{fill:#e7efd6;}.cls-94{fill:#e6ebcd;}.cls-95{fill:#dde4bc;}.cls-96{fill:#d5dda8;}.cls-97{fill:#f5f9e6;}.cls-98{fill:#e9eed1;}.cls-99{fill:#d9e1b5;}.cls-100{fill:#e4ebcd;}.cls-101{fill:#eaefdb;}.cls-102{fill:#d2dab5;}.cls-103{fill:#eaeede;}.cls-104{fill:#e5e8d9;}.cls-105{fill:#d8dbcc;}.cls-106{fill:#e9eae5;}.cls-107{fill:#d4cdc9;}.cls-108{fill:#dfd7da;}.cls-109{fill:#e9dfe6;}.cls-110{fill:#cca8bd;}.cls-111{fill:#cda2bf;}.cls-112{fill:#ce99be;}.cls-113{fill:#cb8db7;}.cls-114{fill:#ca7fae;}.cls-115{fill:#e3a7d4;}.cls-116{fill:#d985bd;}.cls-117{fill:#d16ea6;}.cls-118{fill:#de7db8;}.cls-119{fill:#d6619d;}.cls-120{fill:#db6399;}.cls-121{fill:#df6492;}.cls-122{fill:#e25d84;}.cls-123{fill:#e75975;}.cls-124{fill:#ea6a7f;}.cls-125{fill:#ec5a61;}.cls-126{fill:#ef6862;}.cls-127{fill:#f37c6c;}.cls-128{fill:#f16c42;}.cls-129{fill:#f1743a;}.cls-130{fill:#f27b33;}.cls-131{fill:#f1862b;}.cls-132{fill:#f19125;}.cls-133{fill:#f29e22;}.cls-134{fill:#f1b732;}.cls-135{fill:#efb726;}.cls-136{fill:#f1d040;}.cls-137{fill:#ebc728;}.cls-138{fill:#ead53c;}.cls-139{fill:#e9de50;}.cls-140{fill:#e2d633;}.cls-141{fill:#e4e15d;}.cls-142{fill:#dde060;}.cls-143{fill:#d3dd60;}.cls-144{fill:#d3e586;}.cls-145{fill:#daeeb4;}.cls-146{fill:#b9e296;}.cls-147{fill:#b6e6b0;}.cls-148{fill:#afeac7;}.cls-149{fill:#82dcad;}.cls-150{fill:#6ddbb8;}.cls-151{fill:#5ddac3;}.cls-152{fill:#4dd9c7;}.cls-153{fill:#43d9d1;}.cls-154{fill:#43dedc;}.cls-155{fill:#2aced8;}.cls-156{fill:#2cd2df;}.cls-157{fill:#22c7da;}.cls-158{fill:#27c4d9;}.cls-159{fill:#30c3d8;}.cls-160{fill:#33bfd6;}.cls-161{fill:#3bbdd2;}.cls-162{fill:#48b5c8;}.cls-163{fill:#5fb6c0;}.cls-164{fill:#6ab8b9;}.cls-165{fill:#88c6c2;}.cls-166{fill:#8bb9a4;}.cls-167{fill:#99bca2;}.cls-168{fill:#a9c29d;}.cls-169{fill:#b6c89e;}.cls-170{fill:#bfcb9a;}.cls-171{fill:#c3cd95;}.cls-172{fill:#c5cd8e;}.cls-173{fill:#c6cc89;}.cls-174{fill:#c9d08b;}.cls-175{fill:#ccd495;}.cls-176{fill:#ccd191;}.cls-177{fill:#cbd59c;}.cls-178{fill:#cdd59c;}.cls-179{fill:#d1d9ac;}.cls-180{fill:#cbd29e;}.cls-181{fill:#ccd1a4;}.cls-182{fill:#d0d7b6;}.cls-183{fill:#ccd0ab;}.cls-184{fill:#cbcdae;}.cls-185{fill:#cac8b1;}.cls-186{fill:#cbc4b7;}.cls-187{fill:#d6ccc0;}.cls-188{fill:#cabcb5;}.cls-189{fill:#c6b0b3;}.cls-190{fill:#c8aab6;}.cls-191{fill:#d8b3c6;}.cls-192{fill:#d6a8c3;}.cls-193{fill:#d8a1c4;}.cls-194{fill:#dca0c6;}.cls-195{fill:#e3a2cc;}.cls-196{fill:#ce77ad;}.cls-197{fill:#d67ab2;}.cls-198{fill:#e58bc0;}.cls-199{fill:#d76aa3;}.cls-200{fill:#e985bd;}.cls-201{fill:#e46da5;}.cls-202{fill:#e4649b;}.cls-203{fill:#e76490;}.cls-204{fill:#ef6b92;}.cls-205{fill:#f98299;}.cls-206{fill:#f06275;}.cls-207{fill:#fd8887;}.cls-208{fill:#f77264;}.cls-209{fill:#f36b4f;}.cls-210{fill:#fead82;}.cls-211{fill:#fea665;}.cls-212{fill:#fea852;}.cls-213{fill:#feb14a;}.cls-214{fill:#febf4a;}.cls-215{fill:#f4b121;}.cls-216{fill:#f8c526;}.cls-217{fill:#fcd934;}.cls-218{fill:#f2cf24;}.cls-219{fill:#f9e236;}.cls-220{fill:#ebcb22;}.cls-221{fill:#f2de33;}.cls-222{fill:#eedf35;}.cls-223{fill:#ebe13f;}.cls-224{fill:#deda3f;}.cls-225{fill:#dadd4a;}.cls-226{fill:#dce362;}.cls-227{fill:#cbdd65;}.cls-228{fill:#d3e785;}.cls-229{fill:#bee087;}.cls-230{fill:#a9dd91;}.cls-231{fill:#94dc9d;}.cls-232{fill:#b3ebc6;}.cls-233{fill:#a0ebd1;}.cls-234{fill:#93ecd8;}.cls-235{fill:#8aeee2;}.cls-236{fill:#8cf2eb;}.cls-237{fill:#93f7f5;}.cls-238{fill:#51e6e9;}.cls-239{fill:#68eef5;}.cls-240{fill:#41dfeb;}.cls-241{fill:#69eef8;}.cls-242{fill:#2fcfe1;}.cls-243{fill:#5ae6f2;}.cls-244{fill:#5ce0ee;}.cls-245{fill:#6cdfec;}.cls-246{fill:#8ee5ee;}.cls-247{fill:#6acbd7;}.cls-248{fill:#9fdee1;}.cls-249{fill:#8cc9ca;}.cls-250{fill:#c7e4db;}.cls-251{fill:#c1d9c8;}.cls-252{fill:#bdd1b6;}.cls-253{fill:#bfcca8;}.cls-254{fill:#c2cc9e;}.cls-255{fill:#c7cf98;}.cls-256{fill:#d0d499;}.cls-257{fill:#d7db9f;}.cls-258{fill:#e0e1aa;}.cls-259{fill:#e8eabc;}.cls-260{fill:#d5d99a;}.cls-261{fill:#e3e6b5;}.cls-262{fill:#d7dba1;}.cls-263{fill:#e7eac1;}.cls-264{fill:#e2e5ba;}.cls-265{fill:#dfe1b9;}.cls-266{fill:#e1e3c2;}.cls-267{fill:#e7e7d0;}.cls-268{fill:#d5d5ba;}.cls-269{fill:#efeddd;}.cls-270{fill:#e4e0d0;}.cls-271{fill:#f3eae4;}.cls-272{fill:#ebe0dd;}.cls-273{fill:#e3d1d3;}.cls-274{fill:#dcc1cb;}.cls-275{fill:#f7e3ec;}.cls-276{fill:#f7deec;}.cls-277{fill:#f8dbec;}.cls-278{fill:#fbdbef;}.cls-279{fill:#ffdff1;}.cls-280{fill:#ecadd6;}.cls-281{fill:#f7bde0;}.cls-282{fill:#fed3ec;}.cls-283{fill:#f4a9d6;}.cls-284{fill:#fecfe8;}.cls-285{fill:#fbafda;}.cls-286{fill:#ffe1ee;}.cls-287{fill:#f89ecd;}.cls-288{fill:#ffddeb;}.cls-289{fill:#fedee8;}.cls-290{fill:#fd9cc2;}.cls-291{fill:#fee7ee;}.cls-292{fill:#febacf;}.cls-293{fill:#fedbe1;}.cls-294{fill:#feb3bb;}.cls-295{fill:#fff1f2;}.cls-296{fill:#fee4e3;}.cls-297{fill:#fed1c7;}.cls-298{fill:#febca4;}.cls-299{fill:#fef0e9;}.cls-300{fill:#feece1;}.cls-301{fill:#ffecdb;}.cls-302{fill:#ffedda;}.cls-303{fill:#fff1dd;}.cls-304{fill:#ffd056;}.cls-305{fill:#fedf6f;}.cls-306{fill:#ffeb9a;}.cls-307{fill:#fff4c9;}.cls-308{fill:#feea61;}.cls-309{fill:#fff5b6;}.cls-310{fill:#fef064;}.cls-311{fill:#fbee52;}.cls-312{fill:#f9ef5c;}.cls-313{fill:#fff8ad;}.cls-314{fill:#f8f168;}.cls-315{fill:#f8f681;}.cls-316{fill:#eced6e;}.cls-317{fill:#fafa9f;}.cls-318{fill:#f1f494;}.cls-319{fill:#e5ed8c;}.cls-320{fill:#eff8b9;}.cls-321{fill:#e5f4b9;}.cls-322{fill:#d7f0bb;}.cls-323{fill:#c5edc0;}.cls-324{fill:#e4fde6;}.cls-325{fill:#dbfcec;}.cls-326{fill:#d5fdf1;}.cls-327{fill:#d5fef7;}.cls-328{fill:#defffb;}.cls-329{fill:#ebfffe;}.cls-330{fill:#a1fdfc;}.cls-331{fill:#d3fdfe;}.cls-332{fill:#8cf8fe;}.cls-333{fill:#dcfcfe;}.cls-334{fill:#bdf9fe;}.cls-335{fill:#a3f6fe;}.cls-336{fill:#effcff;}.cls-337{fill:#a6f5fe;}.cls-338{fill:#b9f6fe;}.cls-339{fill:#d8fafe;}.cls-340{fill:#baeef3;}.cls-341{fill:#def7f8;}.cls-342{fill:#d4eeec;}.cls-343{fill:#effaf5;}.cls-344{fill:#ecf6ed;}.cls-345{fill:#eaf2e3;}.cls-346{fill:#ebefda;}.cls-347{fill:#eceed4;}.cls-348{fill:#eeefd0;}.cls-349{fill:#f0f1d0;}.cls-350{fill:#f3f4d3;}.cls-351{fill:#f7f7d9;}.cls-352{fill:#fafae0;}.cls-353{fill:#f0f1cd;}.cls-354{fill:#f7f7dc;}.cls-355{fill:#fbfde5;}.cls-356{fill:#f0f0cd;}.cls-357{fill:#f7f9e0;}.cls-358{fill:#f4f5db;}.cls-359{fill:#fbfde7;}.cls-360{fill:#f2f3da;}.cls-361{fill:#fafce9;}.cls-362{fill:#fcfcec;}.cls-363{fill:#f4f4e1;}.cls-364{fill:#fdfdef;}.cls-365{fill:#f8f7e9;}.cls-366{fill:#fcfaf0;}.cls-367{fill:#f7f4eb;}.cls-368{fill:#fefbf5;}.cls-369{fill:#fdf5f3;}.cls-370{fill:#faf0f0;}.cls-371{fill:#fefcfd;}.cls-372{fill:#fffbfc;}.cls-373{fill:#fffafc;}.cls-374{fill:#fffdfd;}.cls-375{fill:#ffeaf4;}.cls-376{fill:#fef2f7;}.cls-377{fill:#fffdfe;}.cls-378{fill:#fff7fb;}.cls-379{fill:#ffedf4;}.cls-380{fill:#fefbfc;}.cls-381{fill:#fef9fb;}.cls-382{fill:#fef9fa;}.cls-383{fill:#fff8fa;}.cls-384{fill:#fffcfc;}.cls-385{fill:#fff1f4;}.cls-386{fill:#fefdfc;}.cls-387{fill:#fff8f7;}.cls-388{fill:#fff4f1;}.cls-389{fill:#fffefd;}.cls-390{fill:#fff8ec;}.cls-391{fill:#fffdf5;}.cls-392{fill:#fefefb;}.cls-393{fill:#fffae9;}.cls-394{fill:#fffdfa;}.cls-395{fill:#fffceb;}.cls-396{fill:#fff8d4;}.cls-397{fill:#fffef7;}.cls-398{fill:#fffef5;}.cls-399{fill:#fffef6;}.cls-400{fill:#fffcba;}.cls-401{fill:#fefdd9;}.cls-402{fill:#fffef1;}.cls-403{fill:#fdffc0;}.cls-404{fill:#f7fbbb;}.cls-405{fill:#fcffec;}.cls-406{fill:#f7ffe0;}.cls-407{fill:#f2fedc;}.cls-408{fill:#eafde2;}.cls-409{fill:#fdfffc;}.cls-410{fill:#f6ffff;}.cls-411{fill:#f1fefe;}.cls-412{fill:#f6feff;}.cls-413{fill:#f2fdff;}.cls-414{fill:#f5fdff;}.cls-415{fill:#fbffff;}.cls-416{fill:#edfdff;}.cls-417{fill:#faffff;}.cls-418{fill:#f0fffd;}.cls-419{fill:#fdfffd;}.cls-420{fill:#fbfff4;}.cls-421{fill:#fcfeef;}.cls-422{fill:#fcfdeb;}.cls-423{fill:#fdfde8;}.cls-424{fill:#fefde8;}.cls-425{fill:#ffffea;}.cls-426{fill:#fffff1;}.cls-427{fill:#fdfde4;}.cls-428{fill:#fffff2;}.cls-429{fill:#fefff4;}.cls-430{fill:#fdfee7;}.cls-431{fill:#fefefd;}.cls-432{fill:#fffffa;}.cls-433{fill:#fefef9;}.cls-434{fill:#fffefe;}.cls-435{fill:#fffff7;}.cls-436{fill:#b1b3b6;}.cls-437{fill:#b3b3b3;}</style></defs><title>thief</title><circle class="cls-1" cx="1027.42" cy="562.28" r="0.02" transform="translate(-712.95 1077.71) rotate(-75.08)"/><circle class="cls-2" cx="1008.27" cy="549.51" r="0.14" transform="translate(-715.97 1048.64) rotate(-75)"/><circle class="cls-3" cx="977.51" cy="497.46" r="0.36" transform="translate(-688.43 980.42) rotate(-75.01)"/><circle class="cls-4" cx="976.16" cy="466.86" r="0.17" transform="translate(-659.86 956.43) rotate(-75.01)"/><circle class="cls-5" cx="977.38" cy="459.27" r="0.1" transform="translate(-651.55 952.04) rotate(-75.01)"/><circle class="cls-5" cx="979.22" cy="451.8" r="0.1" transform="translate(-643 948.26) rotate(-75.01)"/><circle class="cls-6" cx="981.66" cy="444.51" r="0.1" transform="translate(-634.28 945.1) rotate(-75)"/><circle class="cls-7" cx="984.69" cy="437.44" r="0.17" transform="translate(-625.21 942.79) rotate(-75)"/><circle class="cls-8" cx="997.07" cy="418.03" r="0.1" transform="translate(-597.29 940.36) rotate(-75)"/><circle class="cls-9" cx="1020.15" cy="397.89" r="0.07" transform="translate(-560.74 947.73) rotate(-75)"/><circle class="cls-10" cx="1041.05" cy="388.26" r="0.17" transform="translate(-535.92 960.79) rotate(-75)"/><circle class="cls-11" cx="1096.37" cy="378.72" r="0.14" transform="translate(-485.8 1007.09) rotate(-74.99)"/><circle class="cls-12" cx="1103.72" cy="380.99" r="0.14" transform="matrix(0.26, -0.97, 0.97, 0.26, -482.44, 1015.94)"/><circle class="cls-13" cx="1110.88" cy="383.8" r="0.24" transform="matrix(0.26, -0.97, 0.97, 0.26, -479.85, 1024.93)"/><circle class="cls-14" cx="1117.81" cy="387.13" r="0.5" transform="translate(-477.91 1034.12) rotate(-75)"/><circle class="cls-15" cx="1124.47" cy="390.98" r="1.05" transform="translate(-476.72 1043.38) rotate(-75)"/><circle class="cls-16" cx="1130.83" cy="395.31" r="0.02" transform="translate(-476.77 1052.34) rotate(-74.97)"/><circle class="cls-16" cx="1136.84" cy="400.1" r="0.02" transform="translate(-476.94 1061.69) rotate(-74.97)"/><circle class="cls-17" cx="1142.48" cy="405.34" r="0.5" transform="matrix(0.26, -0.97, 0.97, 0.26, -477.21, 1071.43)"/><circle class="cls-18" cx="1147.71" cy="410.97" r="0.07" transform="translate(-479.04 1080.48) rotate(-74.99)"/><circle class="cls-19" cx="1152.5" cy="416.99" r="1.02" transform="translate(-481.06 1089.73) rotate(-75)"/><circle class="cls-20" cx="1164.02" cy="436.93" r="0.74" transform="matrix(0.26, -0.97, 0.97, 0.26, -491.79, 1115.63)"/><circle class="cls-21" cx="1166.83" cy="444.09" r="0.02" transform="translate(-495.96 1124.14) rotate(-75.04)"/><circle class="cls-22" cx="1169.09" cy="451.44" r="0.17" transform="translate(-501.94 1131.36) rotate(-75.01)"/><circle class="cls-23" cx="1172.52" cy="474.21" r="0.31" transform="matrix(0.26, -0.97, 0.97, 0.26, -521.49, 1151.49)"/><circle class="cls-24" cx="1172.52" cy="481.9" r="0.07" transform="translate(-528.92 1157.19) rotate(-75)"/><circle class="cls-25" cx="1164.02" cy="519.18" r="0.02" transform="translate(-570.59 1177.12) rotate(-75.04)"/><circle class="cls-25" cx="1160.68" cy="526.11" r="0.02" transform="translate(-580.46 1178.46) rotate(-75)"/><circle class="cls-26" cx="1156.83" cy="532.77" r="0.1" transform="translate(-589.15 1180.18) rotate(-75.03)"/><circle class="cls-27" cx="1142.48" cy="550.77" r="0.31" transform="translate(-617.72 1179.21) rotate(-75)"/><circle class="cls-28" cx="1136.84" cy="556" r="0.1" transform="translate(-626.96 1177.63) rotate(-75)"/><circle class="cls-28" cx="1130.83" cy="560.8" r="0.1" transform="translate(-636.05 1175.37) rotate(-75)"/><circle class="cls-29" cx="1124.47" cy="565.13" r="0.07" transform="translate(-645.6 1171.86) rotate(-74.96)"/><circle class="cls-30" cx="1117.81" cy="568.97" r="0.1" transform="translate(-653.43 1169.01) rotate(-75.01)"/><circle class="cls-30" cx="1110.88" cy="572.31" r="0.1" transform="translate(-661.79 1164.8) rotate(-75.01)"/><circle class="cls-31" cx="1103.72" cy="575.12" r="0.31" transform="matrix(0.26, -0.97, 0.97, 0.26, -669.96, 1159.82)"/><circle class="cls-25" cx="1096.37" cy="577.39" r="0.02" transform="translate(-676.93 1155.02) rotate(-75.04)"/><circle class="cls-32" cx="1088.88" cy="579.1" r="0.36" transform="matrix(0.26, -0.97, 0.97, 0.26, -684.78, 1148.46)"/><circle class="cls-32" cx="1081.27" cy="580.24" r="0.36" transform="translate(-691.56 1141.93) rotate(-75)"/><circle class="cls-33" cx="1073.6" cy="580.82" r="0.14" transform="translate(-697.79 1134.96) rotate(-75)"/><circle class="cls-34" cx="1058.24" cy="580.24" r="0.81" transform="translate(-708.62 1119.69) rotate(-75)"/><circle class="cls-35" cx="1050.64" cy="579.1" r="0.69" transform="translate(-713.07 1111.57) rotate(-75.01)"/><circle class="cls-36" cx="1043.14" cy="577.39" r="0.76" transform="translate(-717.09 1102.95) rotate(-75)"/><circle class="cls-37" cx="1035.79" cy="575.12" r="1.02" transform="translate(-720.31 1094.2) rotate(-75)"/><circle class="cls-38" cx="1028.63" cy="572.31" r="1.45" transform="translate(-722.91 1085.21) rotate(-75)"/><circle class="cls-1" cx="1021.71" cy="568.97" r="0.02" transform="translate(-723.66 1077.16) rotate(-75.08)"/><circle class="cls-39" cx="1015.04" cy="565.13" r="0.24" transform="translate(-725.81 1066.98) rotate(-75.02)"/><circle class="cls-40" cx="1008.69" cy="560.8" r="0.81" transform="translate(-726.57 1057.41) rotate(-75)"/><circle class="cls-41" cx="1002.68" cy="556" r="1.83" transform="translate(-726.39 1048.05) rotate(-75)"/><circle class="cls-42" cx="997.04" cy="550.77" r="0.95" transform="translate(-725.52 1038.73) rotate(-75)"/><circle class="cls-43" cx="991.81" cy="545.13" r="2.45" transform="matrix(0.26, -0.97, 0.97, 0.26, -723.95, 1029.49)"/><circle class="cls-44" cx="987.01" cy="539.12" r="0.52" transform="translate(-721.74 1020.36) rotate(-75)"/><circle class="cls-45" cx="982.68" cy="532.77" r="2.19" transform="translate(-718.78 1011.5) rotate(-75)"/><circle class="cls-46" cx="978.84" cy="526.11" r="2.31" transform="translate(-715.19 1002.86) rotate(-75)"/><circle class="cls-47" cx="975.5" cy="519.18" r="0.64" transform="matrix(0.26, -0.97, 0.97, 0.26, -710.96, 994.5)"/><circle class="cls-48" cx="972.69" cy="512.02" r="2.73" transform="matrix(0.26, -0.97, 0.97, 0.26, -706.13, 986.49)"/><circle class="cls-49" cx="970.42" cy="504.67" r="1.38" transform="matrix(0.26, -0.97, 0.97, 0.26, -700.7, 978.85)"/><circle class="cls-50" cx="968.71" cy="497.17" r="2.47" transform="translate(-694.74 971.64) rotate(-75)"/><circle class="cls-51" cx="967.57" cy="489.57" r="1.52" transform="translate(-688.23 964.9) rotate(-75)"/><circle class="cls-52" cx="966.99" cy="481.9" r="0.67" transform="translate(-681.22 958.69) rotate(-75)"/><circle class="cls-53" cx="966.99" cy="474.21" r="0.31" transform="translate(-673.83 952.95) rotate(-75)"/><circle class="cls-54" cx="967.57" cy="466.54" r="2.5" transform="translate(-666 947.82) rotate(-75)"/><circle class="cls-55" cx="968.71" cy="458.93" r="2.16" transform="translate(-657.8 943.29) rotate(-75)"/><circle class="cls-56" cx="970.42" cy="451.44" r="1.92" transform="translate(-649.29 939.39) rotate(-75)"/><circle class="cls-57" cx="972.69" cy="444.09" r="1.85" transform="translate(-640.54 936.11) rotate(-75)"/><circle class="cls-58" cx="975.5" cy="436.93" r="1.9" transform="translate(-631.52 933.54) rotate(-75)"/><circle class="cls-59" cx="978.84" cy="430" r="0.38" transform="translate(-622.39 931.6) rotate(-75)"/><circle class="cls-60" cx="982.68" cy="423.34" r="0.81" transform="translate(-613.07 930.41) rotate(-75)"/><circle class="cls-61" cx="987.01" cy="416.99" r="1.28" transform="translate(-603.7 929.9) rotate(-75)"/><circle class="cls-61" cx="991.81" cy="410.97" r="1.28" transform="translate(-594.35 930.07) rotate(-75)"/><circle class="cls-62" cx="997.04" cy="405.34" r="0.52" transform="translate(-585.09 930.89) rotate(-75)"/><circle class="cls-63" cx="1002.68" cy="400.1" r="1.19" transform="translate(-575.8 932.5) rotate(-75)"/><circle class="cls-64" cx="1008.69" cy="395.31" r="0.83" transform="translate(-566.75 934.73) rotate(-75)"/><circle class="cls-64" cx="1015.04" cy="390.98" r="0.83" transform="translate(-557.86 937.66) rotate(-75)"/><circle class="cls-65" cx="1021.71" cy="387.13" r="0.67" transform="translate(-549.13 941.29) rotate(-75)"/><circle class="cls-66" cx="1028.63" cy="383.8" r="0.74" transform="translate(-540.85 945.46) rotate(-75)"/><circle class="cls-66" cx="1035.79" cy="380.99" r="0.74" transform="translate(-532.75 950.34) rotate(-75)"/><circle class="cls-67" cx="1043.14" cy="378.72" r="0.97" transform="matrix(0.26, -0.97, 0.97, 0.26, -525.14, 955.74)"/><circle class="cls-68" cx="1050.64" cy="377.01" r="0.43" transform="matrix(0.26, -0.97, 0.97, 0.26, -517.88, 961.76)"/><circle class="cls-69" cx="1058.24" cy="375.86" r="0.07" transform="translate(-511.2 968.21) rotate(-75)"/><circle class="cls-70" cx="1065.91" cy="375.29" r="0.59" transform="translate(-504.91 975.22) rotate(-75)"/><circle class="cls-71" cx="1073.6" cy="375.29" r="0.36" transform="translate(-499.18 982.67) rotate(-75)"/><circle class="cls-71" cx="1081.27" cy="375.86" r="0.36" transform="translate(-494.22 990.39) rotate(-74.99)"/><circle class="cls-72" cx="1088.88" cy="377.01" r="0.17" transform="translate(-489.61 998.64) rotate(-75)"/><circle class="cls-73" cx="1098.59" cy="370.44" r="1.43" transform="translate(-476.06 1003.16) rotate(-75)"/><circle class="cls-74" cx="1105.95" cy="372.69" r="1.57" transform="translate(-472.78 1011.93) rotate(-75)"/><circle class="cls-75" cx="1113.13" cy="375.43" r="1.78" transform="translate(-470.08 1020.92) rotate(-75)"/><circle class="cls-76" cx="1120.11" cy="378.67" r="2.12" transform="translate(-468.06 1030.05) rotate(-75)"/><circle class="cls-77" cx="1126.84" cy="382.38" r="2.47" transform="translate(-466.66 1039.3) rotate(-75)"/><circle class="cls-78" cx="1133.31" cy="386.55" r="1.73" transform="translate(-465.9 1048.63) rotate(-75)"/><circle class="cls-78" cx="1139.47" cy="391.15" r="1.73" transform="translate(-465.78 1057.99) rotate(-75)"/><circle class="cls-79" cx="1145.3" cy="396.17" r="2.35" transform="translate(-466.29 1067.34) rotate(-75)"/><circle class="cls-80" cx="1150.77" cy="401.57" r="1.73" transform="translate(-467.46 1076.63) rotate(-75)"/><circle class="cls-81" cx="1155.85" cy="407.35" r="2.61" transform="translate(-469.27 1085.82) rotate(-75)"/><circle class="cls-82" cx="1160.52" cy="413.45" r="2.35" transform="translate(-471.71 1094.86) rotate(-75)"/><circle class="cls-82" cx="1164.77" cy="419.87" r="2.35" transform="translate(-474.79 1103.69) rotate(-75)"/><circle class="cls-83" cx="1168.55" cy="426.56" r="2.26" transform="translate(-478.42 1112.33) rotate(-75)"/><circle class="cls-20" cx="1171.87" cy="433.5" r="0.74" transform="translate(-482.66 1120.68) rotate(-75)"/><circle class="cls-84" cx="1174.7" cy="440.65" r="2.38" transform="translate(-487.47 1128.72) rotate(-75)"/><circle class="cls-85" cx="1177.03" cy="447.98" r="1.12" transform="translate(-492.81 1136.41) rotate(-75)"/><circle class="cls-86" cx="1178.85" cy="455.45" r="1.73" transform="translate(-498.7 1143.69) rotate(-75)"/><circle class="cls-87" cx="1180.15" cy="463.04" r="0.81" transform="translate(-505.05 1150.57) rotate(-75)"/><circle class="cls-88" cx="1180.92" cy="470.69" r="1.85" transform="translate(-511.88 1156.98) rotate(-75)"/><circle class="cls-88" cx="1181.17" cy="478.37" r="1.85" transform="translate(-519.12 1162.92) rotate(-75)"/><circle class="cls-89" cx="1180.88" cy="486.06" r="1.28" transform="translate(-526.75 1168.33) rotate(-75)"/><circle class="cls-90" cx="1180.06" cy="493.71" r="0.9" transform="translate(-534.75 1173.21) rotate(-75)"/><circle class="cls-91" cx="1178.72" cy="501.28" r="0.74" transform="translate(-543.06 1177.53) rotate(-75)"/><circle class="cls-92" cx="1176.86" cy="508.74" r="0.67" transform="translate(-551.66 1181.24) rotate(-75)"/><circle class="cls-93" cx="1174.48" cy="516.06" r="0.74" transform="translate(-560.47 1184.39) rotate(-75)"/><circle class="cls-94" cx="1171.61" cy="523.19" r="0.83" transform="translate(-569.5 1186.89) rotate(-75)"/><circle class="cls-95" cx="1168.26" cy="530.11" r="1.14" transform="translate(-578.66 1188.79) rotate(-75)"/><circle class="cls-96" cx="1164.43" cy="536.78" r="1.43" transform="translate(-587.94 1190.04) rotate(-75)"/><circle class="cls-97" cx="1160.15" cy="543.17" r="0.31" transform="translate(-597.28 1190.65) rotate(-75)"/><circle class="cls-98" cx="1155.44" cy="549.25" r="0.74" transform="translate(-606.62 1190.62) rotate(-75)"/><circle class="cls-99" cx="1150.33" cy="555" r="1.26" transform="translate(-616.02 1189.89) rotate(-75)"/><circle class="cls-100" cx="1144.83" cy="560.37" r="0.88" transform="matrix(0.26, -0.97, 0.97, 0.26, -625.23, 1188.61)"/><circle class="cls-100" cx="1138.97" cy="565.35" r="0.88" transform="translate(-634.41 1186.63) rotate(-75)"/><circle class="cls-101" cx="1132.78" cy="569.92" r="0.67" transform="matrix(0.26, -0.97, 0.97, 0.26, -643.38, 1184.06)"/><circle class="cls-102" cx="1126.29" cy="574.05" r="1.5" transform="matrix(0.26, -0.97, 0.97, 0.26, -652.17, 1180.85)"/><circle class="cls-103" cx="1119.53" cy="577.72" r="0.69" transform="translate(-660.78 1177) rotate(-75)"/><circle class="cls-104" cx="1112.54" cy="580.92" r="0.88" transform="translate(-669.03 1172.63) rotate(-75)"/><circle class="cls-105" cx="1105.34" cy="583.63" r="1.33" transform="translate(-676.98 1167.69) rotate(-75)"/><circle class="cls-105" cx="1097.97" cy="585.83" r="1.33" transform="matrix(0.26, -0.97, 0.97, 0.26, -684.56, 1162.21)"/><circle class="cls-106" cx="1090.47" cy="587.52" r="0.76" transform="translate(-691.75 1156.22) rotate(-75)"/><circle class="cls-107" cx="1082.87" cy="588.69" r="1.66" transform="translate(-698.53 1149.72) rotate(-75)"/><circle class="cls-108" cx="1075.2" cy="589.33" r="1.28" transform="translate(-704.84 1142.79) rotate(-75)"/><circle class="cls-109" cx="1067.51" cy="589.44" r="0.97" transform="translate(-710.65 1135.44) rotate(-75)"/><circle class="cls-110" cx="1059.84" cy="589.02" r="2.45" transform="translate(-715.92 1127.73) rotate(-75)"/><circle class="cls-110" cx="1052.2" cy="588.07" r="2.45" transform="matrix(0.26, -0.97, 0.97, 0.26, -720.66, 1119.65)"/><circle class="cls-111" cx="1044.65" cy="586.6" r="2.5" transform="translate(-724.83 1111.27) rotate(-75)"/><circle class="cls-112" cx="1037.23" cy="584.61" r="2.66" transform="translate(-728.43 1102.6) rotate(-75)"/><circle class="cls-113" cx="1029.95" cy="582.11" r="2.9" transform="translate(-731.38 1093.75) rotate(-75)"/><circle class="cls-114" cx="1022.87" cy="579.11" r="3.16" transform="translate(-733.74 1084.69) rotate(-75)"/><circle class="cls-115" cx="1016.01" cy="575.64" r="2.11" transform="translate(-735.46 1075.49) rotate(-75)"/><circle class="cls-116" cx="1009.4" cy="571.7" r="2.85" transform="translate(-736.56 1066.18) rotate(-75)"/><circle class="cls-117" cx="1003.09" cy="567.31" r="3.35" transform="translate(-737.01 1056.82) rotate(-75)"/><circle class="cls-41" cx="997.09" cy="562.5" r="1.83" transform="translate(-736.81 1047.46) rotate(-75)"/><circle class="cls-118" cx="991.44" cy="557.28" r="2.95" transform="matrix(0.26, -0.97, 0.97, 0.26, -735.96, 1038.14)"/><circle class="cls-119" cx="986.16" cy="551.69" r="3.52" transform="translate(-734.47 1028.9) rotate(-75)"/><circle class="cls-120" cx="981.27" cy="545.75" r="3.45" transform="translate(-732.34 1019.78) rotate(-75)"/><circle class="cls-45" cx="976.82" cy="539.48" r="2.19" transform="translate(-729.6 1010.83) rotate(-75)"/><circle class="cls-121" cx="972.8" cy="532.92" r="3.42" transform="translate(-726.25 1002.07) rotate(-75)"/><circle class="cls-122" cx="969.24" cy="526.1" r="3.54" transform="matrix(0.26, -0.97, 0.97, 0.26, -722.28, 993.6)"/><circle class="cls-48" cx="966.17" cy="519.05" r="2.73" transform="translate(-717.77 985.38) rotate(-75)"/><circle class="cls-123" cx="963.59" cy="511.81" r="3.56" transform="translate(-712.68 977.53) rotate(-75)"/><circle class="cls-124" cx="961.51" cy="504.4" r="3.26" transform="translate(-707.07 970.04) rotate(-75)"/><circle class="cls-125" cx="959.95" cy="496.87" r="3.56" transform="translate(-700.95 962.94) rotate(-75)"/><circle class="cls-126" cx="958.91" cy="489.25" r="3.35" transform="translate(-694.35 956.3) rotate(-75)"/><circle class="cls-126" cx="958.41" cy="481.58" r="3.35" transform="translate(-687.3 950.13) rotate(-75)"/><circle class="cls-127" cx="958.43" cy="473.89" r="2.95" transform="translate(-679.87 944.44) rotate(-75)"/><circle class="cls-128" cx="958.98" cy="466.22" r="3.35" transform="translate(-672.05 939.29) rotate(-75)"/><circle class="cls-129" cx="960.06" cy="458.6" r="3.23" transform="matrix(0.26, -0.97, 0.97, 0.26, -663.9, 934.69)"/><circle class="cls-130" cx="961.66" cy="451.08" r="3.16" transform="translate(-655.45 930.66) rotate(-75)"/><circle class="cls-131" cx="963.78" cy="443.69" r="3.02" transform="translate(-646.72 927.24) rotate(-75)"/><circle class="cls-132" cx="966.41" cy="436.46" r="2.85" transform="translate(-637.8 924.41) rotate(-75)"/><circle class="cls-133" cx="969.52" cy="429.43" r="2.61" transform="translate(-628.7 922.21) rotate(-75)"/><circle class="cls-134" cx="973.12" cy="422.63" r="2.19" transform="translate(-619.46 920.65) rotate(-75)"/><circle class="cls-134" cx="977.17" cy="416.09" r="2.19" transform="translate(-610.15 919.71) rotate(-75)"/><circle class="cls-135" cx="981.67" cy="409.85" r="2.26" transform="translate(-600.79 919.43) rotate(-75)"/><circle class="cls-136" cx="986.58" cy="403.94" r="1.69" transform="matrix(0.26, -0.97, 0.97, 0.26, -591.44, 919.79)"/><circle class="cls-137" cx="991.89" cy="398.37" r="2.02" transform="translate(-582.14 920.79) rotate(-75)"/><circle class="cls-138" cx="997.58" cy="393.19" r="1.69" transform="translate(-572.89 922.46) rotate(-75)"/><circle class="cls-138" cx="1003.6" cy="388.41" r="1.69" transform="translate(-563.82 924.73) rotate(-75)"/><circle class="cls-139" cx="1009.94" cy="384.06" r="1.5" transform="translate(-554.92 927.63) rotate(-75)"/><circle class="cls-140" cx="1016.57" cy="380.16" r="1.83" transform="translate(-546.24 931.14) rotate(-75)"/><circle class="cls-141" cx="1023.45" cy="376.72" r="1.45" transform="matrix(0.26, -0.97, 0.97, 0.26, -537.83, 935.24)"/><circle class="cls-142" cx="1030.55" cy="373.77" r="1.57" transform="translate(-529.69 939.92) rotate(-75)"/><circle class="cls-142" cx="1037.84" cy="371.32" r="1.57" transform="translate(-521.95 945.11) rotate(-75)"/><circle class="cls-143" cx="1045.28" cy="369.37" r="1.69" transform="matrix(0.26, -0.97, 0.97, 0.26, -514.54, 950.87)"/><circle class="cls-144" cx="1052.84" cy="367.94" r="1.38" transform="translate(-507.55 957.11) rotate(-75)"/><circle class="cls-145" cx="1060.47" cy="367.03" r="0.97" transform="translate(-501.05 963.79) rotate(-75)"/><circle class="cls-146" cx="1068.16" cy="366.66" r="1.66" transform="translate(-494.98 970.95) rotate(-75)"/><circle class="cls-147" cx="1075.84" cy="366.81" r="1.52" transform="translate(-489.41 978.5) rotate(-75)"/><circle class="cls-147" cx="1083.5" cy="367.5" r="1.52" transform="translate(-484.4 986.4) rotate(-75)"/><circle class="cls-148" cx="1091.1" cy="368.71" r="1.43" transform="translate(-479.95 994.63) rotate(-75)"/><circle class="cls-149" cx="1100.81" cy="362.16" r="2.19" transform="translate(-466.44 999.16) rotate(-75)"/><circle class="cls-150" cx="1108.17" cy="364.39" r="2.38" transform="translate(-463.12 1007.93) rotate(-75)"/><circle class="cls-151" cx="1115.38" cy="367.09" r="2.5" transform="translate(-460.39 1016.88) rotate(-75)"/><circle class="cls-152" cx="1122.39" cy="370.24" r="2.61" transform="translate(-458.23 1025.99) rotate(-75)"/><circle class="cls-153" cx="1129.19" cy="373.83" r="2.69" transform="translate(-456.68 1035.22) rotate(-75)"/><circle class="cls-154" cx="1135.75" cy="377.85" r="2.57" transform="translate(-455.66 1044.55) rotate(-75)"/><circle class="cls-155" cx="1142.03" cy="382.29" r="3.04" transform="translate(-455.31 1053.9) rotate(-75)"/><circle class="cls-155" cx="1148.02" cy="387.11" r="3.04" transform="translate(-455.53 1063.26) rotate(-75)"/><circle class="cls-156" cx="1153.68" cy="392.31" r="2.92" transform="translate(-456.36 1072.58) rotate(-75)"/><circle class="cls-157" cx="1159" cy="397.87" r="3.18" transform="translate(-457.78 1081.84) rotate(-75)"/><circle class="cls-158" cx="1163.96" cy="403.75" r="3.21" transform="matrix(0.26, -0.97, 0.97, 0.26, -459.77, 1091)"/><circle class="cls-158" cx="1168.53" cy="409.94" r="3.21" transform="translate(-462.38 1099.98) rotate(-75)"/><circle class="cls-159" cx="1172.69" cy="416.41" r="3.16" transform="translate(-465.54 1108.8) rotate(-75)"/><circle class="cls-160" cx="1176.42" cy="423.13" r="3.21" transform="translate(-469.27 1117.39) rotate(-75)"/><circle class="cls-161" cx="1179.72" cy="430.08" r="3.18" transform="matrix(0.26, -0.97, 0.97, 0.26, -473.54, 1125.72)"/><circle class="cls-162" cx="1182.57" cy="437.22" r="3.26" transform="translate(-478.33 1133.77) rotate(-75)"/><circle class="cls-162" cx="1184.96" cy="444.53" r="3.26" transform="translate(-483.62 1141.5) rotate(-75)"/><circle class="cls-163" cx="1186.87" cy="451.98" r="3.11" transform="translate(-489.4 1148.86) rotate(-75)"/><circle class="cls-164" cx="1188.3" cy="459.54" r="3.04" transform="translate(-495.62 1155.86) rotate(-75)"/><circle class="cls-165" cx="1189.24" cy="467.17" r="2.5" transform="translate(-502.31 1162.41) rotate(-75)"/><circle class="cls-166" cx="1189.69" cy="474.85" r="2.83" transform="translate(-509.38 1168.55) rotate(-75)"/><circle class="cls-167" cx="1189.65" cy="482.54" r="2.66" transform="matrix(0.26, -0.97, 0.97, 0.26, -516.85, 1174.2)"/><circle class="cls-168" cx="1189.12" cy="490.21" r="2.45" transform="matrix(0.26, -0.97, 0.97, 0.26, -524.66, 1179.37)"/><circle class="cls-168" cx="1188.09" cy="497.83" r="2.45" transform="matrix(0.26, -0.97, 0.97, 0.26, -532.77, 1184.04)"/><circle class="cls-169" cx="1186.58" cy="505.38" r="2.19" transform="translate(-541.18 1188.16) rotate(-75)"/><circle class="cls-170" cx="1184.59" cy="512.8" r="2.04" transform="translate(-549.83 1191.75) rotate(-75)"/><circle class="cls-171" cx="1182.13" cy="520.09" r="2" transform="translate(-558.73 1194.74) rotate(-75)"/><circle class="cls-172" cx="1179.21" cy="527.2" r="2" transform="translate(-567.73 1197.22) rotate(-75)"/><circle class="cls-173" cx="1175.83" cy="534.11" r="2.02" transform="translate(-576.9 1199.09) rotate(-75)"/><circle class="cls-174" cx="1172.02" cy="540.8" r="1.92" transform="translate(-586.2 1200.34) rotate(-75)"/><circle class="cls-175" cx="1167.79" cy="547.22" r="1.76" transform="translate(-595.53 1201.03) rotate(-75)"/><circle class="cls-175" cx="1163.16" cy="553.36" r="1.76" transform="translate(-604.86 1201.13) rotate(-75)"/><circle class="cls-176" cx="1158.14" cy="559.19" r="1.85" transform="translate(-614.25 1200.57) rotate(-75)"/><circle class="cls-177" cx="1152.76" cy="564.68" r="1.73" transform="translate(-623.51 1199.48) rotate(-75)"/><circle class="cls-178" cx="1147.04" cy="569.82" r="1.73" transform="translate(-632.75 1197.73) rotate(-75)"/><circle class="cls-179" cx="1141" cy="574.59" r="1.57" transform="translate(-641.83 1195.43) rotate(-75)"/><circle class="cls-180" cx="1134.67" cy="578.95" r="1.78" transform="translate(-650.72 1192.56) rotate(-75)"/><circle class="cls-181" cx="1128.07" cy="582.91" r="1.78" transform="translate(-659.44 1189.1) rotate(-75)"/><circle class="cls-182" cx="1121.24" cy="586.43" r="1.57" transform="translate(-667.9 1185.12) rotate(-75)"/><circle class="cls-183" cx="1114.19" cy="589.5" r="1.78" transform="translate(-676.11 1180.58) rotate(-75)"/><circle class="cls-184" cx="1106.96" cy="592.12" r="1.85" transform="matrix(0.26, -0.97, 0.97, 0.26, -683.99, 1175.54)"/><circle class="cls-185" cx="1099.57" cy="594.27" r="1.95" transform="translate(-691.54 1169.99) rotate(-75)"/><circle class="cls-186" cx="1092.06" cy="595.94" r="2" transform="translate(-698.72 1163.98) rotate(-75)"/><circle class="cls-187" cx="1084.46" cy="597.13" r="1.66" transform="translate(-705.49 1157.53) rotate(-75)"/><circle class="cls-188" cx="1076.81" cy="597.82" r="2.16" transform="translate(-711.85 1150.65) rotate(-75)"/><circle class="cls-189" cx="1069.12" cy="598.03" r="2.4" transform="translate(-717.74 1143.37) rotate(-75)"/><circle class="cls-190" cx="1061.43" cy="597.74" r="2.47" transform="translate(-723.16 1135.74) rotate(-75)"/><circle class="cls-191" cx="1053.78" cy="596.96" r="2.09" transform="translate(-728.08 1127.77) rotate(-75)"/><circle class="cls-192" cx="1046.19" cy="595.69" r="2.31" transform="translate(-732.48 1119.5) rotate(-75)"/><circle class="cls-193" cx="1038.71" cy="593.94" r="2.38" transform="translate(-736.32 1110.98) rotate(-75)"/><circle class="cls-194" cx="1031.34" cy="591.72" r="2.38" transform="translate(-739.64 1102.21) rotate(-75)"/><circle class="cls-195" cx="1024.14" cy="589.02" r="2.21" transform="translate(-742.38 1093.25) rotate(-75)"/><circle class="cls-114" cx="1017.12" cy="585.87" r="3.16" transform="translate(-744.52 1084.15) rotate(-75)"/><circle class="cls-196" cx="1010.33" cy="582.28" r="3.23" transform="translate(-746.11 1074.9) rotate(-75)"/><circle class="cls-197" cx="1003.77" cy="578.25" r="3.09" transform="translate(-747.07 1065.6) rotate(-75)"/><circle class="cls-198" cx="997.49" cy="573.82" r="2.61" transform="translate(-747.46 1056.23) rotate(-75)"/><circle class="cls-199" cx="991.5" cy="568.99" r="3.37" transform="translate(-747.22 1046.89) rotate(-75)"/><circle class="cls-200" cx="985.83" cy="563.79" r="2.69" transform="translate(-746.41 1037.54) rotate(-75)"/><circle class="cls-119" cx="980.51" cy="558.24" r="3.52" transform="translate(-744.98 1028.29) rotate(-75)"/><circle class="cls-201" cx="975.56" cy="552.36" r="3.18" transform="translate(-742.97 1019.15) rotate(-75)"/><circle class="cls-202" cx="970.99" cy="546.17" r="3.35" transform="translate(-740.38 1010.15) rotate(-75)"/><circle class="cls-202" cx="966.83" cy="539.7" r="3.35" transform="translate(-737.21 1001.34) rotate(-75)"/><circle class="cls-203" cx="963.09" cy="532.98" r="3.35" transform="translate(-733.49 992.74) rotate(-75)"/><circle class="cls-204" cx="959.79" cy="526.03" r="3.16" transform="translate(-729.22 984.42) rotate(-75)"/><circle class="cls-204" cx="956.94" cy="518.89" r="3.16" transform="translate(-724.45 976.35) rotate(-75)"/><circle class="cls-205" cx="954.56" cy="511.58" r="2.66" transform="translate(-719.14 968.64) rotate(-75)"/><circle class="cls-206" cx="952.65" cy="504.13" r="3.35" transform="translate(-713.36 961.27) rotate(-75)"/><circle class="cls-207" cx="951.22" cy="496.57" r="2.57" transform="translate(-707.11 954.3) rotate(-75)"/><circle class="cls-207" cx="950.27" cy="488.94" r="2.57" transform="matrix(0.26, -0.97, 0.97, 0.26, -700.45, 947.72)"/><circle class="cls-208" cx="949.82" cy="481.26" r="3.09" transform="translate(-693.38 941.59) rotate(-75)"/><circle class="cls-209" cx="949.86" cy="473.57" r="3.28" transform="translate(-685.91 935.93) rotate(-75)"/><circle class="cls-210" cx="950.4" cy="465.89" r="1.95" transform="translate(-678.12 930.75) rotate(-75)"/><circle class="cls-211" cx="951.42" cy="458.27" r="2.16" transform="translate(-669.96 926.12) rotate(-75)"/><circle class="cls-212" cx="952.93" cy="450.73" r="2.19" transform="translate(-661.57 921.98) rotate(-75)"/><circle class="cls-213" cx="954.92" cy="443.3" r="2.04" transform="translate(-652.94 918.38) rotate(-75)"/><circle class="cls-214" cx="957.39" cy="436.02" r="1.83" transform="matrix(0.26, -0.97, 0.97, 0.26, -644.07, 915.36)"/><circle class="cls-214" cx="960.31" cy="428.9" r="1.83" transform="matrix(0.26, -0.97, 0.97, 0.26, -635.02, 912.92)"/><circle class="cls-133" cx="963.68" cy="421.99" r="2.61" transform="translate(-625.85 911.05) rotate(-75)"/><circle class="cls-215" cx="967.49" cy="415.31" r="2.31" transform="translate(-616.57 909.78) rotate(-75)"/><circle class="cls-216" cx="971.72" cy="408.89" r="1.9" transform="translate(-607.23 909.11) rotate(-75)"/><circle class="cls-217" cx="976.36" cy="402.75" r="1.45" transform="translate(-597.87 909.03) rotate(-75)"/><circle class="cls-218" cx="981.37" cy="396.92" r="1.78" transform="translate(-588.53 909.55) rotate(-75)"/><circle class="cls-219" cx="986.75" cy="391.42" r="1.33" transform="translate(-579.24 910.67) rotate(-75)"/><circle class="cls-220" cx="992.47" cy="386.28" r="1.95" transform="translate(-570 912.41) rotate(-75)"/><circle class="cls-221" cx="998.51" cy="381.52" r="1.5" transform="matrix(0.26, -0.97, 0.97, 0.26, -560.9, 914.73)"/><circle class="cls-222" cx="1004.84" cy="377.15" r="1.52" transform="matrix(0.26, -0.97, 0.97, 0.26, -552.03, 917.58)"/><circle class="cls-140" cx="1011.44" cy="373.2" r="1.83" transform="translate(-543.32 921.02) rotate(-75)"/><circle class="cls-223" cx="1018.28" cy="369.68" r="1.45" transform="translate(-534.87 925.01) rotate(-75)"/><circle class="cls-224" cx="1025.33" cy="366.6" r="1.76" transform="translate(-526.66 929.55) rotate(-75)"/><circle class="cls-225" cx="1032.56" cy="363.99" r="1.73" transform="translate(-518.75 934.61) rotate(-75)"/><circle class="cls-225" cx="1039.95" cy="361.84" r="1.73" transform="translate(-511.23 940.13) rotate(-75)"/><circle class="cls-226" cx="1047.45" cy="360.17" r="1.5" transform="matrix(0.26, -0.97, 0.97, 0.26, -504, 946.17)"/><circle class="cls-227" cx="1055.05" cy="358.98" r="1.76" transform="translate(-497.23 952.63) rotate(-75)"/><circle class="cls-228" cx="1062.71" cy="358.28" r="1.35" transform="translate(-490.91 959.49) rotate(-75)"/><circle class="cls-229" cx="1070.4" cy="358.08" r="1.69" transform="translate(-485.01 966.77) rotate(-75)"/><circle class="cls-230" cx="1078.08" cy="358.36" r="1.92" transform="matrix(0.26, -0.97, 0.97, 0.26, -479.6, 974.4)"/><circle class="cls-230" cx="1085.74" cy="359.14" r="1.92" transform="translate(-474.67 982.37) rotate(-75)"/><circle class="cls-231" cx="1093.32" cy="360.41" r="2.09" transform="translate(-470.29 990.63) rotate(-75)"/><circle class="cls-232" cx="1103.03" cy="353.89" r="1.35" transform="translate(-456.8 995.17) rotate(-75)"/><circle class="cls-233" cx="1110.39" cy="356.1" r="1.5" transform="translate(-453.47 1003.92) rotate(-75)"/><circle class="cls-234" cx="1117.62" cy="358.75" r="1.57" transform="translate(-450.67 1012.87) rotate(-75)"/><circle class="cls-235" cx="1124.66" cy="361.82" r="1.59" transform="translate(-448.41 1021.96) rotate(-75)"/><circle class="cls-236" cx="1131.52" cy="365.31" r="1.45" transform="translate(-446.71 1031.16) rotate(-75)"/><circle class="cls-237" cx="1138.15" cy="369.21" r="1.26" transform="translate(-445.54 1040.46) rotate(-75)"/><circle class="cls-238" cx="1144.54" cy="373.49" r="2.21" transform="translate(-444.97 1049.8) rotate(-75)"/><circle class="cls-238" cx="1150.66" cy="378.15" r="2.21" transform="translate(-444.95 1059.15) rotate(-75)"/><circle class="cls-239" cx="1156.49" cy="383.17" r="1.78" transform="translate(-445.41 1068.54) rotate(-75)"/><circle class="cls-240" cx="1162" cy="388.53" r="2.47" transform="translate(-446.53 1077.82) rotate(-75)"/><circle class="cls-241" cx="1167.19" cy="394.2" r="1.76" transform="translate(-448.17 1087.03) rotate(-75)"/><circle class="cls-242" cx="1172.03" cy="400.18" r="2.92" transform="translate(-450.36 1096.14) rotate(-75)"/><circle class="cls-243" cx="1176.51" cy="406.44" r="2.09" transform="translate(-453.06 1105.12) rotate(-75)"/><circle class="cls-244" cx="1180.6" cy="412.95" r="2.21" transform="translate(-456.35 1113.87) rotate(-75)"/><circle class="cls-160" cx="1184.29" cy="419.69" r="3.21" transform="translate(-460.12 1122.45) rotate(-75)"/><circle class="cls-245" cx="1187.58" cy="426.65" r="2.09" transform="translate(-464.4 1130.77) rotate(-75)"/><circle class="cls-246" cx="1190.44" cy="433.79" r="1.66" transform="matrix(0.26, -0.97, 0.97, 0.26, -469.15, 1138.84)"/><circle class="cls-247" cx="1192.87" cy="441.08" r="2.57" transform="matrix(0.26, -0.97, 0.97, 0.26, -474.42, 1146.59)"/><circle class="cls-163" cx="1194.87" cy="448.51" r="3.11" transform="translate(-480.12 1154.02) rotate(-75)"/><circle class="cls-248" cx="1196.41" cy="456.05" r="1.73" transform="translate(-486.26 1161.09) rotate(-75)"/><circle class="cls-249" cx="1197.5" cy="463.66" r="2.38" transform="translate(-492.8 1167.79) rotate(-75)"/><circle class="cls-250" cx="1198.13" cy="471.33" r="1.26" transform="translate(-499.72 1174.09) rotate(-75)"/><circle class="cls-251" cx="1198.3" cy="479.01" r="1.59" transform="translate(-507.03 1179.94) rotate(-75)"/><circle class="cls-252" cx="1198.01" cy="486.7" r="1.85" transform="translate(-514.67 1185.36) rotate(-75)"/><circle class="cls-253" cx="1197.27" cy="494.36" r="2" transform="translate(-522.59 1190.34) rotate(-75)"/><circle class="cls-254" cx="1196.06" cy="501.95" r="2" transform="translate(-530.88 1194.76) rotate(-75)"/><circle class="cls-255" cx="1194.41" cy="509.46" r="1.92" transform="translate(-539.36 1198.72) rotate(-75)"/><circle class="cls-255" cx="1192.31" cy="516.86" r="1.92" transform="translate(-548.03 1202.2) rotate(-75)"/><circle class="cls-256" cx="1189.77" cy="524.12" r="1.73" transform="translate(-556.93 1205.13) rotate(-75)"/><circle class="cls-257" cx="1186.8" cy="531.22" r="1.5" transform="translate(-565.97 1207.53) rotate(-75)"/><circle class="cls-258" cx="1183.41" cy="538.12" r="1.26" transform="translate(-575.15 1209.37) rotate(-75)"/><circle class="cls-259" cx="1179.61" cy="544.81" r="0.9" transform="translate(-584.42 1210.67) rotate(-75)"/><circle class="cls-260" cx="1175.42" cy="551.26" r="1.57" transform="translate(-593.78 1211.38) rotate(-75)"/><circle class="cls-261" cx="1170.86" cy="557.45" r="1.09" transform="matrix(0.26, -0.97, 0.97, 0.26, -603.08, 1211.62)"/><circle class="cls-261" cx="1165.93" cy="563.35" r="1.09" transform="translate(-612.49 1211.18) rotate(-75)"/><circle class="cls-262" cx="1160.65" cy="568.95" r="1.5" transform="translate(-621.81 1210.24) rotate(-75)"/><circle class="cls-263" cx="1155.06" cy="574.22" r="0.9" transform="translate(-631.07 1208.73) rotate(-75)"/><circle class="cls-264" cx="1149.15" cy="579.15" r="1.09" transform="translate(-640.2 1206.68) rotate(-75)"/><circle class="cls-264" cx="1142.96" cy="583.72" r="1.09" transform="translate(-649.17 1204.11) rotate(-75)"/><circle class="cls-265" cx="1136.51" cy="587.91" r="1.21" transform="translate(-658.02 1200.96) rotate(-75)"/><circle class="cls-266" cx="1129.82" cy="591.7" r="1.12" transform="translate(-666.59 1197.37) rotate(-75)"/><circle class="cls-266" cx="1122.92" cy="595.09" r="1.12" transform="translate(-675.03 1193.17) rotate(-75)"/><circle class="cls-267" cx="1115.83" cy="598.06" r="0.9" transform="translate(-683.17 1188.5) rotate(-75)"/><circle class="cls-268" cx="1108.57" cy="600.6" r="1.57" transform="translate(-690.98 1183.39) rotate(-75)"/><circle class="cls-269" cx="1101.17" cy="602.7" r="0.67" transform="translate(-698.48 1177.82) rotate(-75)"/><circle class="cls-270" cx="1093.66" cy="604.36" r="1.09" transform="translate(-705.66 1171.78) rotate(-75)"/><circle class="cls-271" cx="1086.06" cy="605.56" r="0.64" transform="translate(-712.44 1165.34) rotate(-75)"/><circle class="cls-272" cx="1078.41" cy="606.31" r="0.95" transform="translate(-718.86 1158.48) rotate(-75)"/><circle class="cls-273" cx="1070.72" cy="606.6" r="1.35" transform="translate(-724.84 1151.26) rotate(-75)"/><circle class="cls-274" cx="1063.03" cy="606.42" r="1.76" transform="translate(-730.36 1143.72) rotate(-75)"/><circle class="cls-275" cx="1055.36" cy="605.79" r="0.69" transform="translate(-735.43 1135.84) rotate(-75)"/><circle class="cls-275" cx="1047.75" cy="604.7" r="0.69" transform="translate(-740.01 1127.7) rotate(-75)"/><circle class="cls-276" cx="1040.22" cy="603.16" r="0.81" transform="translate(-744.05 1119.33) rotate(-75)"/><circle class="cls-277" cx="1032.79" cy="601.17" r="0.83" transform="translate(-747.67 1110.64) rotate(-75)"/><circle class="cls-278" cx="1025.49" cy="598.74" r="0.76" transform="translate(-750.82 1101.7) rotate(-75)"/><circle class="cls-279" cx="1018.35" cy="595.87" r="0.67" transform="translate(-753.25 1092.78) rotate(-75)"/><circle class="cls-280" cx="1011.4" cy="592.59" r="1.9" transform="translate(-755.25 1083.61) rotate(-75)"/><circle class="cls-281" cx="1004.65" cy="588.89" r="1.45" transform="translate(-756.7 1074.33) rotate(-75)"/><circle class="cls-282" cx="998.14" cy="584.8" r="0.9" transform="translate(-757.54 1065.04) rotate(-75)"/><circle class="cls-282" cx="991.88" cy="580.33" r="0.9" transform="translate(-757.87 1055.67) rotate(-75)"/><circle class="cls-283" cx="985.91" cy="575.49" r="1.85" transform="translate(-757.63 1046.31) rotate(-75)"/><circle class="cls-284" cx="980.23" cy="570.3" r="1.02" transform="translate(-756.84 1036.96) rotate(-75)"/><circle class="cls-285" cx="974.87" cy="564.78" r="1.66" transform="translate(-755.45 1027.73) rotate(-75)"/><circle class="cls-286" cx="969.86" cy="558.95" r="0.64" transform="translate(-753.48 1018.61) rotate(-75.01)"/><circle class="cls-287" cx="965.2" cy="552.83" r="2.04" transform="translate(-751.09 1009.51) rotate(-75)"/><circle class="cls-288" cx="960.91" cy="546.44" r="0.69" transform="translate(-748.15 1000.59) rotate(-75)"/><circle class="cls-289" cx="957.02" cy="539.81" r="0.69" transform="translate(-744.63 991.91) rotate(-75)"/><circle class="cls-290" cx="953.53" cy="532.96" r="2.04" transform="translate(-740.57 983.48) rotate(-75)"/><circle class="cls-291" cx="950.45" cy="525.91" r="0.52" transform="translate(-735.99 975.34) rotate(-75)"/><circle class="cls-292" cx="947.8" cy="518.69" r="1.45" transform="matrix(0.26, -0.97, 0.97, 0.26, -730.99, 967.42)"/><circle class="cls-293" cx="945.59" cy="511.32" r="0.81" transform="translate(-725.55 959.79) rotate(-75)"/><circle class="cls-294" cx="943.82" cy="503.84" r="1.66" transform="translate(-719.62 952.54) rotate(-75)"/><circle class="cls-295" cx="942.51" cy="496.26" r="0.31" transform="translate(-713.32 945.61) rotate(-75)"/><circle class="cls-296" cx="941.65" cy="488.62" r="0.64" transform="translate(-706.54 939.15) rotate(-75)"/><circle class="cls-297" cx="941.24" cy="480.94" r="1.09" transform="translate(-699.44 933.05) rotate(-75)"/><circle class="cls-298" cx="941.3" cy="473.25" r="1.57" transform="translate(-691.93 927.44) rotate(-75)"/><circle class="cls-299" cx="941.82" cy="465.57" r="0.38" transform="translate(-684.15 922.24) rotate(-75)"/><circle class="cls-300" cx="942.79" cy="457.94" r="0.45" transform="translate(-676 917.57) rotate(-75)"/><circle class="cls-301" cx="944.22" cy="450.39" r="0.5" transform="translate(-667.7 913.3) rotate(-75)"/><circle class="cls-301" cx="946.1" cy="442.93" r="0.5" transform="translate(-659.15 909.55) rotate(-75)"/><circle class="cls-302" cx="948.42" cy="435.6" r="0.45" transform="translate(-650.36 906.35) rotate(-75)"/><circle class="cls-303" cx="951.18" cy="428.42" r="0.38" transform="matrix(0.26, -0.97, 0.97, 0.26, -641.26, 903.79)"/><circle class="cls-304" cx="954.36" cy="421.41" r="1.45" transform="translate(-632.19 901.63) rotate(-75)"/><circle class="cls-305" cx="957.95" cy="414.61" r="1.12" transform="translate(-622.98 900.04) rotate(-75)"/><circle class="cls-306" cx="961.95" cy="408.04" r="0.74" transform="matrix(0.26, -0.97, 0.97, 0.26, -613.64, 899.05)"/><circle class="cls-307" cx="966.33" cy="401.72" r="0.38" transform="translate(-604.34 898.56) rotate(-75)"/><circle class="cls-308" cx="971.08" cy="395.67" r="0.95" transform="translate(-594.89 898.73) rotate(-75)"/><circle class="cls-308" cx="976.18" cy="389.92" r="0.95" transform="translate(-585.63 899.33) rotate(-75)"/><circle class="cls-309" cx="981.62" cy="384.48" r="0.45" transform="translate(-576.26 900.62) rotate(-75)"/><circle class="cls-310" cx="987.37" cy="379.37" r="0.83" transform="translate(-567.11 902.36) rotate(-75)"/><circle class="cls-311" cx="993.42" cy="374.62" r="0.97" transform="translate(-558.09 904.64) rotate(-75)"/><circle class="cls-311" cx="999.75" cy="370.24" r="0.97" transform="translate(-549.14 907.53) rotate(-75)"/><circle class="cls-312" cx="1006.32" cy="366.25" r="0.95" transform="translate(-540.41 910.92) rotate(-75)"/><circle class="cls-313" cx="1013.12" cy="362.66" r="0.43" transform="translate(-531.83 914.87) rotate(-75)"/><circle class="cls-314" cx="1020.12" cy="359.48" r="0.88" transform="translate(-523.63 919.23) rotate(-75)"/><circle class="cls-315" cx="1027.3" cy="356.72" r="0.69" transform="translate(-515.65 924.13) rotate(-75)"/><circle class="cls-316" cx="1034.63" cy="354.4" r="1.09" transform="translate(-507.97 929.49) rotate(-75)"/><circle class="cls-317" cx="1042.09" cy="352.52" r="0.5" transform="matrix(0.26, -0.97, 0.97, 0.26, -500.6, 935.32)"/><circle class="cls-318" cx="1049.65" cy="351.09" r="0.74" transform="matrix(0.26, -0.97, 0.97, 0.26, -493.69, 941.51)"/><circle class="cls-319" cx="1057.28" cy="350.11" r="1.05" transform="translate(-487.05 948.19) rotate(-75)"/><circle class="cls-320" cx="1064.95" cy="349.6" r="0.57" transform="translate(-480.86 955.21) rotate(-75)"/><circle class="cls-321" cx="1072.64" cy="349.54" r="0.74" transform="translate(-475.11 962.6) rotate(-75)"/><circle class="cls-322" cx="1080.32" cy="349.94" r="0.95" transform="matrix(0.26, -0.97, 0.97, 0.26, -469.8, 970.32)"/><circle class="cls-322" cx="1087.97" cy="350.8" r="0.95" transform="matrix(0.26, -0.97, 0.97, 0.26, -464.97, 978.34)"/><circle class="cls-323" cx="1095.54" cy="352.12" r="1.14" transform="translate(-460.61 986.64) rotate(-75)"/><circle class="cls-324" cx="1105.25" cy="345.61" r="0.38" transform="translate(-447.23 991.13) rotate(-74.99)"/><circle class="cls-325" cx="1112.62" cy="347.81" r="0.5" transform="translate(-443.81 999.93) rotate(-75)"/><circle class="cls-326" cx="1119.85" cy="350.41" r="0.5" transform="translate(-440.96 1008.85) rotate(-75)"/><circle class="cls-327" cx="1126.93" cy="353.42" r="0.45" transform="translate(-438.62 1017.92) rotate(-75)"/><circle class="cls-328" cx="1133.83" cy="356.83" r="0.31" transform="translate(-436.79 1027.1) rotate(-75)"/><circle class="cls-329" cx="1140.53" cy="360.61" r="0.21" transform="translate(-435.56 1036.33) rotate(-75)"/><circle class="cls-330" cx="1147" cy="364.76" r="0.95" transform="matrix(0.26, -0.97, 0.97, 0.26, -434.7, 1045.71)"/><circle class="cls-330" cx="1153.23" cy="369.27" r="0.95" transform="translate(-434.44 1055.07) rotate(-75)"/><circle class="cls-331" cx="1159.2" cy="374.12" r="0.45" transform="translate(-434.73 1064.41) rotate(-75)"/><circle class="cls-332" cx="1164.88" cy="379.3" r="1.21" transform="matrix(0.26, -0.97, 0.97, 0.26, -435.5, 1073.75)"/><circle class="cls-333" cx="1170.27" cy="384.79" r="0.43" transform="translate(-436.75 1083.06) rotate(-75)"/><circle class="cls-334" cx="1175.34" cy="390.57" r="0.76" transform="translate(-438.64 1092.2) rotate(-75)"/><circle class="cls-334" cx="1180.08" cy="396.63" r="0.76" transform="matrix(0.26, -0.97, 0.97, 0.26, -440.98, 1101.27)"/><circle class="cls-335" cx="1184.47" cy="402.94" r="1.05" transform="translate(-443.8 1110.21) rotate(-75)"/><circle class="cls-336" cx="1188.51" cy="409.49" r="0.21" transform="matrix(0.26, -0.97, 0.97, 0.26, -447.13, 1118.97)"/><circle class="cls-337" cx="1192.16" cy="416.26" r="1.05" transform="translate(-450.97 1127.5) rotate(-75)"/><circle class="cls-338" cx="1195.43" cy="423.22" r="0.83" transform="translate(-455.28 1135.81) rotate(-75)"/><circle class="cls-338" cx="1198.31" cy="430.35" r="0.83" transform="translate(-459.96 1143.93) rotate(-75)"/><circle class="cls-339" cx="1200.78" cy="437.64" r="0.5" transform="matrix(0.26, -0.97, 0.97, 0.26, -465.12, 1151.75)"/><circle class="cls-340" cx="1202.84" cy="445.05" r="1.09" transform="translate(-470.87 1159.14) rotate(-75)"/><circle class="cls-341" cx="1204.48" cy="452.56" r="0.52" transform="translate(-476.93 1166.29) rotate(-75)"/><circle class="cls-342" cx="1205.7" cy="460.16" r="0.83" transform="translate(-483.34 1173.11) rotate(-75)"/><circle class="cls-342" cx="1206.49" cy="467.81" r="0.83" transform="translate(-490.14 1179.54) rotate(-75)"/><circle class="cls-343" cx="1206.85" cy="475.49" r="0.31" transform="matrix(0.26, -0.97, 0.97, 0.26, -497.29, 1185.59)"/><circle class="cls-344" cx="1206.78" cy="483.18" r="0.45" transform="translate(-504.77 1191.22) rotate(-75)"/><circle class="cls-345" cx="1206.28" cy="490.85" r="0.59" transform="translate(-512.67 1196.34) rotate(-74.99)"/><circle class="cls-346" cx="1205.34" cy="498.49" r="0.67" transform="translate(-520.64 1201.17) rotate(-75)"/><circle class="cls-347" cx="1203.98" cy="506.06" r="0.69" transform="translate(-528.94 1205.48) rotate(-75)"/><circle class="cls-348" cx="1202.2" cy="513.54" r="0.67" transform="translate(-537.47 1209.32) rotate(-75)"/><circle class="cls-349" cx="1200" cy="520.91" r="0.64" transform="translate(-546.24 1212.64) rotate(-75)"/><circle class="cls-350" cx="1197.4" cy="528.15" r="0.52" transform="translate(-555.07 1215.56) rotate(-75.01)"/><circle class="cls-350" cx="1194.39" cy="535.23" r="0.52" transform="matrix(0.26, -0.97, 0.97, 0.26, -564.26, 1217.8)"/><circle class="cls-351" cx="1190.99" cy="542.12" r="0.38" transform="translate(-573.42 1219.65) rotate(-75)"/><circle class="cls-352" cx="1187.2" cy="548.82" r="0.29" transform="matrix(0.26, -0.97, 0.97, 0.26, -582.68, 1220.97)"/><circle class="cls-353" cx="1183.05" cy="555.29" r="0.64" transform="translate(-592.02 1221.75) rotate(-75)"/><circle class="cls-354" cx="1178.54" cy="561.53" r="0.38" transform="translate(-601.38 1222.01) rotate(-75)"/><circle class="cls-355" cx="1173.69" cy="567.49" r="0.17" transform="translate(-610.84 1221.66) rotate(-74.99)"/><circle class="cls-356" cx="1168.51" cy="573.18" r="0.64" transform="translate(-620.07 1220.96) rotate(-75)"/><circle class="cls-357" cx="1163.02" cy="578.57" r="0.31" transform="translate(-629.4 1219.6) rotate(-75)"/><circle class="cls-358" cx="1157.24" cy="583.64" r="0.45" transform="translate(-638.46 1217.88) rotate(-75)"/><circle class="cls-359" cx="1151.18" cy="588.38" r="0.17" transform="translate(-647.3 1215.75) rotate(-75.02)"/><circle class="cls-360" cx="1144.87" cy="592.77" r="0.52" transform="translate(-656.43 1212.72) rotate(-75.01)"/><circle class="cls-361" cx="1138.32" cy="596.8" r="0.17" transform="translate(-665.34 1209.24) rotate(-75)"/><circle class="cls-362" cx="1131.55" cy="600.46" r="0.17" transform="translate(-673.82 1205.48) rotate(-75)"/><circle class="cls-363" cx="1124.59" cy="603.73" r="0.45" transform="translate(-682.13 1201.18) rotate(-75)"/><circle class="cls-364" cx="1117.46" cy="606.61" r="0.1" transform="translate(-690.19 1196.43) rotate(-75)"/><circle class="cls-365" cx="1110.17" cy="609.08" r="0.31" transform="translate(-698.03 1191.17) rotate(-75)"/><circle class="cls-366" cx="1102.76" cy="611.14" r="0.17" transform="translate(-705.38 1185.68) rotate(-75.01)"/><circle class="cls-367" cx="1095.25" cy="612.78" r="0.38" transform="translate(-712.81 1179.36) rotate(-74.99)"/><circle class="cls-368" cx="1087.66" cy="614" r="0.14" transform="translate(-719.42 1173.12) rotate(-75)"/><circle class="cls-368" cx="1080" cy="614.79" r="0.14" transform="translate(-725.85 1166.32) rotate(-75)"/><circle class="cls-369" cx="1072.32" cy="615.15" r="0.24" transform="translate(-731.9 1159.16) rotate(-75)"/><circle class="cls-370" cx="1064.63" cy="615.07" r="0.38" transform="translate(-737.57 1151.64) rotate(-75)"/><circle class="cls-371" cx="1056.96" cy="614.57" r="0.07" transform="matrix(0.26, -0.97, 0.97, 0.26, -742.73, 1143.89)"/><circle class="cls-372" cx="1049.32" cy="613.64" r="0.1" transform="translate(-747.36 1135.95) rotate(-75.01)"/><circle class="cls-373" cx="1041.75" cy="612.28" r="0.1" transform="translate(-751.65 1127.65) rotate(-75.01)"/><circle class="cls-373" cx="1034.27" cy="610.5" r="0.1" transform="translate(-756.17 1118.39) rotate(-74.96)"/><circle class="cls-372" cx="1026.9" cy="608.3" r="0.1" transform="translate(-759.22 1109.93) rotate(-74.98)"/><circle class="cls-374" cx="1019.66" cy="605.69" r="0.02" transform="matrix(0.26, -0.97, 0.97, 0.26, -761.2, 1101.9)"/><circle class="cls-374" cx="1012.59" cy="602.68" r="0.02" transform="translate(-763.65 1092.72) rotate(-75.03)"/><circle class="cls-375" cx="1005.69" cy="599.28" r="0.43" transform="translate(-765.9 1083.1) rotate(-75)"/><circle class="cls-376" cx="998.99" cy="595.5" r="0.29" transform="translate(-767.18 1073.85) rotate(-75.01)"/><circle class="cls-373" cx="992.52" cy="591.34" r="0.1" transform="translate(-768.47 1064) rotate(-74.97)"/><circle class="cls-377" cx="986.29" cy="586.84" r="0.02" transform="translate(-769.36 1054) rotate(-74.93)"/><circle class="cls-378" cx="980.32" cy="581.98" r="0.17" transform="translate(-768.14 1045.62) rotate(-74.99)"/><circle class="cls-378" cx="974.63" cy="576.81" r="0.17" transform="translate(-767.27 1036.37) rotate(-75)"/><circle class="cls-379" cx="969.24" cy="571.32" r="0.38" transform="translate(-765.96 1027.11) rotate(-75)"/><circle class="cls-380" cx="964.17" cy="565.53" r="0.1" transform="translate(-764.53 1017.52) rotate(-74.97)"/><circle class="cls-381" cx="959.43" cy="559.48" r="0.14" transform="translate(-761.89 1008.76) rotate(-74.99)"/><circle class="cls-381" cx="955.04" cy="553.16" r="0.14" transform="translate(-758.95 999.93) rotate(-75)"/><circle class="cls-382" cx="951.01" cy="546.61" r="0.14" transform="translate(-755.7 991.09) rotate(-74.99)"/><circle class="cls-383" cx="947.35" cy="539.85" r="0.14" transform="translate(-751.97 982.45) rotate(-74.99)"/><circle class="cls-383" cx="944.08" cy="532.89" r="0.14" transform="translate(-747.58 974.23) rotate(-74.99)"/><circle class="cls-384" cx="941.2" cy="525.75" r="0.07" transform="translate(-742.74 966.24) rotate(-75)"/><circle class="cls-385" cx="938.73" cy="518.47" r="0.31" transform="translate(-737.58 958.42) rotate(-75)"/><circle class="cls-373" cx="936.67" cy="511.06" r="0.1" transform="translate(-731.77 951.11) rotate(-75.01)"/><circle class="cls-373" cx="935.03" cy="503.54" r="0.1" transform="translate(-725.87 943.82) rotate(-75)"/><circle class="cls-386" cx="933.02" cy="488.3" r="0.07" transform="translate(-712.28 930.9) rotate(-75.03)"/><circle class="cls-387" cx="932.66" cy="480.62" r="0.14" transform="translate(-705.21 924.78) rotate(-75.02)"/><circle class="cls-388" cx="932.74" cy="472.93" r="0.24" transform="matrix(0.26, -0.97, 0.97, 0.26, -697.93, 918.97)"/><circle class="cls-389" cx="935.53" cy="450.05" r="0.02" transform="translate(-673.29 905.1) rotate(-75.04)"/><circle class="cls-389" cx="937.31" cy="442.56" r="0.02" transform="matrix(0.26, -0.97, 0.97, 0.26, -664.74, 901.27)"/><circle class="cls-389" cx="939.51" cy="435.19" r="0.02" transform="translate(-658.12 896.15) rotate(-74.88)"/><circle class="cls-389" cx="942.12" cy="427.96" r="0.02" transform="translate(-647.64 894.61) rotate(-75)"/><circle class="cls-390" cx="948.53" cy="413.98" r="0.17" transform="matrix(0.26, -0.97, 0.97, 0.26, -629.26, 890.55)"/><circle class="cls-391" cx="952.31" cy="407.29" r="0.07" transform="translate(-620.06 889.18) rotate(-75)"/><circle class="cls-392" cx="956.47" cy="400.81" r="0.02" transform="translate(-609.56 889.29) rotate(-75.08)"/><circle class="cls-392" cx="960.98" cy="394.58" r="0.02" transform="translate(-600.83 888.54) rotate(-75.04)"/><circle class="cls-393" cx="965.83" cy="388.61" r="0.17" transform="translate(-592.02 888.39) rotate(-75)"/><circle class="cls-394" cx="971.01" cy="382.93" r="0.07" transform="translate(-582.68 889.18) rotate(-75)"/><circle class="cls-395" cx="976.49" cy="377.54" r="0.14" transform="translate(-573.41 890.49) rotate(-75)"/><circle class="cls-392" cx="982.28" cy="372.47" r="0.02" transform="translate(-565.95 891.07) rotate(-74.88)"/><circle class="cls-396" cx="988.34" cy="367.73" r="0.29" transform="translate(-555.06 894.72) rotate(-75.01)"/><circle class="cls-397" cx="994.65" cy="363.34" r="0.02" transform="translate(-545.67 897.89) rotate(-75.04)"/><circle class="cls-398" cx="1001.2" cy="359.31" r="0.07" transform="translate(-537.12 901.09) rotate(-75.02)"/><circle class="cls-313" cx="1007.97" cy="355.65" r="0.43" transform="translate(-529.01 904.61) rotate(-75)"/><circle class="cls-399" cx="1014.93" cy="352.38" r="0.02" transform="translate(-520.04 909.35) rotate(-75.04)"/><circle class="cls-400" cx="1022.06" cy="349.5" r="0.31" transform="translate(-512.6 913.68) rotate(-75)"/><circle class="cls-401" cx="1029.34" cy="347.03" r="0.17" transform="translate(-504.78 918.91) rotate(-75)"/><circle class="cls-317" cx="1036.75" cy="344.97" r="0.5" transform="translate(-497.23 924.59) rotate(-75)"/><circle class="cls-402" cx="1044.27" cy="343.33" r="0.07" transform="translate(-490.11 930.61) rotate(-75)"/><circle class="cls-403" cx="1051.86" cy="342.11" r="0.24" transform="translate(-483.33 937.02) rotate(-75)"/><circle class="cls-404" cx="1059.51" cy="341.32" r="0.43" transform="matrix(0.26, -0.97, 0.97, 0.26, -476.79, 943.9)"/><circle class="cls-405" cx="1067.19" cy="340.96" r="0.1" transform="translate(-470.87 950.97) rotate(-75)"/><circle class="cls-406" cx="1074.89" cy="341.03" r="0.17" transform="translate(-465.23 958.46) rotate(-75)"/><circle class="cls-407" cx="1082.56" cy="341.53" r="0.29" transform="translate(-460.18 966.15) rotate(-74.99)"/><circle class="cls-407" cx="1090.19" cy="342.47" r="0.29" transform="translate(-455.32 974.28) rotate(-75)"/><circle class="cls-408" cx="1097.76" cy="343.83" r="0.36" transform="translate(-450.93 982.66) rotate(-75)"/><circle class="cls-409" cx="1107.46" cy="337.33" r="0.02" transform="translate(-436.85 987.59) rotate(-75.04)"/><circle class="cls-16" cx="1114.84" cy="339.52" r="0.02" transform="matrix(0.26, -0.97, 0.97, 0.26, -434.13, 995.94)"/><circle class="cls-21" cx="1122.09" cy="342.09" r="0.02" transform="matrix(0.26, -0.97, 0.97, 0.26, -431.4, 1004.75)"/><circle class="cls-21" cx="1129.19" cy="345.04" r="0.02" transform="translate(-428.19 1014.3) rotate(-75.04)"/><circle class="cls-410" cx="1149.43" cy="356.08" r="0.07" transform="translate(-424.51 1041.62) rotate(-75)"/><circle class="cls-410" cx="1155.75" cy="360.45" r="0.07" transform="translate(-424.29 1050.82) rotate(-74.99)"/><circle class="cls-411" cx="1167.67" cy="370.17" r="0.17" transform="translate(-424.61 1069.68) rotate(-75)"/><circle class="cls-21" cx="1173.23" cy="375.49" r="0.02" transform="translate(-427.71 1077.65) rotate(-74.88)"/><circle class="cls-412" cx="1178.5" cy="381.09" r="0.1" transform="translate(-427.28 1088.14) rotate(-74.99)"/><circle class="cls-412" cx="1183.46" cy="386.97" r="0.1" transform="translate(-429.13 1097.38) rotate(-75)"/><circle class="cls-413" cx="1188.11" cy="393.1" r="0.17" transform="translate(-431.6 1106.42) rotate(-75)"/><circle class="cls-336" cx="1196.4" cy="406.04" r="0.21" transform="matrix(0.26, -0.97, 0.97, 0.26, -437.89, 1124.07)"/><circle class="cls-414" cx="1206.18" cy="426.92" r="0.14" transform="translate(-451 1148.86) rotate(-74.99)"/><circle class="cls-415" cx="1208.69" cy="434.19" r="0.02" transform="translate(-456.1 1156.71) rotate(-75)"/><circle class="cls-415" cx="1210.81" cy="441.59" r="0.02" transform="translate(-460.91 1164.77) rotate(-75.04)"/><circle class="cls-416" cx="1212.54" cy="449.08" r="0.21" transform="translate(-467.5 1171.56) rotate(-75)"/><circle class="cls-417" cx="1213.87" cy="456.66" r="0.07" transform="translate(-473.71 1178.54) rotate(-75.01)"/><circle class="cls-418" cx="1214.79" cy="464.29" r="0.14" transform="translate(-480.58 1184.97) rotate(-75)"/><circle class="cls-343" cx="1215.32" cy="471.97" r="0.31" transform="translate(-487.61 1191.16) rotate(-75)"/><circle class="cls-419" cx="1215.44" cy="479.66" r="0.02" transform="translate(-495.01 1196.93) rotate(-75)"/><circle class="cls-419" cx="1215.15" cy="487.34" r="0.02" transform="translate(-502.65 1202.34) rotate(-75)"/><circle class="cls-420" cx="1214.46" cy="495" r="0.07" transform="translate(-510.5 1207.4) rotate(-75)"/><circle class="cls-421" cx="1213.36" cy="502.61" r="0.1" transform="translate(-518.68 1211.97) rotate(-75)"/><circle class="cls-422" cx="1211.86" cy="510.16" r="0.14" transform="translate(-526.97 1216.2) rotate(-75.01)"/><circle class="cls-423" cx="1209.97" cy="517.61" r="0.14" transform="translate(-535.54 1219.93) rotate(-75.01)"/><circle class="cls-424" cx="1207.69" cy="524.96" r="0.14" transform="translate(-544.57 1222.97) rotate(-74.99)"/><circle class="cls-425" cx="1205.02" cy="532.17" r="0.07" transform="matrix(0.26, -0.97, 0.97, 0.26, -553.39, 1225.84)"/><circle class="cls-426" cx="1201.98" cy="539.24" r="0.02" transform="translate(-561.8 1228.68) rotate(-75.04)"/><circle class="cls-427" cx="1190.67" cy="559.33" r="0.17" transform="translate(-590.16 1232.18) rotate(-75.01)"/><circle class="cls-428" cx="1186.21" cy="565.59" r="0.02" transform="translate(-600.2 1231.94) rotate(-74.97)"/><circle class="cls-429" cx="1176.34" cy="577.38" r="0.02" transform="translate(-618.38 1231.58) rotate(-75)"/><circle class="cls-430" cx="1165.27" cy="588.06" r="0.14" transform="translate(-636.84 1228.87) rotate(-75)"/><circle class="cls-431" cx="1159.33" cy="592.95" r="0.02" transform="matrix(0.26, -0.97, 0.97, 0.26, -645.84, 1226.87)"/><circle class="cls-432" cx="1153.15" cy="597.52" r="0.02" transform="translate(-655.02 1224.11) rotate(-75)"/><circle class="cls-432" cx="1146.72" cy="601.75" r="0.02" transform="translate(-663.95 1220.97) rotate(-74.99)"/><circle class="cls-432" cx="1140.09" cy="605.64" r="0.02" transform="translate(-672.54 1217.52) rotate(-75)"/><circle class="cls-433" cx="1111.78" cy="617.55" r="0.07" transform="translate(-705.19 1198.84) rotate(-74.99)"/><circle class="cls-386" cx="1089.25" cy="622.43" r="0.07" transform="translate(-727.02 1180.28) rotate(-74.96)"/><circle class="cls-434" cx="1066.23" cy="623.7" r="0.02" transform="translate(-744.1 1160.19) rotate(-75.04)"/><circle class="cls-371" cx="1058.55" cy="623.31" r="0.07" transform="translate(-749.83 1152.06) rotate(-75.01)"/><circle class="cls-434" cx="1006.84" cy="609.45" r="0.02" transform="translate(-775.94 1090.63) rotate(-74.93)"/><circle class="cls-377" cx="980.69" cy="593.34" r="0.02" transform="translate(-779.78 1053.41) rotate(-74.93)"/><circle class="cls-435" cx="1061.75" cy="332.59" r="0.02" transform="translate(-468.02 938.74) rotate(-74.93)"/><circle class="cls-25" cx="1099.98" cy="335.54" r="0.02" transform="translate(-440.6 979.08) rotate(-75.04)"/><rect class="cls-436" x="71.13" y="122.19" width="143.91" height="1.76"/><rect class="cls-436" x="71.13" y="171.26" width="143.91" height="1.76"/><path class="cls-437" d="M1030.64,469.17v22.16a3.12,3.12,0,0,0,.06.7,0.89,0.89,0,0,0,.32.48,2.11,2.11,0,0,0,.72.36,8.65,8.65,0,0,0,1.31.27,0.68,0.68,0,0,1,.63.72c0,0.08,0,.21,0,0.38a2.76,2.76,0,0,1-.06.42q-1.35-.08-2.88-0.15t-2.72-.06q-1.22,0-2.72.06t-2.84.15a1.17,1.17,0,0,1-.11-0.42c0-.17,0-0.29,0-0.38a1,1,0,0,1,.11-0.48,0.79,0.79,0,0,1,.57-0.27,4.23,4.23,0,0,0,2-.57,1.54,1.54,0,0,0,.4-1.2V469.17h-3.71a7.46,7.46,0,0,0-2,.23,4,4,0,0,0-1.43.72,4.86,4.86,0,0,0-1.09,1.26,17.37,17.37,0,0,0-1,1.88,0.63,0.63,0,0,1-.63.38,2,2,0,0,1-.59-0.11,3.42,3.42,0,0,1-.51-0.19q0.29-1,.51-1.79t0.34-1.54q0.17-1,.25-1.73a4.93,4.93,0,0,1,.21-1.1,0.66,0.66,0,0,1,.67-0.38q0.46,0,1.83.13t3.31,0.13h13q1.9,0,3.26-.13t1.88-.13a0.71,0.71,0,0,1,.67.38,4.49,4.49,0,0,1,.19,1.1,13.46,13.46,0,0,0,.27,1.73q0.13,0.76.32,1.54t0.53,1.79l-0.53.19a1.82,1.82,0,0,1-.57.11,0.72,0.72,0,0,1-.67-0.38,17.55,17.55,0,0,0-1-1.87,4.88,4.88,0,0,0-1.1-1.26,4.05,4.05,0,0,0-1.43-.72,7.28,7.28,0,0,0-2-.23h-3.71Z" transform="translate(-932.5 -332.56)"/><path class="cls-437" d="M1068.72,491.32a3.18,3.18,0,0,0,.06.7,0.86,0.86,0,0,0,.34.48,2.36,2.36,0,0,0,.8.36,11.14,11.14,0,0,0,1.41.27,0.61,0.61,0,0,1,.42.72c0,0.08,0,.21,0,0.38a2.78,2.78,0,0,1-.06.42q-1.35-.08-2.87-0.15t-2.7-.06q-1.22,0-2.76.06t-2.88.15a0.94,0.94,0,0,1-.08-0.42v-0.38q0-.67.42-0.72a11.17,11.17,0,0,0,1.41-.27,2.12,2.12,0,0,0,.78-0.36,1,1,0,0,0,.34-0.48,2.43,2.43,0,0,0,.08-0.7v-9.9H1052v9.9a3.18,3.18,0,0,0,.06.7,0.86,0.86,0,0,0,.34.48,2.36,2.36,0,0,0,.8.36,11.14,11.14,0,0,0,1.41.27,0.61,0.61,0,0,1,.42.72c0,0.08,0,.21,0,0.38a2.89,2.89,0,0,1-.06.42q-1.35-.08-2.91-0.15t-2.74-.06q-1.18,0-2.7.06t-2.86.15a0.94,0.94,0,0,1-.08-0.42v-0.38q0-.67.42-0.72a11.17,11.17,0,0,0,1.41-.27,2.12,2.12,0,0,0,.78-0.36,1,1,0,0,0,.34-0.48,2.43,2.43,0,0,0,.08-0.7v-21.1a2.43,2.43,0,0,0-.08-0.7,1,1,0,0,0-.34-0.48,2.14,2.14,0,0,0-.78-0.36,11.56,11.56,0,0,0-1.41-.27,0.65,0.65,0,0,1-.42-0.72v-0.38a1.23,1.23,0,0,1,.08-0.46q1.35,0.08,2.86.15t2.7,0.06q1.18,0,2.74-.06t2.91-.15a4.46,4.46,0,0,1,.06.46c0,0.17,0,.29,0,0.38a0.65,0.65,0,0,1-.42.72,11.52,11.52,0,0,0-1.41.27,2.38,2.38,0,0,0-.8.36,0.86,0.86,0,0,0-.34.48,3.18,3.18,0,0,0-.06.7v9h11.37v-9a2.43,2.43,0,0,0-.08-0.7A1,1,0,0,0,1063,469a2.14,2.14,0,0,0-.78-0.36,11.56,11.56,0,0,0-1.41-.27,0.65,0.65,0,0,1-.42-0.72v-0.38a1.23,1.23,0,0,1,.08-0.46q1.35,0.08,2.88.15t2.76,0.06q1.18,0,2.7-.06t2.87-.15a4.22,4.22,0,0,1,.06.46c0,0.17,0,.29,0,0.38a0.65,0.65,0,0,1-.42.72,11.52,11.52,0,0,0-1.41.27,2.38,2.38,0,0,0-.8.36,0.86,0.86,0,0,0-.34.48,3.18,3.18,0,0,0-.06.7v21.1Z" transform="translate(-932.5 -332.56)"/><path class="cls-437" d="M1083.47,491.32a3.18,3.18,0,0,0,.06.7,0.86,0.86,0,0,0,.34.48,2.36,2.36,0,0,0,.8.36,11.14,11.14,0,0,0,1.41.27,0.61,0.61,0,0,1,.42.72c0,0.08,0,.21,0,0.38a2.89,2.89,0,0,1-.06.42q-1.35-.08-2.89-0.15t-2.72-.06q-1.22,0-2.74.06t-2.86.15a0.94,0.94,0,0,1-.08-0.42v-0.38q0-.67.42-0.72a11.17,11.17,0,0,0,1.41-.27,2.12,2.12,0,0,0,.78-0.36,1,1,0,0,0,.34-0.48,2.43,2.43,0,0,0,.08-0.7v-21.1a2.43,2.43,0,0,0-.08-0.7,1,1,0,0,0-.34-0.48,2.14,2.14,0,0,0-.78-0.36,11.56,11.56,0,0,0-1.41-.27,0.65,0.65,0,0,1-.42-0.72v-0.38a1.23,1.23,0,0,1,.08-0.46q1.35,0.08,2.86.15t2.74,0.06q1.18,0,2.72-.06t2.89-.15a4.46,4.46,0,0,1,.06.46c0,0.17,0,.29,0,0.38a0.65,0.65,0,0,1-.42.72,11.52,11.52,0,0,0-1.41.27,2.38,2.38,0,0,0-.8.36,0.86,0.86,0,0,0-.34.48,3.18,3.18,0,0,0-.06.7v21.1Z" transform="translate(-932.5 -332.56)"/><path class="cls-437" d="M1098.59,469.17v10.15h5.94a1.09,1.09,0,0,0,1.09-.65,8.57,8.57,0,0,0,.51-2.13,0.52,0.52,0,0,1,.25-0.44,1.23,1.23,0,0,1,.55-0.11l0.4,0a1.84,1.84,0,0,1,.4.06q-0.08,1-.15,2.25t-0.06,2.17q0,0.76,0,1.79t0.17,2.34a0.85,0.85,0,0,1-.4.11l-0.4,0a0.66,0.66,0,0,1-.8-0.59,7.51,7.51,0,0,0-.57-2.17,1.09,1.09,0,0,0-1-.57h-5.94v9.44a1.22,1.22,0,0,0,1.09,1.18,16,16,0,0,0,3.71.29h1.77a5.86,5.86,0,0,0,2.13-.34,5,5,0,0,0,1.54-.95,6.58,6.58,0,0,0,1.18-1.43q0.51-.82,1-1.83a0.57,0.57,0,0,1,.59-0.29,1.33,1.33,0,0,1,.5.13l0.59,0.25q-0.08.34-.19,0.63c-0.07.2-.13,0.39-0.19,0.59a5.34,5.34,0,0,0-.34,1,7.22,7.22,0,0,1-.25.88l-0.19.95q-0.11.53-.21,1c-0.07.32-.14,0.61-0.21,0.86l-0.15.51a0.68,0.68,0,0,1-.67.34l-1,0-1.37-.06-1.5-.06q-0.76,0-1.31,0h-9.56q-1.22,0-2.8.06t-2.84.15a1,1,0,0,1-.08-0.44v-0.4a0.55,0.55,0,0,1,.42-0.67,9.81,9.81,0,0,0,2.3-.63,1.2,1.2,0,0,0,.69-1.18v-21.1a1.67,1.67,0,0,0-.13-0.7,1,1,0,0,0-.48-0.46,4.34,4.34,0,0,0-.93-0.34q-0.57-.15-1.45-0.32a0.68,0.68,0,0,1-.42-0.76v-0.4a1.07,1.07,0,0,1,.08-0.4q1.81,0.13,3.2.17t2.4,0h8.64q1.9,0,3.26-.13t1.87-.13a0.71,0.71,0,0,1,.67.38,5.56,5.56,0,0,1,.21,1.24,15.51,15.51,0,0,0,.29,1.87q0.13,0.72.29,1.39t0.51,1.64l-0.46.17a1.58,1.58,0,0,1-.51.08,0.72,0.72,0,0,1-.67-0.38,17.46,17.46,0,0,0-1-1.87,4.88,4.88,0,0,0-1.1-1.26,3.8,3.8,0,0,0-1.43-.7,8,8,0,0,0-2-.21h-5.6Z" transform="translate(-932.5 -332.56)"/><path class="cls-437" d="M1118.85,470.22a1.84,1.84,0,0,0-.1-0.65,1,1,0,0,0-.44-0.48,3.32,3.32,0,0,0-.93-0.36q-0.59-.15-1.52-0.32a0.68,0.68,0,0,1-.42-0.76v-0.4a1.07,1.07,0,0,1,.08-0.4q1.81,0.13,3.2.17t2.36,0h8.64q1.94,0,3.31-.13t1.83-.13a0.71,0.71,0,0,1,.67.38,5.56,5.56,0,0,1,.21,1.24,15.51,15.51,0,0,0,.29,1.87q0.13,0.72.29,1.39t0.5,1.64a2.88,2.88,0,0,1-.44.17,1.78,1.78,0,0,1-.53.08,0.63,0.63,0,0,1-.63-0.38,17.46,17.46,0,0,0-1-1.87,4.88,4.88,0,0,0-1.1-1.26,3.8,3.8,0,0,0-1.43-.7,8.2,8.2,0,0,0-2-.21h-5.56v10.66H1130a1.07,1.07,0,0,0,1-.7,8.32,8.32,0,0,0,.53-2.08,0.71,0.71,0,0,1,.8-0.55l0.4,0a1.87,1.87,0,0,1,.4.06q-0.08,1-.15,2.25t-0.06,2.17q0,0.76,0,1.79t0.17,2.34a0.81,0.81,0,0,1-.38.11l-0.38,0a0.74,0.74,0,0,1-.84-0.59,6.83,6.83,0,0,0-.5-2,1.11,1.11,0,0,0-1.05-.69h-5.81v9.44a0.9,0.9,0,0,0,.29.7,2.38,2.38,0,0,0,.8.46,5.92,5.92,0,0,0,1.18.29l1.43,0.23a0.59,0.59,0,0,1,.5.72c0,0.08,0,.22,0,0.42a3,3,0,0,1-.06.46l-1.18,0-1.18-.06q-1.1-.08-2.34-0.1l-2.46,0-1.29,0-1.45.06-1.5.06-1.37.06a1,1,0,0,1-.08-0.44v-0.4a0.55,0.55,0,0,1,.42-0.67,17.32,17.32,0,0,0,2.19-.65,1.15,1.15,0,0,0,.8-1.16v-21.1Z" transform="translate(-932.5 -332.56)"/><path class="cls-436" d="M1027.42,449.67V440h7.15v1.63h-5.21v2.14h4.84v1.63h-4.84V448h5.39v1.63h-7.34Z" transform="translate(-932.5 -332.56)"/><path class="cls-436" d="M1038.87,449.67l-3.45-9.65h2.11l2.44,7.14,2.36-7.14h2.07l-3.46,9.65h-2.08Z" transform="translate(-932.5 -332.56)"/><path class="cls-436" d="M1045.39,449.67V440h7.15v1.63h-5.21v2.14h4.84v1.63h-4.84V448h5.39v1.63h-7.34Z" transform="translate(-932.5 -332.56)"/><path class="cls-436" d="M1054.39,449.67V440h4.1a7,7,0,0,1,2.25.26,2.21,2.21,0,0,1,1.12.92,2.78,2.78,0,0,1,.42,1.52,2.58,2.58,0,0,1-.64,1.79,3.07,3.07,0,0,1-1.91.89,4.54,4.54,0,0,1,1,.81,11,11,0,0,1,1.11,1.57l1.18,1.88h-2.33l-1.41-2.1a13.36,13.36,0,0,0-1-1.42,1.5,1.5,0,0,0-.59-0.4,3.17,3.17,0,0,0-1-.11h-0.39v4h-1.95Zm1.95-5.57h1.44a7.41,7.41,0,0,0,1.75-.12,1,1,0,0,0,.55-0.41,1.26,1.26,0,0,0,.2-0.72,1.16,1.16,0,0,0-.26-0.79,1.19,1.19,0,0,0-.73-0.38q-0.24,0-1.42,0h-1.52v2.45Z" transform="translate(-932.5 -332.56)"/><path class="cls-436" d="M1066.15,449.67v-4.06l-3.53-5.59h2.28l2.27,3.82,2.22-3.82h2.24l-3.55,5.6v4h-1.94Z" transform="translate(-932.5 -332.56)"/><path class="cls-436" d="M1072.21,444.9a6.14,6.14,0,0,1,.44-2.47,4.54,4.54,0,0,1,.9-1.32,3.76,3.76,0,0,1,1.25-.87,5.3,5.3,0,0,1,2.08-.38,4.53,4.53,0,0,1,3.41,1.32,5.91,5.91,0,0,1,0,7.33,4.49,4.49,0,0,1-3.4,1.32,4.54,4.54,0,0,1-3.42-1.31A5,5,0,0,1,1072.21,444.9Zm2-.07a3.61,3.61,0,0,0,.76,2.48,2.6,2.6,0,0,0,3.83,0,3.69,3.69,0,0,0,.75-2.52,3.63,3.63,0,0,0-.73-2.47,2.69,2.69,0,0,0-3.87,0A3.65,3.65,0,0,0,1074.21,444.83Z" transform="translate(-932.5 -332.56)"/><path class="cls-436" d="M1083.1,449.67V440h1.9l3.95,6.44V440h1.81v9.65h-2l-3.89-6.29v6.29h-1.81Z" transform="translate(-932.5 -332.56)"/><path class="cls-436" d="M1092.82,449.67V440H1100v1.63h-5.21v2.14h4.84v1.63h-4.84V448h5.39v1.63h-7.34Z" transform="translate(-932.5 -332.56)"/><path class="cls-436" d="M1101.74,440h1.85v1.32a4.58,4.58,0,0,1-.14,1.27,1.9,1.9,0,0,1-.52.83,2.71,2.71,0,0,1-1,.58l-0.36-.76a1.56,1.56,0,0,0,.8-0.51,1.53,1.53,0,0,0,.25-0.88h-0.9V440Z" transform="translate(-932.5 -332.56)"/><path class="cls-436" d="M1105.05,446.53l1.89-.18a2.32,2.32,0,0,0,.69,1.4,2.1,2.1,0,0,0,1.41.45,2.17,2.17,0,0,0,1.42-.4,1.18,1.18,0,0,0,.48-0.93,0.88,0.88,0,0,0-.2-0.58,1.61,1.61,0,0,0-.7-0.42q-0.34-.12-1.56-0.42a5.29,5.29,0,0,1-2.2-1,2.51,2.51,0,0,1-.89-1.94,2.47,2.47,0,0,1,.42-1.38,2.61,2.61,0,0,1,1.2-1,4.82,4.82,0,0,1,1.9-.33,4.07,4.07,0,0,1,2.73.8,2.81,2.81,0,0,1,1,2.13l-1.95.09a1.66,1.66,0,0,0-.54-1.07,2,2,0,0,0-1.23-.33,2.23,2.23,0,0,0-1.33.35,0.7,0.7,0,0,0-.31.6,0.74,0.74,0,0,0,.29.58,5.11,5.11,0,0,0,1.79.65,9.44,9.44,0,0,1,2.1.69,2.71,2.71,0,0,1,1.07,1,3,3,0,0,1-.08,3.09,2.77,2.77,0,0,1-1.3,1.08,5.48,5.48,0,0,1-2.1.35,4.17,4.17,0,0,1-2.81-.85A3.68,3.68,0,0,1,1105.05,446.53Z" transform="translate(-932.5 -332.56)"/><path class="cls-436" d="M1126.48,449.67h-2.12l-0.84-2.19h-3.86l-0.8,2.19h-2.07l3.76-9.65h2.06Zm-3.59-3.82-1.33-3.58-1.3,3.58h2.63Z" transform="translate(-932.5 -332.56)"/><path class="cls-436" d="M1032.9,510.68h4.29a12.32,12.32,0,0,1,1.9.11,2.7,2.7,0,0,1,1.94,1.34,2.42,2.42,0,0,1,.33,1.25,2.49,2.49,0,0,1-.41,1.38,2.52,2.52,0,0,1-1.1.94,2.83,2.83,0,0,1,1.51,1,2.58,2.58,0,0,1,.53,1.62,3.18,3.18,0,0,1-.34,1.42,2.86,2.86,0,0,1-.93,1.1,3.07,3.07,0,0,1-1.45.51q-0.54.06-2.61,0.07h-3.65V510.68Zm2.17,1.79v2.48h1.42q1.27,0,1.57,0a1.43,1.43,0,0,0,.87-0.38,1.14,1.14,0,0,0,.32-0.84,1.18,1.18,0,0,0-.27-0.81,1.24,1.24,0,0,0-.82-0.38q-0.32,0-1.85,0h-1.24Zm0,4.27v2.87h2a9.82,9.82,0,0,0,1.49-.07,1.34,1.34,0,0,0,.79-0.43,1.32,1.32,0,0,0,.3-0.91,1.4,1.4,0,0,0-.23-0.82,1.33,1.33,0,0,0-.68-0.49,7.36,7.36,0,0,0-1.92-.15h-1.75Z" transform="translate(-932.5 -332.56)"/><path class="cls-436" d="M1043.7,510.68h2.17v5.81a12,12,0,0,0,.08,1.79,1.74,1.74,0,0,0,.66,1.06,2.31,2.31,0,0,0,1.43.4,2.19,2.19,0,0,0,1.39-.38,1.5,1.5,0,0,0,.56-0.93,12.08,12.08,0,0,0,.09-1.82v-5.93h2.17v5.63a14.47,14.47,0,0,1-.18,2.73,3,3,0,0,1-.65,1.35,3.27,3.27,0,0,1-1.26.88,5.5,5.5,0,0,1-2.06.33,5.94,5.94,0,0,1-2.33-.35,3.33,3.33,0,0,1-1.25-.92,3,3,0,0,1-.61-1.19,13,13,0,0,1-.21-2.72v-5.72Z" transform="translate(-932.5 -332.56)"/><path class="cls-436" d="M1057,521.41v-8.91h-3.18v-1.81h8.52v1.81h-3.18v8.91H1057Z" transform="translate(-932.5 -332.56)"/><path class="cls-436" d="M1067.79,521.41V510.68H1070v10.73h-2.17Z" transform="translate(-932.5 -332.56)"/><path class="cls-436" d="M1074.44,521.41v-8.91h-3.18v-1.81h8.52v1.81h-3.18v8.91h-2.17Z" transform="translate(-932.5 -332.56)"/><path class="cls-436" d="M1081.11,510.71h2.06v1.47a5.11,5.11,0,0,1-.15,1.41,2.1,2.1,0,0,1-.58.93,3,3,0,0,1-1.09.64l-0.4-.85a1.73,1.73,0,0,0,.88-0.56,1.7,1.7,0,0,0,.28-1h-1v-2.06Z" transform="translate(-932.5 -332.56)"/><path class="cls-436" d="M1084.79,517.92l2.11-.21a2.57,2.57,0,0,0,.77,1.56,2.33,2.33,0,0,0,1.57.5,2.41,2.41,0,0,0,1.58-.44,1.32,1.32,0,0,0,.53-1,1,1,0,0,0-.22-0.65,1.79,1.79,0,0,0-.78-0.46q-0.38-.13-1.73-0.47a5.87,5.87,0,0,1-2.44-1.06,2.79,2.79,0,0,1-1-2.16,2.76,2.76,0,0,1,.46-1.53,2.91,2.91,0,0,1,1.34-1.09,5.36,5.36,0,0,1,2.11-.37,4.53,4.53,0,0,1,3,.88,3.13,3.13,0,0,1,1.07,2.36l-2.17.09a1.84,1.84,0,0,0-.6-1.19,2.19,2.19,0,0,0-1.37-.36,2.48,2.48,0,0,0-1.48.39,0.78,0.78,0,0,0-.34.67,0.82,0.82,0,0,0,.32.65,5.69,5.69,0,0,0,2,.72,10.48,10.48,0,0,1,2.34.77,3,3,0,0,1,1.19,1.09A3.38,3.38,0,0,1,1093,520a3.07,3.07,0,0,1-1.45,1.2,6.08,6.08,0,0,1-2.33.39,4.65,4.65,0,0,1-3.12-.94A4.09,4.09,0,0,1,1084.79,517.92Z" transform="translate(-932.5 -332.56)"/><path class="cls-436" d="M1099.06,516.11a6.82,6.82,0,0,1,.49-2.75,5.07,5.07,0,0,1,1-1.47,4.18,4.18,0,0,1,1.39-1,5.9,5.9,0,0,1,2.31-.42A5,5,0,0,1,1108,512a6.57,6.57,0,0,1,0,8.16,5,5,0,0,1-3.78,1.47,5,5,0,0,1-3.81-1.46A5.54,5.54,0,0,1,1099.06,516.11Zm2.23-.07a4,4,0,0,0,.84,2.76,2.89,2.89,0,0,0,4.26,0,4.1,4.1,0,0,0,.83-2.8,4,4,0,0,0-.81-2.75,3,3,0,0,0-4.31,0A4,4,0,0,0,1101.29,516Z" transform="translate(-932.5 -332.56)"/><path class="cls-436" d="M1111.18,521.41V510.68h2.17v4.76l4.38-4.76h2.91l-4,4.18,4.26,6.55h-2.8l-2.95-5-1.76,1.79v3.24h-2.17Z" transform="translate(-932.5 -332.56)"/></svg>